{"glyphs":{"0":{"ha":683,"x_min":-3,"x_max":689,"o":"m 201 -26 q 122 -14 161 -26 q 56 21 83 -1 q -3 150 -3 71 q 114 381 -3 281 q 281 472 175 431 q 384 504 333 494 q 472 514 435 514 q 508 507 508 514 q 497 501 508 504 q 437 490 476 500 q 349 463 397 479 q 258 424 301 446 q 185 376 214 401 q 93 260 131 326 q 51 119 51 188 q 86 31 51 72 q 201 -10 121 -10 q 356 29 281 -10 q 515 144 431 68 q 560 194 540 168 q 593 240 581 219 q 622 301 613 272 q 632 356 632 329 q 610 422 632 400 q 528 444 588 444 q 246 335 372 444 q 245 334 247 336 q 240 332 243 332 q 235 338 235 332 q 310 399 235 357 q 519 461 421 461 q 644 426 600 461 q 689 331 689 392 q 582 128 689 228 q 501 65 544 93 q 410 15 458 38 q 302 -17 357 -8 q 201 -26 247 -26 z "},"1":{"ha":306,"x_min":33,"x_max":347,"o":"m 43 -39 q 33 -31 33 -39 q 35 -24 33 -26 q 82 86 58 26 q 128 196 106 146 q 160 267 143 228 q 194 347 178 307 q 221 418 211 388 q 209 413 218 418 q 194 403 200 407 q 178 394 185 394 q 172 401 172 394 q 182 418 172 408 l 290 518 q 297 519 292 519 q 310 517 301 519 q 325 513 319 515 q 344 500 340 503 q 347 494 347 497 l 346 492 q 304 429 328 468 q 247 332 281 390 q 172 197 208 263 q 104 65 135 132 q 83 22 94 43 q 56 -35 71 1 q 43 -39 54 -39 z "},"2":{"ha":472,"x_min":-11,"x_max":536,"o":"m 7 -10 q -6 3 0 -10 q -11 28 -11 15 q 53 65 -11 43 q 104 88 72 72 q 167 121 136 103 q 253 182 213 149 q 350 264 294 215 q 488 449 488 385 q 479 488 488 476 q 443 499 471 499 q 201 318 349 499 q 192 313 197 313 q 185 321 185 313 l 185 324 q 219 394 193 360 q 284 456 246 428 q 363 499 322 483 q 439 515 404 515 q 510 494 483 515 q 536 433 536 474 q 494 332 536 382 q 458 295 481 317 q 411 254 435 274 q 369 228 410 253 q 263 160 328 204 q 147 71 150 85 q 179 76 153 71 q 219 81 206 81 q 243 81 233 81 q 260 82 253 82 q 342 71 306 82 q 396 46 379 60 q 403 35 403 39 q 399 31 403 31 q 389 33 394 31 q 345 49 363 46 q 306 53 328 53 q 187 43 244 53 q 75 14 129 33 l 7 -10 z "},"3":{"ha":472,"x_min":-4,"x_max":472,"o":"m 132 -33 q 7 35 28 -33 q -2 72 0 58 q -4 99 -4 85 q 8 122 -4 122 q 19 120 13 122 q 25 115 25 118 q 131 -12 25 -12 q 210 3 175 -12 q 281 54 246 19 q 351 215 351 125 q 338 282 351 260 q 283 304 324 304 q 260 299 276 304 q 245 294 250 296 q 235 292 240 292 q 224 301 224 292 q 254 322 224 322 q 260 322 257 322 q 267 321 263 322 l 281 321 q 317 332 301 324 q 361 363 333 340 q 404 407 392 386 q 417 442 417 428 q 406 465 417 457 q 378 474 394 474 l 371 474 q 326 467 340 472 q 294 450 311 461 q 272 429 275 436 q 267 418 269 422 q 260 414 265 414 q 249 428 249 414 q 256 442 249 435 q 284 467 267 453 q 324 490 301 481 q 370 504 347 500 q 410 508 393 508 q 453 494 433 508 q 472 456 472 479 q 448 396 472 424 q 388 347 424 368 q 319 315 353 326 q 392 258 376 293 q 408 188 408 224 q 317 28 408 99 q 225 -19 274 -6 q 132 -33 176 -33 z "},"4":{"ha":460,"x_min":7,"x_max":469,"o":"m 186 -35 q 168 -29 181 -33 q 156 -18 156 -25 q 200 90 156 -3 q 240 169 224 142 q 257 203 256 197 q 210 200 239 203 q 157 194 182 197 q 124 190 132 192 q 53 178 83 182 q 14 174 24 174 q 8 183 8 174 q 7 199 7 192 q 38 228 7 207 q 60 242 53 239 q 79 254 68 246 q 172 319 126 286 q 263 386 217 353 q 333 444 296 410 q 400 508 371 478 q 435 547 429 538 q 457 534 444 547 q 469 501 469 521 l 469 479 q 442 441 463 471 q 389 358 421 411 q 322 242 322 253 q 333 239 322 239 q 367 236 344 239 q 394 226 389 233 q 399 214 399 219 q 388 202 399 207 q 374 197 376 197 q 333 202 354 201 q 290 203 311 203 q 237 97 267 161 q 186 -35 207 32 m 86 228 q 176 238 129 235 q 274 242 224 242 q 299 280 279 242 q 346 367 319 318 q 378 426 368 408 q 389 450 388 444 q 340 413 378 440 q 268 361 303 386 l 86 228 z "},"5":{"ha":458,"x_min":8,"x_max":525,"o":"m 144 -24 q 87 -15 118 -24 q 36 10 56 -7 q 15 42 21 24 q 8 79 8 61 q 14 119 8 100 q 25 153 19 139 q 38 167 31 167 q 43 158 43 167 q 42 150 43 153 q 31 90 31 131 q 32 67 31 78 q 39 46 33 56 q 73 11 51 21 q 119 1 94 1 q 170 9 144 1 q 215 28 196 17 q 306 119 265 56 q 347 236 347 185 q 326 304 347 286 q 298 318 313 315 q 269 321 283 321 q 203 301 235 321 q 147 261 171 282 q 137 250 143 256 q 124 238 131 244 q 113 233 118 233 q 93 250 93 233 q 105 277 93 253 q 139 336 117 301 q 163 376 147 350 q 192 424 178 401 q 210 451 207 447 q 192 464 200 458 q 183 471 183 469 q 202 494 183 482 q 229 506 221 506 q 240 504 232 506 q 254 501 249 503 l 272 501 q 365 505 318 501 q 463 508 411 508 q 490 508 478 508 q 514 504 501 507 q 525 493 525 504 q 517 485 525 485 q 482 485 499 485 q 450 486 465 486 q 363 483 407 486 q 274 468 318 479 q 251 461 268 468 q 232 432 247 454 q 199 381 217 410 q 168 322 182 351 q 278 346 224 346 q 376 321 339 346 q 413 244 413 296 q 325 64 413 151 q 144 -24 238 -24 z "},"6":{"ha":410,"x_min":17,"x_max":385,"o":"m 133 -28 q 83 -15 107 -28 q 43 21 58 -3 q 17 118 17 65 q 135 365 17 226 q 246 473 188 428 q 360 546 304 518 q 367 549 363 547 q 376 550 372 550 q 382 547 382 550 q 371 533 382 542 q 338 509 357 524 q 300 478 319 494 q 218 401 258 443 q 146 310 178 358 q 71 104 71 197 q 86 19 71 49 q 142 -10 101 -10 q 276 64 218 -10 q 315 140 306 101 q 325 214 325 179 q 308 276 325 256 q 264 296 292 296 q 240 292 253 296 q 215 282 226 288 q 178 258 193 271 q 156 246 163 246 q 151 251 151 249 q 168 276 151 263 q 206 299 185 289 q 276 318 244 318 q 344 293 314 318 q 374 251 364 279 q 385 199 385 222 q 365 115 385 160 q 304 32 344 69 q 218 -17 264 -6 q 133 -28 172 -28 z "},"7":{"ha":414,"x_min":31,"x_max":418,"o":"m 53 -39 q 40 -28 44 -39 q 34 -8 38 -19 q 31 10 31 4 q 48 70 31 38 q 91 137 65 103 q 144 201 117 171 q 190 254 171 232 q 209 276 192 256 q 251 324 226 296 q 297 379 275 353 q 332 418 319 406 q 358 456 350 438 q 365 479 365 474 q 338 492 365 492 q 207 478 276 492 q 94 424 138 464 q 74 405 85 415 q 49 394 64 394 q 40 403 43 394 q 38 422 38 413 q 46 458 38 440 q 72 483 54 476 q 205 515 133 508 q 332 521 276 521 q 358 515 342 521 q 388 501 375 508 q 409 482 400 494 q 418 460 418 469 q 369 398 418 444 q 240 253 321 351 q 131 109 176 175 q 72 -15 85 43 q 53 -39 67 -39 z "},"8":{"ha":431,"x_min":-31,"x_max":551,"o":"m 53 -10 q -8 8 15 -10 q -31 65 -31 26 q -11 132 -31 94 q 44 206 8 169 q 77 231 51 213 q 158 294 103 249 q 142 344 147 318 q 138 389 138 369 q 196 490 138 447 q 315 532 250 532 q 381 519 350 532 q 431 475 413 507 q 490 510 463 494 q 532 533 517 526 q 544 536 536 536 q 551 532 551 536 q 535 514 551 525 q 513 501 533 514 q 469 474 492 488 q 440 458 446 461 q 458 397 458 418 q 451 385 458 385 q 410 439 443 385 q 374 419 403 438 q 304 372 346 401 q 235 319 257 338 q 211 296 213 300 q 237 251 219 288 q 254 174 254 214 q 237 106 254 139 q 190 46 219 74 q 53 -10 131 -10 m 201 321 q 276 374 226 340 q 401 460 326 408 q 368 498 390 483 q 310 513 346 513 q 219 485 258 513 q 185 447 194 468 q 176 401 176 425 q 201 321 176 375 m 64 7 q 117 27 92 7 q 165 74 143 47 q 194 123 188 99 q 201 174 201 147 q 190 217 201 189 q 167 268 179 244 q 130 233 156 257 q 78 176 104 210 q 18 58 18 100 q 64 7 18 7 z "},"9":{"ha":425,"x_min":24,"x_max":425,"o":"m 172 -58 q 167 -46 167 -58 q 290 288 167 38 q 233 244 267 267 q 163 205 200 221 q 94 189 126 189 q 43 210 63 189 q 24 271 24 232 q 50 361 24 314 q 132 456 76 408 q 241 521 186 500 q 340 542 296 542 q 425 476 425 542 q 422 447 425 461 q 413 424 418 433 q 401 412 410 419 q 392 418 392 404 q 394 428 392 421 q 397 446 396 436 q 404 478 404 469 q 343 524 404 524 q 174 432 269 524 q 79 265 79 340 q 121 219 79 219 q 208 249 167 219 q 286 317 250 278 q 350 389 322 357 q 350 389 350 389 l 350 389 q 353 390 350 388 q 357 392 356 392 q 369 390 360 392 q 383 383 378 389 q 396 369 389 378 q 403 357 403 360 q 336 249 403 353 q 234 83 275 151 q 186 -26 193 14 q 172 -58 179 -58 z "},"\r":{"ha":204,"x_min":0,"x_max":0,"o":""}," ":{"ha":204,"x_min":0,"x_max":0,"o":""}," ":{"ha":204,"x_min":0,"x_max":0,"o":""},"A":{"ha":1042,"x_min":19,"x_max":1114,"o":"m 194 -78 q 74 -44 119 -78 q 19 64 19 -7 q 88 213 19 144 q 232 296 147 272 q 413 325 301 315 q 675 333 524 335 q 739 409 714 379 q 782 461 764 439 q 817 505 800 483 q 857 557 835 526 l 935 661 q 947 668 942 668 q 965 651 965 668 q 963 642 965 650 l 876 526 q 849 490 868 515 q 807 435 829 465 q 763 376 785 404 q 729 332 742 349 q 798 325 764 331 q 865 313 832 319 q 965 643 904 488 q 988 695 975 667 q 1021 765 1000 724 q 1058 794 1025 775 q 1101 814 1090 814 q 1114 801 1114 814 q 1107 786 1114 797 q 911 300 988 588 q 974 264 974 282 q 958 250 974 250 q 949 253 957 250 q 933 258 940 257 q 914 266 922 264 q 903 269 906 268 q 873 120 883 186 q 863 6 863 54 q 876 -42 863 -42 q 910 -25 889 -42 q 936 -7 932 -7 q 949 -22 949 -7 q 922 -53 949 -37 q 876 -69 896 -69 q 824 18 824 -69 q 832 128 824 63 q 858 278 840 193 q 783 285 824 283 q 694 289 742 288 q 647 232 674 263 q 585 164 621 201 q 508 83 539 114 q 456 34 478 53 q 414 0 435 15 q 194 -78 310 -78 m 178 -24 q 385 46 282 -24 q 459 106 417 68 q 550 196 501 144 q 589 237 568 215 q 636 289 610 258 l 597 289 q 388 281 478 289 q 236 257 297 274 q 170 229 201 247 q 115 189 139 211 q 57 67 57 133 q 96 -3 57 24 q 178 -24 129 -24 z "},"Æ":{"ha":1358,"x_min":17,"x_max":1594,"o":"m 190 -78 q 126 -71 156 -78 q 72 -47 96 -64 q 31 -2 46 -28 q 17 61 17 24 q 85 209 17 143 q 299 322 153 275 q 503 371 392 353 q 733 399 614 389 q 890 556 811 489 q 1038 656 968 622 q 1200 705 1110 692 q 1408 718 1290 718 q 1571 706 1521 718 q 1594 686 1594 699 q 1561 669 1594 669 q 1467 682 1536 682 q 1233 649 1290 682 q 1165 583 1218 639 q 1019 425 1111 528 q 1031 419 1024 419 q 1078 421 1050 419 q 1143 425 1106 422 q 1209 429 1181 428 q 1257 431 1238 431 q 1351 421 1351 431 q 1311 404 1351 413 q 1244 397 1296 401 q 1133 389 1193 393 q 1040 380 1078 386 q 975 365 1003 374 q 933 326 961 360 q 876 235 904 293 q 844 158 858 196 q 831 92 831 121 q 855 36 831 57 q 940 15 879 15 q 1084 37 1003 15 q 1264 103 1165 58 q 1310 124 1278 110 q 1372 156 1343 139 q 1376 157 1374 157 q 1383 143 1383 157 q 1172 21 1340 83 q 1027 -20 1094 -7 q 914 -33 960 -33 q 806 -6 844 -33 q 767 78 767 22 q 799 207 767 138 q 901 365 832 276 q 858 363 889 365 q 794 358 828 361 q 735 351 760 356 q 647 241 681 285 q 582 165 613 197 q 484 64 526 106 q 410 0 442 22 q 190 -78 303 -78 m 775 397 q 839 403 801 400 q 933 408 876 406 q 996 483 967 450 q 1060 552 1025 515 q 1144 643 1096 589 q 1149 651 1149 650 q 1143 656 1149 656 q 1124 651 1136 656 q 1033 615 1078 638 q 936 551 989 592 q 775 397 835 475 m 193 -14 q 392 51 294 -14 q 473 113 431 76 q 561 200 515 150 q 624 273 593 236 q 689 351 654 310 q 494 325 581 338 q 331 288 408 313 q 129 193 200 244 q 58 78 58 142 q 80 26 58 47 q 133 -4 101 6 q 193 -14 165 -14 z "},"Ǽ":{"ha":1358,"x_min":17,"x_max":1594,"o":"m 190 -78 q 126 -71 156 -78 q 72 -47 96 -64 q 31 -2 46 -28 q 17 61 17 24 q 85 209 17 143 q 299 322 153 275 q 503 371 392 353 q 733 399 614 389 q 890 556 811 489 q 1038 656 968 622 q 1200 705 1110 692 q 1408 718 1290 718 q 1571 706 1521 718 q 1594 686 1594 699 q 1561 669 1594 669 q 1467 682 1536 682 q 1233 649 1290 682 q 1165 583 1218 639 q 1019 425 1111 528 q 1031 419 1024 419 q 1078 421 1050 419 q 1143 425 1106 422 q 1209 429 1181 428 q 1257 431 1238 431 q 1351 421 1351 431 q 1311 404 1351 413 q 1244 397 1296 401 q 1133 389 1193 393 q 1040 380 1078 386 q 975 365 1003 374 q 933 326 961 360 q 876 235 904 293 q 844 158 858 196 q 831 92 831 121 q 855 36 831 57 q 940 15 879 15 q 1084 37 1003 15 q 1264 103 1165 58 q 1310 124 1278 110 q 1372 156 1343 139 q 1376 157 1374 157 q 1383 143 1383 157 q 1172 21 1340 83 q 1027 -20 1094 -7 q 914 -33 960 -33 q 806 -6 844 -33 q 767 78 767 22 q 799 207 767 138 q 901 365 832 276 q 858 363 889 365 q 794 358 828 361 q 735 351 760 356 q 647 241 681 285 q 582 165 613 197 q 484 64 526 106 q 410 0 442 22 q 190 -78 303 -78 m 775 397 q 839 403 801 400 q 933 408 876 406 q 996 483 967 450 q 1060 552 1025 515 q 1144 643 1096 589 q 1149 651 1149 650 q 1143 656 1149 656 q 1124 651 1136 656 q 1033 615 1078 638 q 936 551 989 592 q 775 397 835 475 m 193 -14 q 392 51 294 -14 q 473 113 431 76 q 561 200 515 150 q 624 273 593 236 q 689 351 654 310 q 494 325 581 338 q 331 288 408 313 q 129 193 200 244 q 58 78 58 142 q 80 26 58 47 q 133 -4 101 6 q 193 -14 165 -14 m 1183 768 q 1176 774 1176 768 q 1181 782 1176 778 q 1257 840 1210 807 q 1342 896 1304 872 q 1357 903 1350 901 q 1367 904 1364 904 q 1374 899 1369 904 q 1378 879 1378 894 q 1373 864 1378 871 q 1365 854 1368 857 q 1335 838 1361 851 q 1276 808 1308 825 q 1216 780 1243 792 q 1183 768 1189 768 z "},"Á":{"ha":1042,"x_min":19,"x_max":1249,"o":"m 194 -78 q 74 -44 119 -78 q 19 64 19 -7 q 88 213 19 144 q 232 296 147 272 q 413 325 301 315 q 675 333 524 335 q 739 409 714 379 q 782 461 764 439 q 817 505 800 483 q 857 557 835 526 l 935 661 q 947 668 942 668 q 965 651 965 668 q 963 642 965 650 l 876 526 q 849 490 868 515 q 807 435 829 465 q 763 376 785 404 q 729 332 742 349 q 798 325 764 331 q 865 313 832 319 q 965 643 904 488 q 988 695 975 667 q 1021 765 1000 724 q 1058 794 1025 775 q 1101 814 1090 814 q 1114 801 1114 814 q 1107 786 1114 797 q 911 300 988 588 q 974 264 974 282 q 958 250 974 250 q 949 253 957 250 q 933 258 940 257 q 914 266 922 264 q 903 269 906 268 q 873 120 883 186 q 863 6 863 54 q 876 -42 863 -42 q 910 -25 889 -42 q 936 -7 932 -7 q 949 -22 949 -7 q 922 -53 949 -37 q 876 -69 896 -69 q 824 18 824 -69 q 832 128 824 63 q 858 278 840 193 q 783 285 824 283 q 694 289 742 288 q 647 232 674 263 q 585 164 621 201 q 508 83 539 114 q 456 34 478 53 q 414 0 435 15 q 194 -78 310 -78 m 178 -24 q 385 46 282 -24 q 459 106 417 68 q 550 196 501 144 q 589 237 568 215 q 636 289 610 258 l 597 289 q 388 281 478 289 q 236 257 297 274 q 170 229 201 247 q 115 189 139 211 q 57 67 57 133 q 96 -3 57 24 q 178 -24 129 -24 m 1054 868 q 1047 874 1047 868 q 1051 882 1047 878 q 1128 940 1081 907 q 1213 996 1175 972 q 1228 1003 1221 1001 q 1238 1004 1235 1004 q 1244 999 1240 1004 q 1249 979 1249 994 q 1244 964 1249 971 q 1236 954 1239 957 q 1206 938 1232 951 q 1147 908 1179 925 q 1087 880 1114 892 q 1054 868 1060 868 z "},"Ă":{"ha":1042,"x_min":19,"x_max":1254,"o":"m 194 -78 q 74 -44 119 -78 q 19 64 19 -7 q 88 213 19 144 q 232 296 147 272 q 413 325 301 315 q 675 333 524 335 q 739 409 714 379 q 782 461 764 439 q 817 505 800 483 q 857 557 835 526 l 935 661 q 947 668 942 668 q 965 651 965 668 q 963 642 965 650 l 876 526 q 849 490 868 515 q 807 435 829 465 q 763 376 785 404 q 729 332 742 349 q 798 325 764 331 q 865 313 832 319 q 965 643 904 488 q 988 695 975 667 q 1021 765 1000 724 q 1058 794 1025 775 q 1101 814 1090 814 q 1114 801 1114 814 q 1107 786 1114 797 q 911 300 988 588 q 974 264 974 282 q 958 250 974 250 q 949 253 957 250 q 933 258 940 257 q 914 266 922 264 q 903 269 906 268 q 873 120 883 186 q 863 6 863 54 q 876 -42 863 -42 q 910 -25 889 -42 q 936 -7 932 -7 q 949 -22 949 -7 q 922 -53 949 -37 q 876 -69 896 -69 q 824 18 824 -69 q 832 128 824 63 q 858 278 840 193 q 783 285 824 283 q 694 289 742 288 q 647 232 674 263 q 585 164 621 201 q 508 83 539 114 q 456 34 478 53 q 414 0 435 15 q 194 -78 310 -78 m 178 -24 q 385 46 282 -24 q 459 106 417 68 q 550 196 501 144 q 589 237 568 215 q 636 289 610 258 l 597 289 q 388 281 478 289 q 236 257 297 274 q 170 229 201 247 q 115 189 139 211 q 57 67 57 133 q 96 -3 57 24 q 178 -24 129 -24 m 1104 867 q 1040 896 1061 867 q 1019 956 1019 925 q 1026 984 1019 975 q 1038 993 1032 993 q 1051 981 1051 993 q 1065 935 1051 956 q 1114 915 1079 915 q 1174 928 1142 915 q 1235 985 1206 942 q 1244 989 1239 989 q 1251 976 1254 989 q 1193 897 1232 926 q 1104 867 1154 867 z "},"Ắ":{"ha":1042,"x_min":19,"x_max":1282,"o":"m 194 -78 q 74 -44 119 -78 q 19 64 19 -7 q 88 213 19 144 q 232 296 147 272 q 413 325 301 315 q 675 333 524 335 q 739 409 714 379 q 782 461 764 439 q 817 505 800 483 q 857 557 835 526 l 935 661 q 947 668 942 668 q 965 651 965 668 q 963 642 965 650 l 876 526 q 849 490 868 515 q 807 435 829 465 q 763 376 785 404 q 729 332 742 349 q 798 325 764 331 q 865 313 832 319 q 965 643 904 488 q 988 695 975 667 q 1021 765 1000 724 q 1058 794 1025 775 q 1101 814 1090 814 q 1114 801 1114 814 q 1107 786 1114 797 q 911 300 988 588 q 974 264 974 282 q 958 250 974 250 q 949 253 957 250 q 933 258 940 257 q 914 266 922 264 q 903 269 906 268 q 873 120 883 186 q 863 6 863 54 q 876 -42 863 -42 q 910 -25 889 -42 q 936 -7 932 -7 q 949 -22 949 -7 q 922 -53 949 -37 q 876 -69 896 -69 q 824 18 824 -69 q 832 128 824 63 q 858 278 840 193 q 783 285 824 283 q 694 289 742 288 q 647 232 674 263 q 585 164 621 201 q 508 83 539 114 q 456 34 478 53 q 414 0 435 15 q 194 -78 310 -78 m 178 -24 q 385 46 282 -24 q 459 106 417 68 q 550 196 501 144 q 589 237 568 215 q 636 289 610 258 l 597 289 q 388 281 478 289 q 236 257 297 274 q 170 229 201 247 q 115 189 139 211 q 57 67 57 133 q 96 -3 57 24 q 178 -24 129 -24 m 1104 867 q 1040 896 1061 867 q 1019 956 1019 925 q 1026 984 1019 975 q 1038 993 1032 993 q 1051 981 1051 993 q 1065 935 1051 956 q 1114 915 1079 915 q 1174 928 1142 915 q 1235 985 1206 942 q 1244 989 1239 989 q 1251 976 1254 989 q 1193 897 1232 926 q 1104 867 1154 867 m 1088 996 q 1081 1001 1081 996 q 1085 1010 1081 1006 q 1161 1067 1114 1035 q 1246 1124 1208 1100 q 1261 1131 1254 1129 q 1271 1132 1268 1132 q 1278 1127 1274 1132 q 1282 1107 1282 1122 q 1277 1092 1282 1099 q 1269 1082 1272 1085 q 1239 1066 1265 1079 q 1180 1036 1213 1053 q 1120 1008 1147 1019 q 1088 996 1093 996 z "},"Ặ":{"ha":1042,"x_min":19,"x_max":1254,"o":"m 194 -78 q 74 -44 119 -78 q 19 64 19 -7 q 88 213 19 144 q 232 296 147 272 q 413 325 301 315 q 675 333 524 335 q 739 409 714 379 q 782 461 764 439 q 817 505 800 483 q 857 557 835 526 l 935 661 q 947 668 942 668 q 965 651 965 668 q 963 642 965 650 l 876 526 q 849 490 868 515 q 807 435 829 465 q 763 376 785 404 q 729 332 742 349 q 798 325 764 331 q 865 313 832 319 q 965 643 904 488 q 988 695 975 667 q 1021 765 1000 724 q 1058 794 1025 775 q 1101 814 1090 814 q 1114 801 1114 814 q 1107 786 1114 797 q 911 300 988 588 q 974 264 974 282 q 958 250 974 250 q 949 253 957 250 q 933 258 940 257 q 914 266 922 264 q 903 269 906 268 q 873 120 883 186 q 863 6 863 54 q 876 -42 863 -42 q 910 -25 889 -42 q 936 -7 932 -7 q 949 -22 949 -7 q 922 -53 949 -37 q 876 -69 896 -69 q 824 18 824 -69 q 832 128 824 63 q 858 278 840 193 q 783 285 824 283 q 694 289 742 288 q 647 232 674 263 q 585 164 621 201 q 508 83 539 114 q 456 34 478 53 q 414 0 435 15 q 194 -78 310 -78 m 178 -24 q 385 46 282 -24 q 459 106 417 68 q 550 196 501 144 q 589 237 568 215 q 636 289 610 258 l 597 289 q 388 281 478 289 q 236 257 297 274 q 170 229 201 247 q 115 189 139 211 q 57 67 57 133 q 96 -3 57 24 q 178 -24 129 -24 m 590 -146 q 554 -117 554 -146 q 567 -86 554 -101 q 597 -71 579 -71 q 622 -81 613 -71 q 631 -104 631 -90 q 619 -133 631 -119 q 590 -146 607 -146 m 1104 867 q 1040 896 1061 867 q 1019 956 1019 925 q 1026 984 1019 975 q 1038 993 1032 993 q 1051 981 1051 993 q 1065 935 1051 956 q 1114 915 1079 915 q 1174 928 1142 915 q 1235 985 1206 942 q 1244 989 1239 989 q 1251 976 1254 989 q 1193 897 1232 926 q 1104 867 1154 867 z "},"Ằ":{"ha":1042,"x_min":19,"x_max":1254,"o":"m 1186 996 q 1153 1008 1181 996 q 1094 1036 1126 1019 q 1035 1066 1061 1053 q 1004 1082 1008 1079 q 997 1092 1001 1085 q 992 1107 992 1099 q 996 1127 992 1122 q 1003 1132 1000 1132 q 1013 1131 1006 1132 q 1028 1124 1019 1129 q 1113 1067 1065 1100 q 1189 1010 1160 1035 q 1193 1001 1193 1006 q 1186 996 1193 996 m 194 -78 q 74 -44 119 -78 q 19 64 19 -7 q 88 213 19 144 q 232 296 147 272 q 413 325 301 315 q 675 333 524 335 q 739 409 714 379 q 782 461 764 439 q 817 505 800 483 q 857 557 835 526 l 935 661 q 947 668 942 668 q 965 651 965 668 q 963 642 965 650 l 876 526 q 849 490 868 515 q 807 435 829 465 q 763 376 785 404 q 729 332 742 349 q 798 325 764 331 q 865 313 832 319 q 965 643 904 488 q 988 695 975 667 q 1021 765 1000 724 q 1058 794 1025 775 q 1101 814 1090 814 q 1114 801 1114 814 q 1107 786 1114 797 q 911 300 988 588 q 974 264 974 282 q 958 250 974 250 q 949 253 957 250 q 933 258 940 257 q 914 266 922 264 q 903 269 906 268 q 873 120 883 186 q 863 6 863 54 q 876 -42 863 -42 q 910 -25 889 -42 q 936 -7 932 -7 q 949 -22 949 -7 q 922 -53 949 -37 q 876 -69 896 -69 q 824 18 824 -69 q 832 128 824 63 q 858 278 840 193 q 783 285 824 283 q 694 289 742 288 q 647 232 674 263 q 585 164 621 201 q 508 83 539 114 q 456 34 478 53 q 414 0 435 15 q 194 -78 310 -78 m 178 -24 q 385 46 282 -24 q 459 106 417 68 q 550 196 501 144 q 589 237 568 215 q 636 289 610 258 l 597 289 q 388 281 478 289 q 236 257 297 274 q 170 229 201 247 q 115 189 139 211 q 57 67 57 133 q 96 -3 57 24 q 178 -24 129 -24 m 1104 867 q 1040 896 1061 867 q 1019 956 1019 925 q 1026 984 1019 975 q 1038 993 1032 993 q 1051 981 1051 993 q 1065 935 1051 956 q 1114 915 1079 915 q 1174 928 1142 915 q 1235 985 1206 942 q 1244 989 1239 989 q 1251 976 1254 989 q 1193 897 1232 926 q 1104 867 1154 867 z "},"Ẳ":{"ha":1042,"x_min":19,"x_max":1257,"o":"m 194 -78 q 74 -44 119 -78 q 19 64 19 -7 q 88 213 19 144 q 232 296 147 272 q 413 325 301 315 q 675 333 524 335 q 739 409 714 379 q 782 461 764 439 q 817 505 800 483 q 857 557 835 526 l 935 661 q 947 668 942 668 q 965 651 965 668 q 963 642 965 650 l 876 526 q 849 490 868 515 q 807 435 829 465 q 763 376 785 404 q 729 332 742 349 q 798 325 764 331 q 865 313 832 319 q 965 643 904 488 q 988 695 975 667 q 1021 765 1000 724 q 1058 794 1025 775 q 1101 814 1090 814 q 1114 801 1114 814 q 1107 786 1114 797 q 911 300 988 588 q 974 264 974 282 q 958 250 974 250 q 949 253 957 250 q 933 258 940 257 q 914 266 922 264 q 903 269 906 268 q 873 120 883 186 q 863 6 863 54 q 876 -42 863 -42 q 910 -25 889 -42 q 936 -7 932 -7 q 949 -22 949 -7 q 922 -53 949 -37 q 876 -69 896 -69 q 824 18 824 -69 q 832 128 824 63 q 858 278 840 193 q 783 285 824 283 q 694 289 742 288 q 647 232 674 263 q 585 164 621 201 q 508 83 539 114 q 456 34 478 53 q 414 0 435 15 q 194 -78 310 -78 m 178 -24 q 385 46 282 -24 q 459 106 417 68 q 550 196 501 144 q 589 237 568 215 q 636 289 610 258 l 597 289 q 388 281 478 289 q 236 257 297 274 q 170 229 201 247 q 115 189 139 211 q 57 67 57 133 q 96 -3 57 24 q 178 -24 129 -24 m 1104 867 q 1040 896 1061 867 q 1019 956 1019 925 q 1026 984 1019 975 q 1038 993 1032 993 q 1051 981 1051 993 q 1065 935 1051 956 q 1114 915 1079 915 q 1174 928 1142 915 q 1235 985 1206 942 q 1244 989 1239 989 q 1251 976 1254 989 q 1193 897 1232 926 q 1104 867 1154 867 m 1147 994 q 1140 1006 1133 994 q 1169 1037 1149 1021 q 1197 1082 1190 1053 q 1199 1093 1199 1086 q 1161 1119 1199 1119 q 1131 1116 1143 1119 q 1113 1113 1118 1113 q 1108 1117 1108 1113 q 1136 1140 1108 1128 q 1193 1153 1164 1153 q 1239 1138 1221 1153 q 1253 1099 1257 1124 q 1216 1041 1246 1064 q 1165 1003 1186 1018 q 1147 994 1154 994 z "},"Ẵ":{"ha":1042,"x_min":19,"x_max":1254,"o":"m 194 -78 q 74 -44 119 -78 q 19 64 19 -7 q 88 213 19 144 q 232 296 147 272 q 413 325 301 315 q 675 333 524 335 q 739 409 714 379 q 782 461 764 439 q 817 505 800 483 q 857 557 835 526 l 935 661 q 947 668 942 668 q 965 651 965 668 q 963 642 965 650 l 876 526 q 849 490 868 515 q 807 435 829 465 q 763 376 785 404 q 729 332 742 349 q 798 325 764 331 q 865 313 832 319 q 965 643 904 488 q 988 695 975 667 q 1021 765 1000 724 q 1058 794 1025 775 q 1101 814 1090 814 q 1114 801 1114 814 q 1107 786 1114 797 q 911 300 988 588 q 974 264 974 282 q 958 250 974 250 q 949 253 957 250 q 933 258 940 257 q 914 266 922 264 q 903 269 906 268 q 873 120 883 186 q 863 6 863 54 q 876 -42 863 -42 q 910 -25 889 -42 q 936 -7 932 -7 q 949 -22 949 -7 q 922 -53 949 -37 q 876 -69 896 -69 q 824 18 824 -69 q 832 128 824 63 q 858 278 840 193 q 783 285 824 283 q 694 289 742 288 q 647 232 674 263 q 585 164 621 201 q 508 83 539 114 q 456 34 478 53 q 414 0 435 15 q 194 -78 310 -78 m 178 -24 q 385 46 282 -24 q 459 106 417 68 q 550 196 501 144 q 589 237 568 215 q 636 289 610 258 l 597 289 q 388 281 478 289 q 236 257 297 274 q 170 229 201 247 q 115 189 139 211 q 57 67 57 133 q 96 -3 57 24 q 178 -24 129 -24 m 1104 867 q 1040 896 1061 867 q 1019 956 1019 925 q 1026 984 1019 975 q 1038 993 1032 993 q 1051 981 1051 993 q 1065 935 1051 956 q 1114 915 1079 915 q 1174 928 1142 915 q 1235 985 1206 942 q 1244 989 1239 989 q 1251 976 1254 989 q 1193 897 1232 926 q 1104 867 1154 867 m 1024 1001 q 1015 1008 1015 1001 q 1035 1056 1015 1036 q 1086 1076 1056 1076 q 1145 1063 1119 1076 q 1197 1049 1171 1049 q 1225 1057 1215 1049 q 1244 1083 1235 1065 q 1254 1076 1254 1083 q 1233 1026 1254 1046 q 1186 1006 1213 1006 q 1124 1021 1149 1006 q 1071 1036 1099 1036 q 1024 1001 1039 1036 z "},"Ǎ":{"ha":1042,"x_min":19,"x_max":1288,"o":"m 1279 1007 q 1288 1000 1288 1007 q 1278 986 1288 993 q 1203 935 1238 958 q 1126 885 1168 913 q 1094 869 1104 869 q 1076 883 1083 869 q 1051 933 1063 911 q 1029 978 1039 956 q 1024 999 1024 990 q 1035 1010 1024 1010 q 1047 1004 1040 1010 q 1060 992 1054 999 q 1092 954 1075 974 q 1118 926 1110 935 q 1156 947 1131 933 q 1207 974 1181 960 q 1254 997 1233 988 q 1279 1007 1275 1007 m 194 -78 q 74 -44 119 -78 q 19 64 19 -7 q 88 213 19 144 q 232 296 147 272 q 413 325 301 315 q 675 333 524 335 q 739 409 714 379 q 782 461 764 439 q 817 505 800 483 q 857 557 835 526 l 935 661 q 947 668 942 668 q 965 651 965 668 q 963 642 965 650 l 876 526 q 849 490 868 515 q 807 435 829 465 q 763 376 785 404 q 729 332 742 349 q 798 325 764 331 q 865 313 832 319 q 965 643 904 488 q 988 695 975 667 q 1021 765 1000 724 q 1058 794 1025 775 q 1101 814 1090 814 q 1114 801 1114 814 q 1107 786 1114 797 q 911 300 988 588 q 974 264 974 282 q 958 250 974 250 q 949 253 957 250 q 933 258 940 257 q 914 266 922 264 q 903 269 906 268 q 873 120 883 186 q 863 6 863 54 q 876 -42 863 -42 q 910 -25 889 -42 q 936 -7 932 -7 q 949 -22 949 -7 q 922 -53 949 -37 q 876 -69 896 -69 q 824 18 824 -69 q 832 128 824 63 q 858 278 840 193 q 783 285 824 283 q 694 289 742 288 q 647 232 674 263 q 585 164 621 201 q 508 83 539 114 q 456 34 478 53 q 414 0 435 15 q 194 -78 310 -78 m 178 -24 q 385 46 282 -24 q 459 106 417 68 q 550 196 501 144 q 589 237 568 215 q 636 289 610 258 l 597 289 q 388 281 478 289 q 236 257 297 274 q 170 229 201 247 q 115 189 139 211 q 57 67 57 133 q 96 -3 57 24 q 178 -24 129 -24 z "},"Â":{"ha":1042,"x_min":19,"x_max":1229,"o":"m 194 -78 q 74 -44 119 -78 q 19 64 19 -7 q 88 213 19 144 q 232 296 147 272 q 413 325 301 315 q 675 333 524 335 q 739 409 714 379 q 782 461 764 439 q 817 505 800 483 q 857 557 835 526 l 935 661 q 947 668 942 668 q 965 651 965 668 q 963 642 965 650 l 876 526 q 849 490 868 515 q 807 435 829 465 q 763 376 785 404 q 729 332 742 349 q 798 325 764 331 q 865 313 832 319 q 965 643 904 488 q 988 695 975 667 q 1021 765 1000 724 q 1058 794 1025 775 q 1101 814 1090 814 q 1114 801 1114 814 q 1107 786 1114 797 q 911 300 988 588 q 974 264 974 282 q 958 250 974 250 q 949 253 957 250 q 933 258 940 257 q 914 266 922 264 q 903 269 906 268 q 873 120 883 186 q 863 6 863 54 q 876 -42 863 -42 q 910 -25 889 -42 q 936 -7 932 -7 q 949 -22 949 -7 q 922 -53 949 -37 q 876 -69 896 -69 q 824 18 824 -69 q 832 128 824 63 q 858 278 840 193 q 783 285 824 283 q 694 289 742 288 q 647 232 674 263 q 585 164 621 201 q 508 83 539 114 q 456 34 478 53 q 414 0 435 15 q 194 -78 310 -78 m 178 -24 q 385 46 282 -24 q 459 106 417 68 q 550 196 501 144 q 589 237 568 215 q 636 289 610 258 l 597 289 q 388 281 478 289 q 236 257 297 274 q 170 229 201 247 q 115 189 139 211 q 57 67 57 133 q 96 -3 57 24 q 178 -24 129 -24 m 974 872 q 965 879 965 872 q 975 893 965 886 q 1050 944 1015 921 q 1126 994 1085 968 q 1158 1010 1150 1010 q 1176 996 1169 1010 q 1203 947 1192 969 q 1224 901 1214 924 q 1229 881 1229 889 q 1218 869 1229 869 q 1206 875 1213 869 q 1193 888 1200 881 q 1160 925 1178 906 q 1135 953 1143 944 q 1097 933 1122 946 q 1046 906 1072 919 q 999 882 1019 892 q 974 872 978 872 z "},"Ấ":{"ha":1042,"x_min":19,"x_max":1426,"o":"m 194 -78 q 74 -44 119 -78 q 19 64 19 -7 q 88 213 19 144 q 232 296 147 272 q 413 325 301 315 q 675 333 524 335 q 739 409 714 379 q 782 461 764 439 q 817 505 800 483 q 857 557 835 526 l 935 661 q 947 668 942 668 q 965 651 965 668 q 963 642 965 650 l 876 526 q 849 490 868 515 q 807 435 829 465 q 763 376 785 404 q 729 332 742 349 q 798 325 764 331 q 865 313 832 319 q 965 643 904 488 q 988 695 975 667 q 1021 765 1000 724 q 1058 794 1025 775 q 1101 814 1090 814 q 1114 801 1114 814 q 1107 786 1114 797 q 911 300 988 588 q 974 264 974 282 q 958 250 974 250 q 949 253 957 250 q 933 258 940 257 q 914 266 922 264 q 903 269 906 268 q 873 120 883 186 q 863 6 863 54 q 876 -42 863 -42 q 910 -25 889 -42 q 936 -7 932 -7 q 949 -22 949 -7 q 922 -53 949 -37 q 876 -69 896 -69 q 824 18 824 -69 q 832 128 824 63 q 858 278 840 193 q 783 285 824 283 q 694 289 742 288 q 647 232 674 263 q 585 164 621 201 q 508 83 539 114 q 456 34 478 53 q 414 0 435 15 q 194 -78 310 -78 m 178 -24 q 385 46 282 -24 q 459 106 417 68 q 550 196 501 144 q 589 237 568 215 q 636 289 610 258 l 597 289 q 388 281 478 289 q 236 257 297 274 q 170 229 201 247 q 115 189 139 211 q 57 67 57 133 q 96 -3 57 24 q 178 -24 129 -24 m 974 872 q 965 879 965 872 q 975 893 965 886 q 1050 944 1015 921 q 1126 994 1085 968 q 1158 1010 1150 1010 q 1176 996 1169 1010 q 1203 947 1192 969 q 1224 901 1214 924 q 1229 881 1229 889 q 1218 869 1229 869 q 1206 875 1213 869 q 1193 888 1200 881 q 1160 925 1178 906 q 1135 953 1143 944 q 1097 933 1122 946 q 1046 906 1072 919 q 999 882 1019 892 q 974 872 978 872 m 1232 988 q 1225 993 1225 988 q 1229 1001 1225 997 q 1306 1059 1258 1026 q 1390 1115 1353 1092 q 1406 1122 1399 1121 q 1415 1124 1413 1124 q 1422 1119 1418 1124 q 1426 1099 1426 1114 q 1422 1083 1426 1090 q 1414 1074 1417 1076 q 1383 1058 1410 1071 q 1324 1028 1357 1044 q 1265 999 1292 1011 q 1232 988 1238 988 z "},"Ậ":{"ha":1042,"x_min":19,"x_max":1229,"o":"m 194 -78 q 74 -44 119 -78 q 19 64 19 -7 q 88 213 19 144 q 232 296 147 272 q 413 325 301 315 q 675 333 524 335 q 739 409 714 379 q 782 461 764 439 q 817 505 800 483 q 857 557 835 526 l 935 661 q 947 668 942 668 q 965 651 965 668 q 963 642 965 650 l 876 526 q 849 490 868 515 q 807 435 829 465 q 763 376 785 404 q 729 332 742 349 q 798 325 764 331 q 865 313 832 319 q 965 643 904 488 q 988 695 975 667 q 1021 765 1000 724 q 1058 794 1025 775 q 1101 814 1090 814 q 1114 801 1114 814 q 1107 786 1114 797 q 911 300 988 588 q 974 264 974 282 q 958 250 974 250 q 949 253 957 250 q 933 258 940 257 q 914 266 922 264 q 903 269 906 268 q 873 120 883 186 q 863 6 863 54 q 876 -42 863 -42 q 910 -25 889 -42 q 936 -7 932 -7 q 949 -22 949 -7 q 922 -53 949 -37 q 876 -69 896 -69 q 824 18 824 -69 q 832 128 824 63 q 858 278 840 193 q 783 285 824 283 q 694 289 742 288 q 647 232 674 263 q 585 164 621 201 q 508 83 539 114 q 456 34 478 53 q 414 0 435 15 q 194 -78 310 -78 m 178 -24 q 385 46 282 -24 q 459 106 417 68 q 550 196 501 144 q 589 237 568 215 q 636 289 610 258 l 597 289 q 388 281 478 289 q 236 257 297 274 q 170 229 201 247 q 115 189 139 211 q 57 67 57 133 q 96 -3 57 24 q 178 -24 129 -24 m 590 -146 q 554 -117 554 -146 q 567 -86 554 -101 q 597 -71 579 -71 q 622 -81 613 -71 q 631 -104 631 -90 q 619 -133 631 -119 q 590 -146 607 -146 m 974 872 q 965 879 965 872 q 975 893 965 886 q 1050 944 1015 921 q 1126 994 1085 968 q 1158 1010 1150 1010 q 1176 996 1169 1010 q 1203 947 1192 969 q 1224 901 1214 924 q 1229 881 1229 889 q 1218 869 1229 869 q 1206 875 1213 869 q 1193 888 1200 881 q 1160 925 1178 906 q 1135 953 1143 944 q 1097 933 1122 946 q 1046 906 1072 919 q 999 882 1019 892 q 974 872 978 872 z "},"Ầ":{"ha":1042,"x_min":19,"x_max":1338,"o":"m 1331 988 q 1298 999 1325 988 q 1238 1028 1271 1011 q 1179 1058 1206 1044 q 1149 1074 1153 1071 q 1141 1083 1146 1076 q 1136 1099 1136 1090 q 1140 1119 1136 1114 q 1147 1124 1144 1124 q 1157 1122 1150 1124 q 1172 1115 1164 1121 q 1257 1059 1210 1092 q 1333 1001 1304 1026 q 1338 993 1338 997 q 1331 988 1338 988 m 194 -78 q 74 -44 119 -78 q 19 64 19 -7 q 88 213 19 144 q 232 296 147 272 q 413 325 301 315 q 675 333 524 335 q 739 409 714 379 q 782 461 764 439 q 817 505 800 483 q 857 557 835 526 l 935 661 q 947 668 942 668 q 965 651 965 668 q 963 642 965 650 l 876 526 q 849 490 868 515 q 807 435 829 465 q 763 376 785 404 q 729 332 742 349 q 798 325 764 331 q 865 313 832 319 q 965 643 904 488 q 988 695 975 667 q 1021 765 1000 724 q 1058 794 1025 775 q 1101 814 1090 814 q 1114 801 1114 814 q 1107 786 1114 797 q 911 300 988 588 q 974 264 974 282 q 958 250 974 250 q 949 253 957 250 q 933 258 940 257 q 914 266 922 264 q 903 269 906 268 q 873 120 883 186 q 863 6 863 54 q 876 -42 863 -42 q 910 -25 889 -42 q 936 -7 932 -7 q 949 -22 949 -7 q 922 -53 949 -37 q 876 -69 896 -69 q 824 18 824 -69 q 832 128 824 63 q 858 278 840 193 q 783 285 824 283 q 694 289 742 288 q 647 232 674 263 q 585 164 621 201 q 508 83 539 114 q 456 34 478 53 q 414 0 435 15 q 194 -78 310 -78 m 178 -24 q 385 46 282 -24 q 459 106 417 68 q 550 196 501 144 q 589 237 568 215 q 636 289 610 258 l 597 289 q 388 281 478 289 q 236 257 297 274 q 170 229 201 247 q 115 189 139 211 q 57 67 57 133 q 96 -3 57 24 q 178 -24 129 -24 m 974 872 q 965 879 965 872 q 975 893 965 886 q 1050 944 1015 921 q 1126 994 1085 968 q 1158 1010 1150 1010 q 1176 996 1169 1010 q 1203 947 1192 969 q 1224 901 1214 924 q 1229 881 1229 889 q 1218 869 1229 869 q 1206 875 1213 869 q 1193 888 1200 881 q 1160 925 1178 906 q 1135 953 1143 944 q 1097 933 1122 946 q 1046 906 1072 919 q 999 882 1019 892 q 974 872 978 872 z "},"Ẩ":{"ha":1042,"x_min":19,"x_max":1368,"o":"m 194 -78 q 74 -44 119 -78 q 19 64 19 -7 q 88 213 19 144 q 232 296 147 272 q 413 325 301 315 q 675 333 524 335 q 739 409 714 379 q 782 461 764 439 q 817 505 800 483 q 857 557 835 526 l 935 661 q 947 668 942 668 q 965 651 965 668 q 963 642 965 650 l 876 526 q 849 490 868 515 q 807 435 829 465 q 763 376 785 404 q 729 332 742 349 q 798 325 764 331 q 865 313 832 319 q 965 643 904 488 q 988 695 975 667 q 1021 765 1000 724 q 1058 794 1025 775 q 1101 814 1090 814 q 1114 801 1114 814 q 1107 786 1114 797 q 911 300 988 588 q 974 264 974 282 q 958 250 974 250 q 949 253 957 250 q 933 258 940 257 q 914 266 922 264 q 903 269 906 268 q 873 120 883 186 q 863 6 863 54 q 876 -42 863 -42 q 910 -25 889 -42 q 936 -7 932 -7 q 949 -22 949 -7 q 922 -53 949 -37 q 876 -69 896 -69 q 824 18 824 -69 q 832 128 824 63 q 858 278 840 193 q 783 285 824 283 q 694 289 742 288 q 647 232 674 263 q 585 164 621 201 q 508 83 539 114 q 456 34 478 53 q 414 0 435 15 q 194 -78 310 -78 m 178 -24 q 385 46 282 -24 q 459 106 417 68 q 550 196 501 144 q 589 237 568 215 q 636 289 610 258 l 597 289 q 388 281 478 289 q 236 257 297 274 q 170 229 201 247 q 115 189 139 211 q 57 67 57 133 q 96 -3 57 24 q 178 -24 129 -24 m 974 872 q 965 879 965 872 q 975 893 965 886 q 1050 944 1015 921 q 1126 994 1085 968 q 1158 1010 1150 1010 q 1176 996 1169 1010 q 1203 947 1192 969 q 1224 901 1214 924 q 1229 881 1229 889 q 1218 869 1229 869 q 1206 875 1213 869 q 1193 888 1200 881 q 1160 925 1178 906 q 1135 953 1143 944 q 1097 933 1122 946 q 1046 906 1072 919 q 999 882 1019 892 q 974 872 978 872 m 1258 949 q 1251 960 1244 949 q 1281 991 1260 975 q 1308 1036 1301 1007 q 1310 1047 1310 1040 q 1272 1074 1310 1074 q 1242 1070 1254 1074 q 1224 1067 1229 1067 q 1219 1071 1219 1067 q 1247 1094 1219 1082 q 1304 1107 1275 1107 q 1350 1092 1332 1107 q 1364 1053 1368 1078 q 1327 995 1357 1018 q 1276 957 1297 972 q 1258 949 1265 949 z "},"Ẫ":{"ha":1042,"x_min":19,"x_max":1281,"o":"m 194 -78 q 74 -44 119 -78 q 19 64 19 -7 q 88 213 19 144 q 232 296 147 272 q 413 325 301 315 q 675 333 524 335 q 739 409 714 379 q 782 461 764 439 q 817 505 800 483 q 857 557 835 526 l 935 661 q 947 668 942 668 q 965 651 965 668 q 963 642 965 650 l 876 526 q 849 490 868 515 q 807 435 829 465 q 763 376 785 404 q 729 332 742 349 q 798 325 764 331 q 865 313 832 319 q 965 643 904 488 q 988 695 975 667 q 1021 765 1000 724 q 1058 794 1025 775 q 1101 814 1090 814 q 1114 801 1114 814 q 1107 786 1114 797 q 911 300 988 588 q 974 264 974 282 q 958 250 974 250 q 949 253 957 250 q 933 258 940 257 q 914 266 922 264 q 903 269 906 268 q 873 120 883 186 q 863 6 863 54 q 876 -42 863 -42 q 910 -25 889 -42 q 936 -7 932 -7 q 949 -22 949 -7 q 922 -53 949 -37 q 876 -69 896 -69 q 824 18 824 -69 q 832 128 824 63 q 858 278 840 193 q 783 285 824 283 q 694 289 742 288 q 647 232 674 263 q 585 164 621 201 q 508 83 539 114 q 456 34 478 53 q 414 0 435 15 q 194 -78 310 -78 m 178 -24 q 385 46 282 -24 q 459 106 417 68 q 550 196 501 144 q 589 237 568 215 q 636 289 610 258 l 597 289 q 388 281 478 289 q 236 257 297 274 q 170 229 201 247 q 115 189 139 211 q 57 67 57 133 q 96 -3 57 24 q 178 -24 129 -24 m 974 872 q 965 879 965 872 q 975 893 965 886 q 1050 944 1015 921 q 1126 994 1085 968 q 1158 1010 1150 1010 q 1176 996 1169 1010 q 1203 947 1192 969 q 1224 901 1214 924 q 1229 881 1229 889 q 1218 869 1229 869 q 1206 875 1213 869 q 1193 888 1200 881 q 1160 925 1178 906 q 1135 953 1143 944 q 1097 933 1122 946 q 1046 906 1072 919 q 999 882 1019 892 q 974 872 978 872 m 1050 1053 q 1042 1060 1042 1053 q 1062 1108 1042 1088 q 1113 1128 1082 1128 q 1172 1114 1146 1128 q 1224 1100 1197 1100 q 1251 1108 1242 1100 q 1271 1135 1261 1117 q 1281 1128 1281 1135 q 1260 1077 1281 1097 q 1213 1057 1239 1057 q 1150 1072 1175 1057 q 1097 1088 1125 1088 q 1050 1053 1065 1088 z "},"Ȁ":{"ha":1042,"x_min":19,"x_max":1156,"o":"m 194 -78 q 74 -44 119 -78 q 19 64 19 -7 q 88 213 19 144 q 232 296 147 272 q 413 325 301 315 q 675 333 524 335 q 739 409 714 379 q 782 461 764 439 q 817 505 800 483 q 857 557 835 526 l 935 661 q 947 668 942 668 q 965 651 965 668 q 963 642 965 650 l 876 526 q 849 490 868 515 q 807 435 829 465 q 763 376 785 404 q 729 332 742 349 q 798 325 764 331 q 865 313 832 319 q 965 643 904 488 q 988 695 975 667 q 1021 765 1000 724 q 1058 794 1025 775 q 1101 814 1090 814 q 1114 801 1114 814 q 1107 786 1114 797 q 911 300 988 588 q 974 264 974 282 q 958 250 974 250 q 949 253 957 250 q 933 258 940 257 q 914 266 922 264 q 903 269 906 268 q 873 120 883 186 q 863 6 863 54 q 876 -42 863 -42 q 910 -25 889 -42 q 936 -7 932 -7 q 949 -22 949 -7 q 922 -53 949 -37 q 876 -69 896 -69 q 824 18 824 -69 q 832 128 824 63 q 858 278 840 193 q 783 285 824 283 q 694 289 742 288 q 647 232 674 263 q 585 164 621 201 q 508 83 539 114 q 456 34 478 53 q 414 0 435 15 q 194 -78 310 -78 m 178 -24 q 385 46 282 -24 q 459 106 417 68 q 550 196 501 144 q 589 237 568 215 q 636 289 610 258 l 597 289 q 388 281 478 289 q 236 257 297 274 q 170 229 201 247 q 115 189 139 211 q 57 67 57 133 q 96 -3 57 24 q 178 -24 129 -24 m 1146 869 q 1122 885 1140 871 q 1081 919 1103 900 q 1042 956 1060 939 q 1021 976 1025 972 q 1016 985 1019 979 q 1015 1000 1013 990 q 1033 1025 1022 1025 q 1057 1007 1043 1025 q 1111 942 1090 968 q 1153 883 1132 915 q 1155 879 1156 882 q 1154 874 1154 876 q 1146 869 1154 869 m 1057 872 q 1031 885 1051 872 q 987 914 1011 897 q 944 944 963 931 q 921 963 925 958 q 915 970 918 965 q 911 981 911 975 q 928 1011 911 1011 q 937 1008 931 1011 q 951 999 943 1006 q 1008 946 978 976 q 1063 886 1039 915 q 1067 876 1067 882 q 1057 872 1067 872 z "},"Ä":{"ha":1042,"x_min":19,"x_max":1210,"o":"m 194 -78 q 74 -44 119 -78 q 19 64 19 -7 q 88 213 19 144 q 232 296 147 272 q 413 325 301 315 q 675 333 524 335 q 739 409 714 379 q 782 461 764 439 q 817 505 800 483 q 857 557 835 526 l 935 661 q 947 668 942 668 q 965 651 965 668 q 963 642 965 650 l 876 526 q 849 490 868 515 q 807 435 829 465 q 763 376 785 404 q 729 332 742 349 q 798 325 764 331 q 865 313 832 319 q 965 643 904 488 q 988 695 975 667 q 1021 765 1000 724 q 1058 794 1025 775 q 1101 814 1090 814 q 1114 801 1114 814 q 1107 786 1114 797 q 911 300 988 588 q 974 264 974 282 q 958 250 974 250 q 949 253 957 250 q 933 258 940 257 q 914 266 922 264 q 903 269 906 268 q 873 120 883 186 q 863 6 863 54 q 876 -42 863 -42 q 910 -25 889 -42 q 936 -7 932 -7 q 949 -22 949 -7 q 922 -53 949 -37 q 876 -69 896 -69 q 824 18 824 -69 q 832 128 824 63 q 858 278 840 193 q 783 285 824 283 q 694 289 742 288 q 647 232 674 263 q 585 164 621 201 q 508 83 539 114 q 456 34 478 53 q 414 0 435 15 q 194 -78 310 -78 m 178 -24 q 385 46 282 -24 q 459 106 417 68 q 550 196 501 144 q 589 237 568 215 q 636 289 610 258 l 597 289 q 388 281 478 289 q 236 257 297 274 q 170 229 201 247 q 115 189 139 211 q 57 67 57 133 q 96 -3 57 24 q 178 -24 129 -24 m 1169 869 q 1133 899 1133 869 q 1146 929 1133 914 q 1176 944 1158 944 q 1201 935 1192 944 q 1210 911 1210 925 q 1198 883 1210 896 q 1169 869 1186 869 m 1029 869 q 993 899 993 869 q 1006 929 993 914 q 1036 944 1018 944 q 1060 935 1051 944 q 1069 911 1069 925 q 1058 883 1069 896 q 1029 869 1046 869 z "},"Ạ":{"ha":1042,"x_min":19,"x_max":1114,"o":"m 194 -78 q 74 -44 119 -78 q 19 64 19 -7 q 88 213 19 144 q 232 296 147 272 q 413 325 301 315 q 675 333 524 335 q 739 409 714 379 q 782 461 764 439 q 817 505 800 483 q 857 557 835 526 l 935 661 q 947 668 942 668 q 965 651 965 668 q 963 642 965 650 l 876 526 q 849 490 868 515 q 807 435 829 465 q 763 376 785 404 q 729 332 742 349 q 798 325 764 331 q 865 313 832 319 q 965 643 904 488 q 988 695 975 667 q 1021 765 1000 724 q 1058 794 1025 775 q 1101 814 1090 814 q 1114 801 1114 814 q 1107 786 1114 797 q 911 300 988 588 q 974 264 974 282 q 958 250 974 250 q 949 253 957 250 q 933 258 940 257 q 914 266 922 264 q 903 269 906 268 q 873 120 883 186 q 863 6 863 54 q 876 -42 863 -42 q 910 -25 889 -42 q 936 -7 932 -7 q 949 -22 949 -7 q 922 -53 949 -37 q 876 -69 896 -69 q 824 18 824 -69 q 832 128 824 63 q 858 278 840 193 q 783 285 824 283 q 694 289 742 288 q 647 232 674 263 q 585 164 621 201 q 508 83 539 114 q 456 34 478 53 q 414 0 435 15 q 194 -78 310 -78 m 178 -24 q 385 46 282 -24 q 459 106 417 68 q 550 196 501 144 q 589 237 568 215 q 636 289 610 258 l 597 289 q 388 281 478 289 q 236 257 297 274 q 170 229 201 247 q 115 189 139 211 q 57 67 57 133 q 96 -3 57 24 q 178 -24 129 -24 m 590 -146 q 554 -117 554 -146 q 567 -86 554 -101 q 597 -71 579 -71 q 622 -81 613 -71 q 631 -104 631 -90 q 619 -133 631 -119 q 590 -146 607 -146 z "},"À":{"ha":1042,"x_min":19,"x_max":1160,"o":"m 1153 868 q 1120 880 1147 868 q 1060 908 1093 892 q 1001 938 1028 925 q 971 954 975 951 q 963 964 968 957 q 958 979 958 971 q 963 999 958 994 q 969 1004 967 1004 q 979 1003 972 1004 q 994 996 986 1001 q 1079 940 1032 972 q 1156 882 1126 907 q 1160 874 1160 878 q 1153 868 1160 868 m 194 -78 q 74 -44 119 -78 q 19 64 19 -7 q 88 213 19 144 q 232 296 147 272 q 413 325 301 315 q 675 333 524 335 q 739 409 714 379 q 782 461 764 439 q 817 505 800 483 q 857 557 835 526 l 935 661 q 947 668 942 668 q 965 651 965 668 q 963 642 965 650 l 876 526 q 849 490 868 515 q 807 435 829 465 q 763 376 785 404 q 729 332 742 349 q 798 325 764 331 q 865 313 832 319 q 965 643 904 488 q 988 695 975 667 q 1021 765 1000 724 q 1058 794 1025 775 q 1101 814 1090 814 q 1114 801 1114 814 q 1107 786 1114 797 q 911 300 988 588 q 974 264 974 282 q 958 250 974 250 q 949 253 957 250 q 933 258 940 257 q 914 266 922 264 q 903 269 906 268 q 873 120 883 186 q 863 6 863 54 q 876 -42 863 -42 q 910 -25 889 -42 q 936 -7 932 -7 q 949 -22 949 -7 q 922 -53 949 -37 q 876 -69 896 -69 q 824 18 824 -69 q 832 128 824 63 q 858 278 840 193 q 783 285 824 283 q 694 289 742 288 q 647 232 674 263 q 585 164 621 201 q 508 83 539 114 q 456 34 478 53 q 414 0 435 15 q 194 -78 310 -78 m 178 -24 q 385 46 282 -24 q 459 106 417 68 q 550 196 501 144 q 589 237 568 215 q 636 289 610 258 l 597 289 q 388 281 478 289 q 236 257 297 274 q 170 229 201 247 q 115 189 139 211 q 57 67 57 133 q 96 -3 57 24 q 178 -24 129 -24 z "},"Ả":{"ha":1042,"x_min":19,"x_max":1224,"o":"m 194 -78 q 74 -44 119 -78 q 19 64 19 -7 q 88 213 19 144 q 232 296 147 272 q 413 325 301 315 q 675 333 524 335 q 739 409 714 379 q 782 461 764 439 q 817 505 800 483 q 857 557 835 526 l 935 661 q 947 668 942 668 q 965 651 965 668 q 963 642 965 650 l 876 526 q 849 490 868 515 q 807 435 829 465 q 763 376 785 404 q 729 332 742 349 q 798 325 764 331 q 865 313 832 319 q 965 643 904 488 q 988 695 975 667 q 1021 765 1000 724 q 1058 794 1025 775 q 1101 814 1090 814 q 1114 801 1114 814 q 1107 786 1114 797 q 911 300 988 588 q 974 264 974 282 q 958 250 974 250 q 949 253 957 250 q 933 258 940 257 q 914 266 922 264 q 903 269 906 268 q 873 120 883 186 q 863 6 863 54 q 876 -42 863 -42 q 910 -25 889 -42 q 936 -7 932 -7 q 949 -22 949 -7 q 922 -53 949 -37 q 876 -69 896 -69 q 824 18 824 -69 q 832 128 824 63 q 858 278 840 193 q 783 285 824 283 q 694 289 742 288 q 647 232 674 263 q 585 164 621 201 q 508 83 539 114 q 456 34 478 53 q 414 0 435 15 q 194 -78 310 -78 m 178 -24 q 385 46 282 -24 q 459 106 417 68 q 550 196 501 144 q 589 237 568 215 q 636 289 610 258 l 597 289 q 388 281 478 289 q 236 257 297 274 q 170 229 201 247 q 115 189 139 211 q 57 67 57 133 q 96 -3 57 24 q 178 -24 129 -24 m 1114 867 q 1107 878 1100 867 q 1136 909 1115 893 q 1164 954 1157 925 q 1165 965 1165 958 q 1128 992 1165 992 q 1097 988 1110 992 q 1079 985 1085 985 q 1075 989 1075 985 q 1103 1013 1075 1000 q 1160 1025 1131 1025 q 1206 1010 1188 1025 q 1219 971 1224 996 q 1183 913 1213 936 q 1132 875 1153 890 q 1114 867 1121 867 z "},"Ȃ":{"ha":1042,"x_min":19,"x_max":1242,"o":"m 1157 992 q 1222 963 1201 992 q 1242 903 1242 935 q 1236 874 1242 883 q 1224 865 1231 865 q 1210 878 1210 865 q 1196 923 1210 903 q 1147 943 1182 943 q 1088 931 1119 943 q 1026 874 1056 918 q 1017 869 1022 869 q 1010 882 1007 869 q 1068 962 1029 932 q 1157 992 1107 992 m 194 -78 q 74 -44 119 -78 q 19 64 19 -7 q 88 213 19 144 q 232 296 147 272 q 413 325 301 315 q 675 333 524 335 q 739 409 714 379 q 782 461 764 439 q 817 505 800 483 q 857 557 835 526 l 935 661 q 947 668 942 668 q 965 651 965 668 q 963 642 965 650 l 876 526 q 849 490 868 515 q 807 435 829 465 q 763 376 785 404 q 729 332 742 349 q 798 325 764 331 q 865 313 832 319 q 965 643 904 488 q 988 695 975 667 q 1021 765 1000 724 q 1058 794 1025 775 q 1101 814 1090 814 q 1114 801 1114 814 q 1107 786 1114 797 q 911 300 988 588 q 974 264 974 282 q 958 250 974 250 q 949 253 957 250 q 933 258 940 257 q 914 266 922 264 q 903 269 906 268 q 873 120 883 186 q 863 6 863 54 q 876 -42 863 -42 q 910 -25 889 -42 q 936 -7 932 -7 q 949 -22 949 -7 q 922 -53 949 -37 q 876 -69 896 -69 q 824 18 824 -69 q 832 128 824 63 q 858 278 840 193 q 783 285 824 283 q 694 289 742 288 q 647 232 674 263 q 585 164 621 201 q 508 83 539 114 q 456 34 478 53 q 414 0 435 15 q 194 -78 310 -78 m 178 -24 q 385 46 282 -24 q 459 106 417 68 q 550 196 501 144 q 589 237 568 215 q 636 289 610 258 l 597 289 q 388 281 478 289 q 236 257 297 274 q 170 229 201 247 q 115 189 139 211 q 57 67 57 133 q 96 -3 57 24 q 178 -24 129 -24 z "},"Ā":{"ha":1042,"x_min":19,"x_max":1219,"o":"m 194 -78 q 74 -44 119 -78 q 19 64 19 -7 q 88 213 19 144 q 232 296 147 272 q 413 325 301 315 q 675 333 524 335 q 739 409 714 379 q 782 461 764 439 q 817 505 800 483 q 857 557 835 526 l 935 661 q 947 668 942 668 q 965 651 965 668 q 963 642 965 650 l 876 526 q 849 490 868 515 q 807 435 829 465 q 763 376 785 404 q 729 332 742 349 q 798 325 764 331 q 865 313 832 319 q 965 643 904 488 q 988 695 975 667 q 1021 765 1000 724 q 1058 794 1025 775 q 1101 814 1090 814 q 1114 801 1114 814 q 1107 786 1114 797 q 911 300 988 588 q 974 264 974 282 q 958 250 974 250 q 949 253 957 250 q 933 258 940 257 q 914 266 922 264 q 903 269 906 268 q 873 120 883 186 q 863 6 863 54 q 876 -42 863 -42 q 910 -25 889 -42 q 936 -7 932 -7 q 949 -22 949 -7 q 922 -53 949 -37 q 876 -69 896 -69 q 824 18 824 -69 q 832 128 824 63 q 858 278 840 193 q 783 285 824 283 q 694 289 742 288 q 647 232 674 263 q 585 164 621 201 q 508 83 539 114 q 456 34 478 53 q 414 0 435 15 q 194 -78 310 -78 m 178 -24 q 385 46 282 -24 q 459 106 417 68 q 550 196 501 144 q 589 237 568 215 q 636 289 610 258 l 597 289 q 388 281 478 289 q 236 257 297 274 q 170 229 201 247 q 115 189 139 211 q 57 67 57 133 q 96 -3 57 24 q 178 -24 129 -24 m 1097 890 q 1047 890 1074 890 q 1006 894 1019 890 q 997 906 997 897 q 1003 921 997 915 q 1013 926 1007 925 q 1025 926 1019 926 q 1098 926 1063 926 q 1167 922 1133 925 q 1200 917 1181 921 q 1219 910 1219 914 q 1197 894 1219 896 q 1171 893 1190 894 q 1131 891 1151 892 q 1097 890 1110 890 z "},"Ą":{"ha":1042,"x_min":19,"x_max":1114,"o":"m 194 -78 q 74 -44 119 -78 q 19 64 19 -7 q 88 213 19 144 q 232 296 147 272 q 413 325 301 315 q 675 333 524 335 q 739 409 714 379 q 782 461 764 439 q 817 505 800 483 q 857 557 835 526 l 935 661 q 947 668 942 668 q 965 651 965 668 q 963 642 965 650 l 876 526 q 849 490 868 515 q 807 435 829 465 q 763 376 785 404 q 729 332 742 349 q 798 325 764 331 q 865 313 832 319 q 965 643 904 488 q 988 695 975 667 q 1021 765 1000 724 q 1058 794 1025 775 q 1101 814 1090 814 q 1114 801 1114 814 q 1107 786 1114 797 q 911 300 988 588 q 974 264 974 282 q 958 250 974 250 q 949 253 957 250 q 933 258 940 257 q 914 266 922 264 q 903 269 906 268 q 873 120 883 186 q 863 6 863 54 q 876 -42 863 -42 q 910 -25 889 -42 q 936 -7 932 -7 q 949 -22 949 -7 q 922 -53 949 -37 q 876 -69 896 -69 q 824 18 824 -69 q 832 128 824 63 q 858 278 840 193 q 783 285 824 283 q 694 289 742 288 q 647 232 674 263 q 585 164 621 201 q 508 83 539 114 q 456 34 478 53 q 414 0 435 15 q 194 -78 310 -78 m 178 -24 q 385 46 282 -24 q 459 106 417 68 q 550 196 501 144 q 589 237 568 215 q 636 289 610 258 l 597 289 q 388 281 478 289 q 236 257 297 274 q 170 229 201 247 q 115 189 139 211 q 57 67 57 133 q 96 -3 57 24 q 178 -24 129 -24 m 847 -264 q 813 -271 826 -271 q 775 -256 790 -271 q 760 -212 760 -240 q 760 -203 760 -208 q 761 -193 760 -199 q 776 -156 764 -178 q 801 -115 788 -133 q 838 -74 825 -85 q 865 -53 851 -62 q 874 -50 871 -50 q 885 -53 881 -50 q 889 -58 890 -56 q 864 -83 876 -68 q 831 -126 851 -99 q 810 -162 817 -143 q 803 -197 803 -182 q 808 -218 803 -211 q 843 -231 818 -231 q 869 -224 854 -231 q 903 -200 885 -218 q 905 -199 904 -199 q 906 -199 906 -199 q 913 -203 910 -199 q 913 -211 915 -208 q 879 -244 897 -229 q 847 -264 861 -258 z "},"Å":{"ha":1042,"x_min":19,"x_max":1231,"o":"m 194 -78 q 74 -44 119 -78 q 19 64 19 -7 q 88 213 19 144 q 232 296 147 272 q 413 325 301 315 q 675 333 524 335 q 739 409 714 379 q 782 461 764 439 q 817 505 800 483 q 857 557 835 526 l 935 661 q 947 668 942 668 q 965 651 965 668 q 963 642 965 650 l 876 526 q 849 490 868 515 q 807 435 829 465 q 763 376 785 404 q 729 332 742 349 q 798 325 764 331 q 865 313 832 319 q 965 643 904 488 q 988 695 975 667 q 1021 765 1000 724 q 1058 794 1025 775 q 1101 814 1090 814 q 1114 801 1114 814 q 1107 786 1114 797 q 911 300 988 588 q 974 264 974 282 q 958 250 974 250 q 949 253 957 250 q 933 258 940 257 q 914 266 922 264 q 903 269 906 268 q 873 120 883 186 q 863 6 863 54 q 876 -42 863 -42 q 910 -25 889 -42 q 936 -7 932 -7 q 949 -22 949 -7 q 922 -53 949 -37 q 876 -69 896 -69 q 824 18 824 -69 q 832 128 824 63 q 858 278 840 193 q 783 285 824 283 q 694 289 742 288 q 647 232 674 263 q 585 164 621 201 q 508 83 539 114 q 456 34 478 53 q 414 0 435 15 q 194 -78 310 -78 m 178 -24 q 385 46 282 -24 q 459 106 417 68 q 550 196 501 144 q 589 237 568 215 q 636 289 610 258 l 597 289 q 388 281 478 289 q 236 257 297 274 q 170 229 201 247 q 115 189 139 211 q 57 67 57 133 q 96 -3 57 24 q 178 -24 129 -24 m 1111 864 q 1044 915 1044 864 q 1077 983 1044 950 q 1161 1015 1110 1015 q 1208 1005 1185 1015 q 1231 964 1231 994 q 1211 907 1231 929 q 1164 874 1192 885 q 1111 864 1136 864 m 1118 883 q 1160 906 1138 883 q 1183 964 1183 928 q 1157 994 1183 994 q 1115 972 1139 994 q 1092 913 1092 949 q 1118 883 1092 883 z "},"Ǻ":{"ha":1042,"x_min":19,"x_max":1304,"o":"m 194 -78 q 74 -44 119 -78 q 19 64 19 -7 q 88 213 19 144 q 232 296 147 272 q 413 325 301 315 q 675 333 524 335 q 739 409 714 379 q 782 461 764 439 q 817 505 800 483 q 857 557 835 526 l 935 661 q 947 668 942 668 q 965 651 965 668 q 963 642 965 650 l 876 526 q 849 490 868 515 q 807 435 829 465 q 763 376 785 404 q 729 332 742 349 q 798 325 764 331 q 865 313 832 319 q 965 643 904 488 q 988 695 975 667 q 1021 765 1000 724 q 1058 794 1025 775 q 1101 814 1090 814 q 1114 801 1114 814 q 1107 786 1114 797 q 911 300 988 588 q 974 264 974 282 q 958 250 974 250 q 949 253 957 250 q 933 258 940 257 q 914 266 922 264 q 903 269 906 268 q 873 120 883 186 q 863 6 863 54 q 876 -42 863 -42 q 910 -25 889 -42 q 936 -7 932 -7 q 949 -22 949 -7 q 922 -53 949 -37 q 876 -69 896 -69 q 824 18 824 -69 q 832 128 824 63 q 858 278 840 193 q 783 285 824 283 q 694 289 742 288 q 647 232 674 263 q 585 164 621 201 q 508 83 539 114 q 456 34 478 53 q 414 0 435 15 q 194 -78 310 -78 m 178 -24 q 385 46 282 -24 q 459 106 417 68 q 550 196 501 144 q 589 237 568 215 q 636 289 610 258 l 597 289 q 388 281 478 289 q 236 257 297 274 q 170 229 201 247 q 115 189 139 211 q 57 67 57 133 q 96 -3 57 24 q 178 -24 129 -24 m 1111 864 q 1044 915 1044 864 q 1077 983 1044 950 q 1161 1015 1110 1015 q 1208 1005 1185 1015 q 1231 964 1231 994 q 1211 907 1231 929 q 1164 874 1192 885 q 1111 864 1136 864 m 1118 883 q 1160 906 1138 883 q 1183 964 1183 928 q 1157 994 1183 994 q 1115 972 1139 994 q 1092 913 1092 949 q 1118 883 1092 883 m 1110 1035 q 1103 1040 1103 1035 q 1107 1049 1103 1044 q 1183 1106 1136 1074 q 1268 1163 1231 1139 q 1283 1169 1276 1168 q 1293 1171 1290 1171 q 1300 1166 1296 1171 q 1304 1146 1304 1161 q 1299 1131 1304 1138 q 1292 1121 1294 1124 q 1261 1105 1288 1118 q 1202 1075 1235 1092 q 1142 1047 1169 1058 q 1110 1035 1115 1035 z "},"Ã":{"ha":1042,"x_min":19,"x_max":1221,"o":"m 194 -78 q 74 -44 119 -78 q 19 64 19 -7 q 88 213 19 144 q 232 296 147 272 q 413 325 301 315 q 675 333 524 335 q 739 409 714 379 q 782 461 764 439 q 817 505 800 483 q 857 557 835 526 l 935 661 q 947 668 942 668 q 965 651 965 668 q 963 642 965 650 l 876 526 q 849 490 868 515 q 807 435 829 465 q 763 376 785 404 q 729 332 742 349 q 798 325 764 331 q 865 313 832 319 q 965 643 904 488 q 988 695 975 667 q 1021 765 1000 724 q 1058 794 1025 775 q 1101 814 1090 814 q 1114 801 1114 814 q 1107 786 1114 797 q 911 300 988 588 q 974 264 974 282 q 958 250 974 250 q 949 253 957 250 q 933 258 940 257 q 914 266 922 264 q 903 269 906 268 q 873 120 883 186 q 863 6 863 54 q 876 -42 863 -42 q 910 -25 889 -42 q 936 -7 932 -7 q 949 -22 949 -7 q 922 -53 949 -37 q 876 -69 896 -69 q 824 18 824 -69 q 832 128 824 63 q 858 278 840 193 q 783 285 824 283 q 694 289 742 288 q 647 232 674 263 q 585 164 621 201 q 508 83 539 114 q 456 34 478 53 q 414 0 435 15 q 194 -78 310 -78 m 178 -24 q 385 46 282 -24 q 459 106 417 68 q 550 196 501 144 q 589 237 568 215 q 636 289 610 258 l 597 289 q 388 281 478 289 q 236 257 297 274 q 170 229 201 247 q 115 189 139 211 q 57 67 57 133 q 96 -3 57 24 q 178 -24 129 -24 m 990 874 q 982 881 982 874 q 1002 928 982 908 q 1053 949 1022 949 q 1112 935 1086 949 q 1164 921 1138 921 q 1192 929 1182 921 q 1211 956 1201 938 q 1221 949 1221 956 q 1200 898 1221 918 q 1153 878 1179 878 q 1090 893 1115 878 q 1038 908 1065 908 q 990 874 1006 908 z "},"B":{"ha":875,"x_min":1,"x_max":892,"o":"m 286 -79 q 110 -43 194 -79 q 1 83 1 3 q 90 236 1 176 q 174 276 131 263 q 264 292 217 289 q 323 421 288 347 q 393 558 358 494 q 422 610 404 578 q 465 681 440 643 q 536 711 486 711 q 556 700 556 711 q 553 692 556 697 q 311 292 422 515 q 776 151 624 286 q 821 261 821 211 q 703 399 821 349 q 508 436 611 436 l 476 436 q 458 449 458 436 q 499 481 458 474 q 527 485 506 482 q 565 490 549 488 q 811 597 733 524 q 843 650 843 626 q 714 725 843 700 q 533 742 626 742 q 67 651 285 742 q 56 649 58 649 q 44 660 44 649 q 63 696 44 678 q 99 724 82 717 q 467 782 243 782 q 714 757 600 782 q 892 638 892 719 q 783 517 892 571 q 615 461 704 476 q 785 396 714 439 q 882 256 882 338 q 814 113 882 189 q 854 42 854 64 q 839 22 854 22 q 828 29 832 22 q 808 63 818 49 q 789 86 799 76 q 553 -42 700 3 q 286 -79 426 -79 m 286 -49 q 751 121 594 -49 q 556 224 674 186 q 335 258 446 258 q 315 258 325 258 q 294 257 304 258 q 211 19 211 81 q 213 8 211 13 q 214 -3 214 4 q 199 -21 214 -21 q 176 17 176 -21 q 247 251 176 79 q 63 81 63 221 q 147 -19 63 18 q 286 -49 214 -49 z "},"C":{"ha":789,"x_min":68,"x_max":972,"o":"m 306 -58 q 142 -17 204 -58 q 68 128 68 32 q 103 279 68 204 q 194 422 138 354 q 317 547 250 490 q 446 642 383 603 q 815 757 635 757 q 972 649 972 757 q 868 475 972 554 q 672 399 768 399 q 571 476 571 399 q 596 532 571 532 q 606 519 606 532 q 606 515 606 518 q 604 507 606 511 q 603 500 603 503 q 603 494 603 497 q 674 440 603 440 q 840 511 747 440 q 933 651 933 582 q 818 719 933 719 q 795 719 807 719 q 772 717 783 718 q 500 617 651 704 q 376 533 439 582 q 260 424 313 483 q 174 296 207 364 q 142 154 142 228 q 155 81 142 115 q 194 25 168 46 q 318 -11 239 -11 q 807 189 569 -11 q 818 194 813 194 q 827 194 826 194 q 828 185 828 194 q 822 172 828 178 q 708 84 768 122 q 582 14 649 46 q 306 -58 432 -58 z "},"Ć":{"ha":789,"x_min":68,"x_max":979,"o":"m 306 -58 q 142 -17 204 -58 q 68 128 68 32 q 103 279 68 204 q 194 422 138 354 q 317 547 250 490 q 446 642 383 603 q 815 757 635 757 q 972 649 972 757 q 868 475 972 554 q 672 399 768 399 q 571 476 571 399 q 596 532 571 532 q 606 519 606 532 q 606 515 606 518 q 604 507 606 511 q 603 500 603 503 q 603 494 603 497 q 674 440 603 440 q 840 511 747 440 q 933 651 933 582 q 818 719 933 719 q 795 719 807 719 q 772 717 783 718 q 500 617 651 704 q 376 533 439 582 q 260 424 313 483 q 174 296 207 364 q 142 154 142 228 q 155 81 142 115 q 194 25 168 46 q 318 -11 239 -11 q 807 189 569 -11 q 818 194 813 194 q 827 194 826 194 q 828 185 828 194 q 822 172 828 178 q 708 84 768 122 q 582 14 649 46 q 306 -58 432 -58 m 785 797 q 778 803 778 797 q 782 811 778 807 q 858 869 811 836 q 943 925 906 901 q 958 932 951 931 q 968 933 965 933 q 975 928 971 933 q 979 908 979 924 q 974 893 979 900 q 967 883 969 886 q 936 867 963 881 q 877 838 910 854 q 817 809 844 821 q 785 797 790 797 z "},"Č":{"ha":789,"x_min":68,"x_max":1018,"o":"m 1010 936 q 1018 929 1018 936 q 1008 915 1018 922 q 933 865 968 888 q 857 814 899 842 q 825 799 835 799 q 807 813 814 799 q 781 863 793 840 q 760 907 769 885 q 754 928 754 919 q 765 939 754 939 q 778 933 771 939 q 790 921 785 928 q 823 883 806 903 q 849 856 840 864 q 886 876 861 863 q 938 903 911 889 q 985 926 964 917 q 1010 936 1006 936 m 306 -58 q 142 -17 204 -58 q 68 128 68 32 q 103 279 68 204 q 194 422 138 354 q 317 547 250 490 q 446 642 383 603 q 815 757 635 757 q 972 649 972 757 q 868 475 972 554 q 672 399 768 399 q 571 476 571 399 q 596 532 571 532 q 606 519 606 532 q 606 515 606 518 q 604 507 606 511 q 603 500 603 503 q 603 494 603 497 q 674 440 603 440 q 840 511 747 440 q 933 651 933 582 q 818 719 933 719 q 795 719 807 719 q 772 717 783 718 q 500 617 651 704 q 376 533 439 582 q 260 424 313 483 q 174 296 207 364 q 142 154 142 228 q 155 81 142 115 q 194 25 168 46 q 318 -11 239 -11 q 807 189 569 -11 q 818 194 813 194 q 827 194 826 194 q 828 185 828 194 q 822 172 828 178 q 708 84 768 122 q 582 14 649 46 q 306 -58 432 -58 z "},"Ç":{"ha":789,"x_min":68,"x_max":972,"o":"m 306 -58 q 142 -17 204 -58 q 68 128 68 32 q 103 279 68 204 q 194 422 138 354 q 317 547 250 490 q 446 642 383 603 q 815 757 635 757 q 972 649 972 757 q 868 475 972 554 q 672 399 768 399 q 571 476 571 399 q 596 532 571 532 q 606 519 606 532 q 606 515 606 518 q 604 507 606 511 q 603 500 603 503 q 603 494 603 497 q 674 440 603 440 q 840 511 747 440 q 933 651 933 582 q 818 719 933 719 q 795 719 807 719 q 772 717 783 718 q 500 617 651 704 q 376 533 439 582 q 260 424 313 483 q 174 296 207 364 q 142 154 142 228 q 155 81 142 115 q 194 25 168 46 q 318 -11 239 -11 q 807 189 569 -11 q 818 194 813 194 q 827 194 826 194 q 828 185 828 194 q 822 172 828 178 q 708 84 768 122 q 582 14 649 46 q 306 -58 432 -58 m 201 -265 q 194 -257 194 -265 q 203 -250 194 -250 q 278 -231 253 -250 q 304 -186 304 -212 q 285 -139 304 -162 q 272 -103 272 -122 q 294 -52 272 -75 q 354 -29 315 -29 q 365 -35 364 -29 q 331 -53 343 -39 q 315 -85 315 -68 q 326 -112 315 -99 q 346 -142 336 -126 q 356 -176 356 -157 q 333 -224 356 -204 q 274 -255 310 -244 q 201 -265 239 -265 z "},"Ĉ":{"ha":789,"x_min":68,"x_max":972,"o":"m 306 -58 q 142 -17 204 -58 q 68 128 68 32 q 103 279 68 204 q 194 422 138 354 q 317 547 250 490 q 446 642 383 603 q 815 757 635 757 q 972 649 972 757 q 868 475 972 554 q 672 399 768 399 q 571 476 571 399 q 596 532 571 532 q 606 519 606 532 q 606 515 606 518 q 604 507 606 511 q 603 500 603 503 q 603 494 603 497 q 674 440 603 440 q 840 511 747 440 q 933 651 933 582 q 818 719 933 719 q 795 719 807 719 q 772 717 783 718 q 500 617 651 704 q 376 533 439 582 q 260 424 313 483 q 174 296 207 364 q 142 154 142 228 q 155 81 142 115 q 194 25 168 46 q 318 -11 239 -11 q 807 189 569 -11 q 818 194 813 194 q 827 194 826 194 q 828 185 828 194 q 822 172 828 178 q 708 84 768 122 q 582 14 649 46 q 306 -58 432 -58 m 704 801 q 696 808 696 801 q 706 822 696 815 q 781 874 746 850 q 857 924 815 897 q 889 939 881 939 q 907 925 900 939 q 933 876 922 899 q 954 831 944 853 q 960 810 960 818 q 949 799 960 799 q 937 804 943 799 q 924 817 931 810 q 891 854 908 835 q 865 882 874 874 q 828 862 853 875 q 776 835 803 849 q 729 811 750 821 q 704 801 708 801 z "},"Ċ":{"ha":789,"x_min":68,"x_max":972,"o":"m 306 -58 q 142 -17 204 -58 q 68 128 68 32 q 103 279 68 204 q 194 422 138 354 q 317 547 250 490 q 446 642 383 603 q 815 757 635 757 q 972 649 972 757 q 868 475 972 554 q 672 399 768 399 q 571 476 571 399 q 596 532 571 532 q 606 519 606 532 q 606 515 606 518 q 604 507 606 511 q 603 500 603 503 q 603 494 603 497 q 674 440 603 440 q 840 511 747 440 q 933 651 933 582 q 818 719 933 719 q 795 719 807 719 q 772 717 783 718 q 500 617 651 704 q 376 533 439 582 q 260 424 313 483 q 174 296 207 364 q 142 154 142 228 q 155 81 142 115 q 194 25 168 46 q 318 -11 239 -11 q 807 189 569 -11 q 818 194 813 194 q 827 194 826 194 q 828 185 828 194 q 822 172 828 178 q 708 84 768 122 q 582 14 649 46 q 306 -58 432 -58 m 847 799 q 811 828 811 799 q 824 858 811 843 q 854 874 836 874 q 878 864 869 874 q 888 840 888 854 q 876 812 888 825 q 847 799 864 799 z "},"D":{"ha":1092,"x_min":0,"x_max":1092,"o":"m 339 -81 q 285 -79 313 -81 q 229 -74 257 -78 q 116 -44 168 -64 q 32 8 64 -24 q 0 83 0 40 q 38 193 0 149 q 137 263 76 238 q 263 292 197 288 q 308 393 282 338 q 364 505 335 449 q 419 608 393 561 q 464 681 446 654 q 535 711 485 711 q 554 700 554 711 q 539 675 554 693 q 422 499 479 594 q 310 292 365 403 q 819 104 685 283 q 930 201 881 147 q 1008 318 979 256 q 1038 446 1038 381 q 995 583 1038 525 q 881 677 953 640 q 723 731 810 714 q 549 749 636 749 q 132 646 314 749 q 114 640 122 640 q 96 661 96 640 q 139 715 96 693 q 253 755 183 739 q 398 778 324 771 q 528 786 472 786 q 733 765 632 786 q 914 702 833 744 q 1043 594 994 660 q 1092 439 1092 529 q 1058 294 1092 364 q 968 165 1024 224 q 846 61 913 106 q 851 42 851 50 q 838 22 851 22 q 818 44 832 22 q 339 -81 610 -81 m 319 -49 q 789 83 582 -49 q 701 158 756 125 q 581 213 646 190 q 450 247 515 235 q 329 258 385 258 q 311 258 319 258 q 293 257 303 258 q 210 19 210 81 q 212 8 210 14 q 214 -3 214 3 q 197 -21 214 -21 q 175 17 175 -21 q 246 251 175 79 q 61 81 61 221 q 117 -4 61 26 q 246 -46 172 -35 q 283 -48 265 -47 q 319 -49 301 -49 z "},"Ǆ":{"ha":1610,"x_min":0,"x_max":1686,"o":"m 1633 936 q 1642 929 1642 936 q 1632 915 1642 922 q 1557 865 1592 888 q 1481 814 1522 842 q 1449 799 1458 799 q 1431 813 1438 799 q 1405 863 1417 840 q 1383 907 1393 885 q 1378 928 1378 919 q 1389 939 1378 939 q 1401 933 1394 939 q 1414 921 1408 928 q 1447 883 1429 903 q 1472 856 1464 864 q 1510 876 1485 863 q 1561 903 1535 889 q 1608 926 1588 917 q 1633 936 1629 936 m 339 -81 q 285 -79 313 -81 q 229 -74 257 -78 q 116 -44 168 -64 q 32 8 64 -24 q 0 83 0 40 q 38 193 0 149 q 137 263 76 238 q 263 292 197 288 q 308 393 282 338 q 364 505 335 449 q 419 608 393 561 q 464 681 446 654 q 535 711 485 711 q 554 700 554 711 q 539 675 554 693 q 422 499 479 594 q 310 292 365 403 q 819 104 685 283 q 930 201 881 147 q 1008 318 979 256 q 1038 446 1038 381 q 995 583 1038 525 q 881 677 953 640 q 723 731 810 714 q 549 749 636 749 q 132 646 314 749 q 114 640 122 640 q 96 661 96 640 q 139 715 96 693 q 253 755 183 739 q 398 778 324 771 q 528 786 472 786 q 733 765 632 786 q 914 702 833 744 q 1043 594 994 660 q 1092 439 1092 529 q 1058 294 1092 364 q 968 165 1024 224 q 846 61 913 106 q 851 42 851 50 q 838 22 851 22 q 818 44 832 22 q 339 -81 610 -81 m 319 -49 q 789 83 582 -49 q 701 158 756 125 q 581 213 646 190 q 450 247 515 235 q 329 258 385 258 q 311 258 319 258 q 293 257 303 258 q 210 19 210 81 q 212 8 210 14 q 214 -3 214 3 q 197 -21 214 -21 q 175 17 175 -21 q 246 251 175 79 q 61 81 61 221 q 117 -4 61 26 q 246 -46 172 -35 q 283 -48 265 -47 q 319 -49 301 -49 m 1319 -14 q 1246 -3 1289 -14 q 1157 20 1203 7 q 1069 44 1111 33 q 997 54 1028 54 q 915 36 961 54 q 822 7 869 18 q 808 10 811 7 q 800 29 800 13 q 821 50 800 46 q 925 94 869 60 q 1038 175 981 128 q 1147 273 1094 222 q 1238 365 1199 324 q 1403 538 1321 454 q 1551 682 1486 622 q 1474 691 1522 686 q 1369 699 1425 696 q 1257 700 1313 701 q 1161 676 1204 699 q 1091 619 1118 654 q 1060 542 1064 583 q 1073 496 1054 511 q 1108 481 1092 481 q 1168 503 1149 481 q 1214 556 1188 525 q 1219 558 1215 558 q 1228 553 1225 558 q 1229 543 1232 547 q 1176 482 1208 508 q 1107 456 1143 456 q 1048 478 1072 456 q 1024 540 1024 501 q 1024 549 1024 544 q 1025 558 1024 553 q 1074 667 1035 621 q 1169 739 1113 714 q 1283 764 1225 764 q 1351 758 1311 764 q 1433 744 1392 751 q 1507 730 1474 736 q 1554 724 1540 724 q 1600 734 1582 724 q 1640 763 1618 744 q 1665 775 1654 775 q 1682 763 1678 775 q 1683 739 1686 750 q 1674 718 1683 724 q 1536 623 1604 685 q 1400 486 1468 561 q 1263 336 1332 411 q 1144 220 1208 278 q 1025 121 1079 163 q 1090 107 1053 119 q 1167 79 1126 94 q 1244 53 1207 64 q 1308 42 1281 42 q 1440 84 1383 42 q 1553 224 1497 126 q 1571 235 1560 235 q 1578 228 1578 235 q 1572 214 1578 221 l 1563 200 q 1492 97 1528 146 q 1415 17 1457 47 q 1319 -14 1374 -14 z "},"Ď":{"ha":1092,"x_min":0,"x_max":1092,"o":"m 1024 936 q 1032 929 1032 936 q 1022 915 1032 922 q 947 865 982 888 q 871 814 913 842 q 839 799 849 799 q 821 813 828 799 q 795 863 807 840 q 774 907 783 885 q 768 928 768 919 q 779 939 768 939 q 792 933 785 939 q 804 921 799 928 q 837 883 819 903 q 863 856 854 864 q 900 876 875 863 q 951 903 925 889 q 999 926 978 917 q 1024 936 1019 936 m 339 -81 q 285 -79 313 -81 q 229 -74 257 -78 q 116 -44 168 -64 q 32 8 64 -24 q 0 83 0 40 q 38 193 0 149 q 137 263 76 238 q 263 292 197 288 q 308 393 282 338 q 364 505 335 449 q 419 608 393 561 q 464 681 446 654 q 535 711 485 711 q 554 700 554 711 q 539 675 554 693 q 422 499 479 594 q 310 292 365 403 q 819 104 685 283 q 930 201 881 147 q 1008 318 979 256 q 1038 446 1038 381 q 995 583 1038 525 q 881 677 953 640 q 723 731 810 714 q 549 749 636 749 q 132 646 314 749 q 114 640 122 640 q 96 661 96 640 q 139 715 96 693 q 253 755 183 739 q 398 778 324 771 q 528 786 472 786 q 733 765 632 786 q 914 702 833 744 q 1043 594 994 660 q 1092 439 1092 529 q 1058 294 1092 364 q 968 165 1024 224 q 846 61 913 106 q 851 42 851 50 q 838 22 851 22 q 818 44 832 22 q 339 -81 610 -81 m 319 -49 q 789 83 582 -49 q 701 158 756 125 q 581 213 646 190 q 450 247 515 235 q 329 258 385 258 q 311 258 319 258 q 293 257 303 258 q 210 19 210 81 q 212 8 210 14 q 214 -3 214 3 q 197 -21 214 -21 q 175 17 175 -21 q 246 251 175 79 q 61 81 61 221 q 117 -4 61 26 q 246 -46 172 -35 q 283 -48 265 -47 q 319 -49 301 -49 z "},"Đ":{"ha":1092,"x_min":0,"x_max":1092,"o":"m 339 -81 q 285 -79 313 -81 q 229 -74 257 -78 q 116 -44 168 -64 q 32 8 64 -24 q 0 83 0 40 q 38 193 0 149 q 137 263 76 238 q 263 292 197 288 q 308 393 282 338 q 364 505 335 449 q 419 608 393 561 q 464 681 446 654 q 535 711 485 711 q 554 700 554 711 q 539 675 554 693 q 422 499 479 594 q 310 292 365 403 q 819 104 685 283 q 930 201 881 147 q 1008 318 979 256 q 1038 446 1038 381 q 995 583 1038 525 q 881 677 953 640 q 723 731 810 714 q 549 749 636 749 q 132 646 314 749 q 114 640 122 640 q 96 661 96 640 q 139 715 96 693 q 253 755 183 739 q 398 778 324 771 q 528 786 472 786 q 733 765 632 786 q 914 702 833 744 q 1043 594 994 660 q 1092 439 1092 529 q 1058 294 1092 364 q 968 165 1024 224 q 846 61 913 106 q 851 42 851 50 q 838 22 851 22 q 818 44 832 22 q 339 -81 610 -81 m 319 -49 q 789 83 582 -49 q 701 158 756 125 q 581 213 646 190 q 450 247 515 235 q 329 258 385 258 q 311 258 319 258 q 293 257 303 258 q 210 19 210 81 q 212 8 210 14 q 214 -3 214 3 q 197 -21 214 -21 q 175 17 175 -21 q 246 251 175 79 q 61 81 61 221 q 117 -4 61 26 q 246 -46 172 -35 q 283 -48 265 -47 q 319 -49 301 -49 m 382 365 l 329 365 q 269 366 299 365 q 228 369 239 367 q 217 379 217 371 q 224 392 217 385 q 242 400 231 397 q 264 404 253 403 q 304 406 282 406 q 349 407 326 407 q 413 406 381 407 q 468 400 446 404 q 494 394 488 397 q 501 386 501 390 q 495 376 501 381 q 474 369 489 371 q 433 367 461 368 q 382 365 406 365 z "},"ǅ":{"ha":1369,"x_min":0,"x_max":1474,"o":"m 1254 494 q 1278 479 1261 494 q 1312 446 1294 464 q 1335 421 1329 428 q 1363 438 1343 426 q 1404 461 1382 449 q 1444 483 1426 474 q 1465 492 1461 492 q 1469 485 1474 492 q 1464 476 1468 481 q 1413 435 1433 454 q 1349 386 1392 417 q 1332 376 1339 379 q 1322 374 1325 374 q 1315 376 1318 374 q 1304 386 1311 378 q 1276 429 1288 410 q 1246 479 1265 449 q 1244 488 1244 482 q 1254 494 1247 494 m 339 -81 q 285 -79 313 -81 q 229 -74 257 -78 q 116 -44 168 -64 q 32 8 64 -24 q 0 83 0 40 q 38 193 0 149 q 137 263 76 238 q 263 292 197 288 q 308 393 282 338 q 364 505 335 449 q 419 608 393 561 q 464 681 446 654 q 535 711 485 711 q 554 700 554 711 q 539 675 554 693 q 422 499 479 594 q 310 292 365 403 q 819 104 685 283 q 930 201 881 147 q 1008 318 979 256 q 1038 446 1038 381 q 995 583 1038 525 q 881 677 953 640 q 723 731 810 714 q 549 749 636 749 q 132 646 314 749 q 114 640 122 640 q 96 661 96 640 q 139 715 96 693 q 253 755 183 739 q 398 778 324 771 q 528 786 472 786 q 733 765 632 786 q 914 702 833 744 q 1043 594 994 660 q 1092 439 1092 529 q 1058 294 1092 364 q 968 165 1024 224 q 846 61 913 106 q 851 42 851 50 q 838 22 851 22 q 818 44 832 22 q 339 -81 610 -81 m 319 -49 q 789 83 582 -49 q 701 158 756 125 q 581 213 646 190 q 450 247 515 235 q 329 258 385 258 q 311 258 319 258 q 293 257 303 258 q 210 19 210 81 q 212 8 210 14 q 214 -3 214 3 q 197 -21 214 -21 q 175 17 175 -21 q 246 251 175 79 q 61 81 61 221 q 117 -4 61 26 q 246 -46 172 -35 q 283 -48 265 -47 q 319 -49 301 -49 m 1260 -21 q 1189 -10 1224 -21 q 1118 1 1154 1 q 1076 -2 1096 1 q 1033 -10 1056 -6 q 1024 -7 1028 -11 q 1017 3 1017 -4 q 1026 13 1017 11 q 1067 25 1049 15 q 1107 42 1086 35 q 1187 104 1151 68 q 1257 180 1222 140 q 1332 253 1292 219 q 1276 263 1311 256 q 1213 271 1240 271 q 1151 244 1183 271 q 1086 178 1118 217 q 1026 100 1054 139 q 1017 93 1022 93 q 1010 103 1010 93 q 1021 129 1010 117 q 1062 184 1039 153 q 1112 246 1085 215 q 1169 297 1139 276 q 1229 317 1199 317 q 1274 308 1251 317 q 1317 292 1297 300 q 1347 283 1338 283 q 1390 300 1372 283 q 1403 306 1396 306 q 1415 293 1413 306 q 1411 278 1418 281 q 1315 213 1356 253 q 1237 128 1274 172 q 1153 47 1200 85 q 1215 33 1185 44 q 1275 21 1244 21 q 1341 43 1310 21 q 1399 96 1372 65 q 1440 151 1425 126 q 1451 160 1446 160 q 1459 152 1457 160 q 1458 140 1461 144 q 1407 74 1439 113 q 1337 8 1375 36 q 1260 -21 1299 -21 z "},"E":{"ha":810,"x_min":42,"x_max":949,"o":"m 282 -58 q 118 -17 181 -58 q 46 128 46 31 q 114 339 46 225 l 50 326 q 42 336 42 326 q 71 381 42 371 q 92 386 75 383 q 150 394 108 389 q 280 538 208 475 q 432 647 351 600 q 793 757 617 757 q 949 649 949 757 q 904 533 949 592 q 860 485 882 504 q 811 449 839 465 q 793 443 801 443 q 769 465 769 443 q 781 485 769 478 q 910 651 910 585 q 794 719 910 719 q 476 617 653 719 q 338 517 399 571 q 225 401 276 463 q 339 412 285 408 q 444 415 393 415 q 654 376 654 415 q 635 358 654 358 q 608 360 625 358 q 567 365 592 363 q 488 374 515 374 q 186 349 360 374 q 131 249 151 297 q 110 156 110 200 q 124 78 110 114 q 171 19 138 43 q 313 -19 225 -19 q 782 193 528 -19 q 792 197 789 197 q 803 196 801 197 q 806 185 806 194 q 800 172 806 178 q 688 85 749 125 q 558 14 626 46 q 413 -40 482 -21 q 282 -58 344 -58 z "},"É":{"ha":810,"x_min":42,"x_max":949,"o":"m 282 -58 q 118 -17 181 -58 q 46 128 46 31 q 114 339 46 225 l 50 326 q 42 336 42 326 q 71 381 42 371 q 92 386 75 383 q 150 394 108 389 q 280 538 208 475 q 432 647 351 600 q 793 757 617 757 q 949 649 949 757 q 904 533 949 592 q 860 485 882 504 q 811 449 839 465 q 793 443 801 443 q 769 465 769 443 q 781 485 769 478 q 910 651 910 585 q 794 719 910 719 q 476 617 653 719 q 338 517 399 571 q 225 401 276 463 q 339 412 285 408 q 444 415 393 415 q 654 376 654 415 q 635 358 654 358 q 608 360 625 358 q 567 365 592 363 q 488 374 515 374 q 186 349 360 374 q 131 249 151 297 q 110 156 110 200 q 124 78 110 114 q 171 19 138 43 q 313 -19 225 -19 q 782 193 528 -19 q 792 197 789 197 q 803 196 801 197 q 806 185 806 194 q 800 172 806 178 q 688 85 749 125 q 558 14 626 46 q 413 -40 482 -21 q 282 -58 344 -58 m 725 797 q 718 803 718 797 q 722 811 718 807 q 799 869 751 836 q 883 925 846 901 q 899 932 892 931 q 908 933 906 933 q 915 928 911 933 q 919 908 919 924 q 915 893 919 900 q 907 883 910 886 q 876 867 903 881 q 817 838 850 854 q 758 809 785 821 q 725 797 731 797 z "},"Ĕ":{"ha":810,"x_min":42,"x_max":949,"o":"m 282 -58 q 118 -17 181 -58 q 46 128 46 31 q 114 339 46 225 l 50 326 q 42 336 42 326 q 71 381 42 371 q 92 386 75 383 q 150 394 108 389 q 280 538 208 475 q 432 647 351 600 q 793 757 617 757 q 949 649 949 757 q 904 533 949 592 q 860 485 882 504 q 811 449 839 465 q 793 443 801 443 q 769 465 769 443 q 781 485 769 478 q 910 651 910 585 q 794 719 910 719 q 476 617 653 719 q 338 517 399 571 q 225 401 276 463 q 339 412 285 408 q 444 415 393 415 q 654 376 654 415 q 635 358 654 358 q 608 360 625 358 q 567 365 592 363 q 488 374 515 374 q 186 349 360 374 q 131 249 151 297 q 110 156 110 200 q 124 78 110 114 q 171 19 138 43 q 313 -19 225 -19 q 782 193 528 -19 q 792 197 789 197 q 803 196 801 197 q 806 185 806 194 q 800 172 806 178 q 688 85 749 125 q 558 14 626 46 q 413 -40 482 -21 q 282 -58 344 -58 m 775 796 q 711 825 732 796 q 690 885 690 854 q 697 913 690 904 q 708 922 703 922 q 722 910 722 922 q 736 865 722 885 q 785 844 750 844 q 844 858 813 844 q 906 914 876 871 q 915 918 910 918 q 922 906 925 918 q 864 826 903 856 q 775 796 825 796 z "},"Ě":{"ha":810,"x_min":42,"x_max":958,"o":"m 950 936 q 958 929 958 936 q 949 915 958 922 q 874 865 908 888 q 797 814 839 842 q 765 799 775 799 q 747 813 754 799 q 722 863 733 840 q 700 907 710 885 q 694 928 694 919 q 706 939 694 939 q 718 933 711 939 q 731 921 725 928 q 763 883 746 903 q 789 856 781 864 q 826 876 801 863 q 878 903 851 889 q 925 926 904 917 q 950 936 946 936 m 282 -58 q 118 -17 181 -58 q 46 128 46 31 q 114 339 46 225 l 50 326 q 42 336 42 326 q 71 381 42 371 q 92 386 75 383 q 150 394 108 389 q 280 538 208 475 q 432 647 351 600 q 793 757 617 757 q 949 649 949 757 q 904 533 949 592 q 860 485 882 504 q 811 449 839 465 q 793 443 801 443 q 769 465 769 443 q 781 485 769 478 q 910 651 910 585 q 794 719 910 719 q 476 617 653 719 q 338 517 399 571 q 225 401 276 463 q 339 412 285 408 q 444 415 393 415 q 654 376 654 415 q 635 358 654 358 q 608 360 625 358 q 567 365 592 363 q 488 374 515 374 q 186 349 360 374 q 131 249 151 297 q 110 156 110 200 q 124 78 110 114 q 171 19 138 43 q 313 -19 225 -19 q 782 193 528 -19 q 792 197 789 197 q 803 196 801 197 q 806 185 806 194 q 800 172 806 178 q 688 85 749 125 q 558 14 626 46 q 413 -40 482 -21 q 282 -58 344 -58 z "},"Ê":{"ha":810,"x_min":42,"x_max":949,"o":"m 282 -58 q 118 -17 181 -58 q 46 128 46 31 q 114 339 46 225 l 50 326 q 42 336 42 326 q 71 381 42 371 q 92 386 75 383 q 150 394 108 389 q 280 538 208 475 q 432 647 351 600 q 793 757 617 757 q 949 649 949 757 q 904 533 949 592 q 860 485 882 504 q 811 449 839 465 q 793 443 801 443 q 769 465 769 443 q 781 485 769 478 q 910 651 910 585 q 794 719 910 719 q 476 617 653 719 q 338 517 399 571 q 225 401 276 463 q 339 412 285 408 q 444 415 393 415 q 654 376 654 415 q 635 358 654 358 q 608 360 625 358 q 567 365 592 363 q 488 374 515 374 q 186 349 360 374 q 131 249 151 297 q 110 156 110 200 q 124 78 110 114 q 171 19 138 43 q 313 -19 225 -19 q 782 193 528 -19 q 792 197 789 197 q 803 196 801 197 q 806 185 806 194 q 800 172 806 178 q 688 85 749 125 q 558 14 626 46 q 413 -40 482 -21 q 282 -58 344 -58 m 644 801 q 636 808 636 801 q 646 822 636 815 q 721 874 686 850 q 797 924 756 897 q 829 939 821 939 q 847 925 840 939 q 874 876 863 899 q 894 831 885 853 q 900 810 900 818 q 889 799 900 799 q 877 804 883 799 q 864 817 871 810 q 831 854 849 835 q 806 882 814 874 q 768 862 793 875 q 717 835 743 849 q 669 811 690 821 q 644 801 649 801 z "},"Ế":{"ha":810,"x_min":42,"x_max":1097,"o":"m 282 -58 q 118 -17 181 -58 q 46 128 46 31 q 114 339 46 225 l 50 326 q 42 336 42 326 q 71 381 42 371 q 92 386 75 383 q 150 394 108 389 q 280 538 208 475 q 432 647 351 600 q 793 757 617 757 q 949 649 949 757 q 904 533 949 592 q 860 485 882 504 q 811 449 839 465 q 793 443 801 443 q 769 465 769 443 q 781 485 769 478 q 910 651 910 585 q 794 719 910 719 q 476 617 653 719 q 338 517 399 571 q 225 401 276 463 q 339 412 285 408 q 444 415 393 415 q 654 376 654 415 q 635 358 654 358 q 608 360 625 358 q 567 365 592 363 q 488 374 515 374 q 186 349 360 374 q 131 249 151 297 q 110 156 110 200 q 124 78 110 114 q 171 19 138 43 q 313 -19 225 -19 q 782 193 528 -19 q 792 197 789 197 q 803 196 801 197 q 806 185 806 194 q 800 172 806 178 q 688 85 749 125 q 558 14 626 46 q 413 -40 482 -21 q 282 -58 344 -58 m 644 801 q 636 808 636 801 q 646 822 636 815 q 721 874 686 850 q 797 924 756 897 q 829 939 821 939 q 847 925 840 939 q 874 876 863 899 q 894 831 885 853 q 900 810 900 818 q 889 799 900 799 q 877 804 883 799 q 864 817 871 810 q 831 854 849 835 q 806 882 814 874 q 768 862 793 875 q 717 835 743 849 q 669 811 690 821 q 644 801 649 801 m 903 917 q 896 922 896 917 q 900 931 896 926 q 976 988 929 956 q 1061 1044 1024 1021 q 1076 1051 1069 1050 q 1086 1053 1083 1053 q 1093 1048 1089 1053 q 1097 1028 1097 1043 q 1092 1013 1097 1019 q 1085 1003 1088 1006 q 1054 987 1081 1000 q 995 957 1028 974 q 935 928 963 940 q 903 917 908 917 z "},"Ệ":{"ha":810,"x_min":42,"x_max":949,"o":"m 282 -58 q 118 -17 181 -58 q 46 128 46 31 q 114 339 46 225 l 50 326 q 42 336 42 326 q 71 381 42 371 q 92 386 75 383 q 150 394 108 389 q 280 538 208 475 q 432 647 351 600 q 793 757 617 757 q 949 649 949 757 q 904 533 949 592 q 860 485 882 504 q 811 449 839 465 q 793 443 801 443 q 769 465 769 443 q 781 485 769 478 q 910 651 910 585 q 794 719 910 719 q 476 617 653 719 q 338 517 399 571 q 225 401 276 463 q 339 412 285 408 q 444 415 393 415 q 654 376 654 415 q 635 358 654 358 q 608 360 625 358 q 567 365 592 363 q 488 374 515 374 q 186 349 360 374 q 131 249 151 297 q 110 156 110 200 q 124 78 110 114 q 171 19 138 43 q 313 -19 225 -19 q 782 193 528 -19 q 792 197 789 197 q 803 196 801 197 q 806 185 806 194 q 800 172 806 178 q 688 85 749 125 q 558 14 626 46 q 413 -40 482 -21 q 282 -58 344 -58 m 254 -190 q 218 -161 218 -190 q 231 -131 218 -146 q 261 -115 243 -115 q 285 -125 276 -115 q 294 -149 294 -135 q 283 -177 294 -164 q 254 -190 271 -190 m 644 801 q 636 808 636 801 q 646 822 636 815 q 721 874 686 850 q 797 924 756 897 q 829 939 821 939 q 847 925 840 939 q 874 876 863 899 q 894 831 885 853 q 900 810 900 818 q 889 799 900 799 q 877 804 883 799 q 864 817 871 810 q 831 854 849 835 q 806 882 814 874 q 768 862 793 875 q 717 835 743 849 q 669 811 690 821 q 644 801 649 801 z "},"Ề":{"ha":810,"x_min":42,"x_max":1008,"o":"m 1001 917 q 969 928 996 917 q 909 957 942 940 q 850 987 876 974 q 819 1003 824 1000 q 812 1013 817 1006 q 807 1028 807 1019 q 811 1048 807 1043 q 818 1053 815 1053 q 828 1051 821 1053 q 843 1044 835 1050 q 928 988 881 1021 q 1004 931 975 956 q 1008 922 1008 926 q 1001 917 1008 917 m 282 -58 q 118 -17 181 -58 q 46 128 46 31 q 114 339 46 225 l 50 326 q 42 336 42 326 q 71 381 42 371 q 92 386 75 383 q 150 394 108 389 q 280 538 208 475 q 432 647 351 600 q 793 757 617 757 q 949 649 949 757 q 904 533 949 592 q 860 485 882 504 q 811 449 839 465 q 793 443 801 443 q 769 465 769 443 q 781 485 769 478 q 910 651 910 585 q 794 719 910 719 q 476 617 653 719 q 338 517 399 571 q 225 401 276 463 q 339 412 285 408 q 444 415 393 415 q 654 376 654 415 q 635 358 654 358 q 608 360 625 358 q 567 365 592 363 q 488 374 515 374 q 186 349 360 374 q 131 249 151 297 q 110 156 110 200 q 124 78 110 114 q 171 19 138 43 q 313 -19 225 -19 q 782 193 528 -19 q 792 197 789 197 q 803 196 801 197 q 806 185 806 194 q 800 172 806 178 q 688 85 749 125 q 558 14 626 46 q 413 -40 482 -21 q 282 -58 344 -58 m 644 801 q 636 808 636 801 q 646 822 636 815 q 721 874 686 850 q 797 924 756 897 q 829 939 821 939 q 847 925 840 939 q 874 876 863 899 q 894 831 885 853 q 900 810 900 818 q 889 799 900 799 q 877 804 883 799 q 864 817 871 810 q 831 854 849 835 q 806 882 814 874 q 768 862 793 875 q 717 835 743 849 q 669 811 690 821 q 644 801 649 801 z "},"Ể":{"ha":810,"x_min":42,"x_max":1039,"o":"m 282 -58 q 118 -17 181 -58 q 46 128 46 31 q 114 339 46 225 l 50 326 q 42 336 42 326 q 71 381 42 371 q 92 386 75 383 q 150 394 108 389 q 280 538 208 475 q 432 647 351 600 q 793 757 617 757 q 949 649 949 757 q 904 533 949 592 q 860 485 882 504 q 811 449 839 465 q 793 443 801 443 q 769 465 769 443 q 781 485 769 478 q 910 651 910 585 q 794 719 910 719 q 476 617 653 719 q 338 517 399 571 q 225 401 276 463 q 339 412 285 408 q 444 415 393 415 q 654 376 654 415 q 635 358 654 358 q 608 360 625 358 q 567 365 592 363 q 488 374 515 374 q 186 349 360 374 q 131 249 151 297 q 110 156 110 200 q 124 78 110 114 q 171 19 138 43 q 313 -19 225 -19 q 782 193 528 -19 q 792 197 789 197 q 803 196 801 197 q 806 185 806 194 q 800 172 806 178 q 688 85 749 125 q 558 14 626 46 q 413 -40 482 -21 q 282 -58 344 -58 m 644 801 q 636 808 636 801 q 646 822 636 815 q 721 874 686 850 q 797 924 756 897 q 829 939 821 939 q 847 925 840 939 q 874 876 863 899 q 894 831 885 853 q 900 810 900 818 q 889 799 900 799 q 877 804 883 799 q 864 817 871 810 q 831 854 849 835 q 806 882 814 874 q 768 862 793 875 q 717 835 743 849 q 669 811 690 821 q 644 801 649 801 m 929 878 q 922 889 915 878 q 951 920 931 904 q 979 965 972 936 q 981 976 981 969 q 943 1003 981 1003 q 913 999 925 1003 q 894 996 900 996 q 890 1000 890 996 q 918 1024 890 1011 q 975 1036 946 1036 q 1021 1022 1003 1036 q 1035 982 1039 1007 q 998 924 1028 947 q 947 886 968 901 q 929 878 936 878 z "},"Ễ":{"ha":810,"x_min":42,"x_max":951,"o":"m 282 -58 q 118 -17 181 -58 q 46 128 46 31 q 114 339 46 225 l 50 326 q 42 336 42 326 q 71 381 42 371 q 92 386 75 383 q 150 394 108 389 q 280 538 208 475 q 432 647 351 600 q 793 757 617 757 q 949 649 949 757 q 904 533 949 592 q 860 485 882 504 q 811 449 839 465 q 793 443 801 443 q 769 465 769 443 q 781 485 769 478 q 910 651 910 585 q 794 719 910 719 q 476 617 653 719 q 338 517 399 571 q 225 401 276 463 q 339 412 285 408 q 444 415 393 415 q 654 376 654 415 q 635 358 654 358 q 608 360 625 358 q 567 365 592 363 q 488 374 515 374 q 186 349 360 374 q 131 249 151 297 q 110 156 110 200 q 124 78 110 114 q 171 19 138 43 q 313 -19 225 -19 q 782 193 528 -19 q 792 197 789 197 q 803 196 801 197 q 806 185 806 194 q 800 172 806 178 q 688 85 749 125 q 558 14 626 46 q 413 -40 482 -21 q 282 -58 344 -58 m 644 801 q 636 808 636 801 q 646 822 636 815 q 721 874 686 850 q 797 924 756 897 q 829 939 821 939 q 847 925 840 939 q 874 876 863 899 q 894 831 885 853 q 900 810 900 818 q 889 799 900 799 q 877 804 883 799 q 864 817 871 810 q 831 854 849 835 q 806 882 814 874 q 768 862 793 875 q 717 835 743 849 q 669 811 690 821 q 644 801 649 801 m 721 982 q 713 989 713 982 q 733 1037 713 1017 q 783 1057 753 1057 q 842 1043 817 1057 q 894 1029 868 1029 q 922 1038 913 1029 q 942 1064 932 1046 q 951 1057 951 1064 q 931 1006 951 1026 q 883 986 910 986 q 821 1001 846 986 q 768 1017 796 1017 q 721 982 736 1017 z "},"Ȅ":{"ha":810,"x_min":42,"x_max":949,"o":"m 282 -58 q 118 -17 181 -58 q 46 128 46 31 q 114 339 46 225 l 50 326 q 42 336 42 326 q 71 381 42 371 q 92 386 75 383 q 150 394 108 389 q 280 538 208 475 q 432 647 351 600 q 793 757 617 757 q 949 649 949 757 q 904 533 949 592 q 860 485 882 504 q 811 449 839 465 q 793 443 801 443 q 769 465 769 443 q 781 485 769 478 q 910 651 910 585 q 794 719 910 719 q 476 617 653 719 q 338 517 399 571 q 225 401 276 463 q 339 412 285 408 q 444 415 393 415 q 654 376 654 415 q 635 358 654 358 q 608 360 625 358 q 567 365 592 363 q 488 374 515 374 q 186 349 360 374 q 131 249 151 297 q 110 156 110 200 q 124 78 110 114 q 171 19 138 43 q 313 -19 225 -19 q 782 193 528 -19 q 792 197 789 197 q 803 196 801 197 q 806 185 806 194 q 800 172 806 178 q 688 85 749 125 q 558 14 626 46 q 413 -40 482 -21 q 282 -58 344 -58 m 817 799 q 792 815 811 800 q 752 849 774 829 q 713 885 731 868 q 692 906 696 901 q 687 914 690 908 q 686 929 683 919 q 704 954 693 954 q 728 936 714 954 q 782 871 761 897 q 824 813 803 844 q 826 808 826 811 q 825 803 825 806 q 817 799 825 799 m 728 801 q 702 814 722 801 q 658 843 682 826 q 615 874 633 860 q 592 892 596 888 q 585 899 589 894 q 582 910 582 904 q 599 940 582 940 q 608 938 601 940 q 622 928 614 935 q 679 875 649 906 q 733 815 710 844 q 738 806 738 811 q 728 801 738 801 z "},"Ë":{"ha":810,"x_min":42,"x_max":949,"o":"m 282 -58 q 118 -17 181 -58 q 46 128 46 31 q 114 339 46 225 l 50 326 q 42 336 42 326 q 71 381 42 371 q 92 386 75 383 q 150 394 108 389 q 280 538 208 475 q 432 647 351 600 q 793 757 617 757 q 949 649 949 757 q 904 533 949 592 q 860 485 882 504 q 811 449 839 465 q 793 443 801 443 q 769 465 769 443 q 781 485 769 478 q 910 651 910 585 q 794 719 910 719 q 476 617 653 719 q 338 517 399 571 q 225 401 276 463 q 339 412 285 408 q 444 415 393 415 q 654 376 654 415 q 635 358 654 358 q 608 360 625 358 q 567 365 592 363 q 488 374 515 374 q 186 349 360 374 q 131 249 151 297 q 110 156 110 200 q 124 78 110 114 q 171 19 138 43 q 313 -19 225 -19 q 782 193 528 -19 q 792 197 789 197 q 803 196 801 197 q 806 185 806 194 q 800 172 806 178 q 688 85 749 125 q 558 14 626 46 q 413 -40 482 -21 q 282 -58 344 -58 m 840 799 q 804 828 804 799 q 817 858 804 843 q 847 874 829 874 q 872 864 863 874 q 881 840 881 854 q 869 812 881 825 q 840 799 857 799 m 700 799 q 664 828 664 799 q 676 858 664 843 q 707 874 689 874 q 731 864 722 874 q 740 840 740 854 q 728 812 740 825 q 700 799 717 799 z "},"Ė":{"ha":810,"x_min":42,"x_max":949,"o":"m 282 -58 q 118 -17 181 -58 q 46 128 46 31 q 114 339 46 225 l 50 326 q 42 336 42 326 q 71 381 42 371 q 92 386 75 383 q 150 394 108 389 q 280 538 208 475 q 432 647 351 600 q 793 757 617 757 q 949 649 949 757 q 904 533 949 592 q 860 485 882 504 q 811 449 839 465 q 793 443 801 443 q 769 465 769 443 q 781 485 769 478 q 910 651 910 585 q 794 719 910 719 q 476 617 653 719 q 338 517 399 571 q 225 401 276 463 q 339 412 285 408 q 444 415 393 415 q 654 376 654 415 q 635 358 654 358 q 608 360 625 358 q 567 365 592 363 q 488 374 515 374 q 186 349 360 374 q 131 249 151 297 q 110 156 110 200 q 124 78 110 114 q 171 19 138 43 q 313 -19 225 -19 q 782 193 528 -19 q 792 197 789 197 q 803 196 801 197 q 806 185 806 194 q 800 172 806 178 q 688 85 749 125 q 558 14 626 46 q 413 -40 482 -21 q 282 -58 344 -58 m 788 799 q 751 828 751 799 q 764 858 751 843 q 794 874 776 874 q 819 864 810 874 q 828 840 828 854 q 816 812 828 825 q 788 799 804 799 z "},"Ẹ":{"ha":810,"x_min":42,"x_max":949,"o":"m 282 -58 q 118 -17 181 -58 q 46 128 46 31 q 114 339 46 225 l 50 326 q 42 336 42 326 q 71 381 42 371 q 92 386 75 383 q 150 394 108 389 q 280 538 208 475 q 432 647 351 600 q 793 757 617 757 q 949 649 949 757 q 904 533 949 592 q 860 485 882 504 q 811 449 839 465 q 793 443 801 443 q 769 465 769 443 q 781 485 769 478 q 910 651 910 585 q 794 719 910 719 q 476 617 653 719 q 338 517 399 571 q 225 401 276 463 q 339 412 285 408 q 444 415 393 415 q 654 376 654 415 q 635 358 654 358 q 608 360 625 358 q 567 365 592 363 q 488 374 515 374 q 186 349 360 374 q 131 249 151 297 q 110 156 110 200 q 124 78 110 114 q 171 19 138 43 q 313 -19 225 -19 q 782 193 528 -19 q 792 197 789 197 q 803 196 801 197 q 806 185 806 194 q 800 172 806 178 q 688 85 749 125 q 558 14 626 46 q 413 -40 482 -21 q 282 -58 344 -58 m 254 -190 q 218 -161 218 -190 q 231 -131 218 -146 q 261 -115 243 -115 q 285 -125 276 -115 q 294 -149 294 -135 q 283 -177 294 -164 q 254 -190 271 -190 z "},"È":{"ha":810,"x_min":42,"x_max":949,"o":"m 824 797 q 791 809 818 797 q 731 838 764 821 q 672 867 699 854 q 642 883 646 881 q 634 893 639 886 q 629 908 629 900 q 633 928 629 924 q 640 933 638 933 q 650 932 643 933 q 665 925 657 931 q 750 869 703 901 q 826 811 797 836 q 831 803 831 807 q 824 797 831 797 m 282 -58 q 118 -17 181 -58 q 46 128 46 31 q 114 339 46 225 l 50 326 q 42 336 42 326 q 71 381 42 371 q 92 386 75 383 q 150 394 108 389 q 280 538 208 475 q 432 647 351 600 q 793 757 617 757 q 949 649 949 757 q 904 533 949 592 q 860 485 882 504 q 811 449 839 465 q 793 443 801 443 q 769 465 769 443 q 781 485 769 478 q 910 651 910 585 q 794 719 910 719 q 476 617 653 719 q 338 517 399 571 q 225 401 276 463 q 339 412 285 408 q 444 415 393 415 q 654 376 654 415 q 635 358 654 358 q 608 360 625 358 q 567 365 592 363 q 488 374 515 374 q 186 349 360 374 q 131 249 151 297 q 110 156 110 200 q 124 78 110 114 q 171 19 138 43 q 313 -19 225 -19 q 782 193 528 -19 q 792 197 789 197 q 803 196 801 197 q 806 185 806 194 q 800 172 806 178 q 688 85 749 125 q 558 14 626 46 q 413 -40 482 -21 q 282 -58 344 -58 z "},"Ẻ":{"ha":810,"x_min":42,"x_max":949,"o":"m 282 -58 q 118 -17 181 -58 q 46 128 46 31 q 114 339 46 225 l 50 326 q 42 336 42 326 q 71 381 42 371 q 92 386 75 383 q 150 394 108 389 q 280 538 208 475 q 432 647 351 600 q 793 757 617 757 q 949 649 949 757 q 904 533 949 592 q 860 485 882 504 q 811 449 839 465 q 793 443 801 443 q 769 465 769 443 q 781 485 769 478 q 910 651 910 585 q 794 719 910 719 q 476 617 653 719 q 338 517 399 571 q 225 401 276 463 q 339 412 285 408 q 444 415 393 415 q 654 376 654 415 q 635 358 654 358 q 608 360 625 358 q 567 365 592 363 q 488 374 515 374 q 186 349 360 374 q 131 249 151 297 q 110 156 110 200 q 124 78 110 114 q 171 19 138 43 q 313 -19 225 -19 q 782 193 528 -19 q 792 197 789 197 q 803 196 801 197 q 806 185 806 194 q 800 172 806 178 q 688 85 749 125 q 558 14 626 46 q 413 -40 482 -21 q 282 -58 344 -58 m 785 796 q 778 807 771 796 q 807 838 786 822 q 835 883 828 854 q 836 894 836 888 q 799 921 836 921 q 768 917 781 921 q 750 914 756 914 q 746 918 746 914 q 774 942 746 929 q 831 954 801 954 q 876 940 858 954 q 890 900 894 925 q 853 842 883 865 q 803 804 824 819 q 785 796 792 796 z "},"Ȇ":{"ha":810,"x_min":42,"x_max":949,"o":"m 828 921 q 892 892 872 921 q 913 832 913 864 q 907 803 913 813 q 894 794 901 794 q 881 807 881 794 q 867 852 881 832 q 818 872 853 872 q 758 860 790 872 q 697 803 726 847 q 688 799 693 799 q 681 811 678 799 q 739 891 700 861 q 828 921 778 921 m 282 -58 q 118 -17 181 -58 q 46 128 46 31 q 114 339 46 225 l 50 326 q 42 336 42 326 q 71 381 42 371 q 92 386 75 383 q 150 394 108 389 q 280 538 208 475 q 432 647 351 600 q 793 757 617 757 q 949 649 949 757 q 904 533 949 592 q 860 485 882 504 q 811 449 839 465 q 793 443 801 443 q 769 465 769 443 q 781 485 769 478 q 910 651 910 585 q 794 719 910 719 q 476 617 653 719 q 338 517 399 571 q 225 401 276 463 q 339 412 285 408 q 444 415 393 415 q 654 376 654 415 q 635 358 654 358 q 608 360 625 358 q 567 365 592 363 q 488 374 515 374 q 186 349 360 374 q 131 249 151 297 q 110 156 110 200 q 124 78 110 114 q 171 19 138 43 q 313 -19 225 -19 q 782 193 528 -19 q 792 197 789 197 q 803 196 801 197 q 806 185 806 194 q 800 172 806 178 q 688 85 749 125 q 558 14 626 46 q 413 -40 482 -21 q 282 -58 344 -58 z "},"Ē":{"ha":810,"x_min":42,"x_max":949,"o":"m 282 -58 q 118 -17 181 -58 q 46 128 46 31 q 114 339 46 225 l 50 326 q 42 336 42 326 q 71 381 42 371 q 92 386 75 383 q 150 394 108 389 q 280 538 208 475 q 432 647 351 600 q 793 757 617 757 q 949 649 949 757 q 904 533 949 592 q 860 485 882 504 q 811 449 839 465 q 793 443 801 443 q 769 465 769 443 q 781 485 769 478 q 910 651 910 585 q 794 719 910 719 q 476 617 653 719 q 338 517 399 571 q 225 401 276 463 q 339 412 285 408 q 444 415 393 415 q 654 376 654 415 q 635 358 654 358 q 608 360 625 358 q 567 365 592 363 q 488 374 515 374 q 186 349 360 374 q 131 249 151 297 q 110 156 110 200 q 124 78 110 114 q 171 19 138 43 q 313 -19 225 -19 q 782 193 528 -19 q 792 197 789 197 q 803 196 801 197 q 806 185 806 194 q 800 172 806 178 q 688 85 749 125 q 558 14 626 46 q 413 -40 482 -21 q 282 -58 344 -58 m 768 819 q 717 819 744 819 q 676 824 690 819 q 668 835 668 826 q 674 850 668 844 q 684 855 678 854 q 696 856 690 856 q 769 855 733 856 q 838 851 804 854 q 871 847 851 850 q 890 839 890 843 q 868 824 890 825 q 842 822 861 824 q 801 820 822 821 q 768 819 781 819 z "},"Ŋ":{"ha":686,"x_min":-121,"x_max":672,"o":"m 0 -486 q -83 -460 -46 -486 q -121 -382 -121 -433 q -98 -308 -121 -344 q -54 -253 -75 -271 q -38 -239 -47 -246 q -24 -232 -29 -232 q -21 -242 -18 -232 q -40 -281 -24 -253 q -76 -385 -76 -340 q -57 -436 -76 -417 q 0 -456 -37 -456 q 150 -402 86 -456 q 269 -271 214 -349 q 324 -180 293 -239 q 392 -46 356 -121 q 463 111 428 29 q 529 271 499 193 q 588 440 565 364 q 611 554 611 515 q 594 586 611 586 q 551 575 575 586 q 438 492 501 553 q 300 339 374 432 q 193 197 244 269 q 97 46 142 124 q 70 3 88 29 q 29 -51 53 -22 q -1 -21 -1 -51 q 3 -4 -1 -10 q 81 113 39 40 q 172 297 122 186 q 272 622 272 521 q 240 740 272 697 q 172 782 208 782 q 154 793 154 782 q 174 806 154 806 q 283 760 235 806 q 332 625 332 715 q 231 307 332 497 q 312 405 271 354 q 389 497 353 456 q 494 594 447 563 q 576 626 542 626 q 651 602 629 626 q 672 535 672 578 q 647 405 672 481 q 589 244 621 329 q 448 -81 519 63 q 311 -306 376 -225 q 230 -394 272 -353 q 133 -461 188 -436 q 0 -486 79 -486 z "},"Ę":{"ha":810,"x_min":42,"x_max":949,"o":"m 282 -58 q 118 -17 181 -58 q 46 128 46 31 q 114 339 46 225 l 50 326 q 42 336 42 326 q 71 381 42 371 q 92 386 75 383 q 150 394 108 389 q 280 538 208 475 q 432 647 351 600 q 793 757 617 757 q 949 649 949 757 q 904 533 949 592 q 860 485 882 504 q 811 449 839 465 q 793 443 801 443 q 769 465 769 443 q 781 485 769 478 q 910 651 910 585 q 794 719 910 719 q 476 617 653 719 q 338 517 399 571 q 225 401 276 463 q 339 412 285 408 q 444 415 393 415 q 654 376 654 415 q 635 358 654 358 q 608 360 625 358 q 567 365 592 363 q 488 374 515 374 q 186 349 360 374 q 131 249 151 297 q 110 156 110 200 q 124 78 110 114 q 171 19 138 43 q 313 -19 225 -19 q 782 193 528 -19 q 792 197 789 197 q 803 196 801 197 q 806 185 806 194 q 800 172 806 178 q 688 85 749 125 q 558 14 626 46 q 413 -40 482 -21 q 282 -58 344 -58 m 517 -185 q 482 -192 496 -192 q 444 -176 460 -192 q 429 -133 429 -161 q 429 -124 429 -129 q 431 -114 429 -119 q 445 -76 433 -99 q 471 -36 457 -54 q 508 6 494 -6 q 535 26 521 17 q 543 29 540 29 q 555 26 550 29 q 558 21 560 24 q 533 -4 546 11 q 500 -47 521 -19 q 479 -83 486 -64 q 472 -118 472 -103 q 478 -139 472 -132 q 513 -151 488 -151 q 539 -145 524 -151 q 572 -121 554 -139 q 574 -119 574 -119 q 575 -119 575 -119 q 582 -124 579 -119 q 582 -132 585 -129 q 549 -165 567 -150 q 517 -185 531 -179 z "},"Ð":{"ha":1092,"x_min":0,"x_max":1092,"o":"m 339 -81 q 285 -79 313 -81 q 229 -74 257 -78 q 116 -44 168 -64 q 32 8 64 -24 q 0 83 0 40 q 38 193 0 149 q 137 263 76 238 q 263 292 197 288 q 308 393 282 338 q 364 505 335 449 q 419 608 393 561 q 464 681 446 654 q 535 711 485 711 q 554 700 554 711 q 539 675 554 693 q 422 499 479 594 q 310 292 365 403 q 819 104 685 283 q 930 201 881 147 q 1008 318 979 256 q 1038 446 1038 381 q 995 583 1038 525 q 881 677 953 640 q 723 731 810 714 q 549 749 636 749 q 132 646 314 749 q 114 640 122 640 q 96 661 96 640 q 139 715 96 693 q 253 755 183 739 q 398 778 324 771 q 528 786 472 786 q 733 765 632 786 q 914 702 833 744 q 1043 594 994 660 q 1092 439 1092 529 q 1058 294 1092 364 q 968 165 1024 224 q 846 61 913 106 q 851 42 851 50 q 838 22 851 22 q 818 44 832 22 q 339 -81 610 -81 m 319 -49 q 789 83 582 -49 q 701 158 756 125 q 581 213 646 190 q 450 247 515 235 q 329 258 385 258 q 311 258 319 258 q 293 257 303 258 q 210 19 210 81 q 212 8 210 14 q 214 -3 214 3 q 197 -21 214 -21 q 175 17 175 -21 q 246 251 175 79 q 61 81 61 221 q 117 -4 61 26 q 246 -46 172 -35 q 283 -48 265 -47 q 319 -49 301 -49 m 382 365 l 329 365 q 269 366 299 365 q 228 369 239 367 q 217 379 217 371 q 224 392 217 385 q 242 400 231 397 q 264 404 253 403 q 304 406 282 406 q 349 407 326 407 q 413 406 381 407 q 468 400 446 404 q 494 394 488 397 q 501 386 501 390 q 495 376 501 381 q 474 369 489 371 q 433 367 461 368 q 382 365 406 365 z "},"Ẽ":{"ha":810,"x_min":42,"x_max":949,"o":"m 282 -58 q 118 -17 181 -58 q 46 128 46 31 q 114 339 46 225 l 50 326 q 42 336 42 326 q 71 381 42 371 q 92 386 75 383 q 150 394 108 389 q 280 538 208 475 q 432 647 351 600 q 793 757 617 757 q 949 649 949 757 q 904 533 949 592 q 860 485 882 504 q 811 449 839 465 q 793 443 801 443 q 769 465 769 443 q 781 485 769 478 q 910 651 910 585 q 794 719 910 719 q 476 617 653 719 q 338 517 399 571 q 225 401 276 463 q 339 412 285 408 q 444 415 393 415 q 654 376 654 415 q 635 358 654 358 q 608 360 625 358 q 567 365 592 363 q 488 374 515 374 q 186 349 360 374 q 131 249 151 297 q 110 156 110 200 q 124 78 110 114 q 171 19 138 43 q 313 -19 225 -19 q 782 193 528 -19 q 792 197 789 197 q 803 196 801 197 q 806 185 806 194 q 800 172 806 178 q 688 85 749 125 q 558 14 626 46 q 413 -40 482 -21 q 282 -58 344 -58 m 661 803 q 653 810 653 803 q 673 858 653 838 q 724 878 693 878 q 783 864 757 878 q 835 850 808 850 q 863 858 853 850 q 882 885 872 867 q 892 878 892 885 q 871 827 892 847 q 824 807 850 807 q 761 822 786 807 q 708 838 736 838 q 661 803 676 838 z "},"F":{"ha":878,"x_min":-14,"x_max":1174,"o":"m 542 -67 q 478 18 478 -67 q 554 297 478 110 q 524 296 539 296 q 493 296 508 296 q 21 411 147 296 q -14 474 -14 442 q 63 585 -14 539 q 469 685 229 685 q 581 680 514 685 q 739 665 649 675 q 757 692 746 676 q 783 729 768 708 q 850 750 800 750 q 868 743 868 750 l 808 658 q 1025 646 942 646 q 1144 661 1111 646 q 1161 667 1154 667 q 1174 653 1174 667 q 996 606 1174 606 q 779 618 904 606 q 618 336 682 476 q 672 342 640 338 q 772 356 703 346 q 860 367 822 363 q 924 371 897 371 q 936 363 936 371 q 913 339 936 346 l 826 324 q 717 308 776 315 q 601 299 658 301 q 514 11 514 103 q 543 -39 514 -39 q 578 -24 554 -39 q 596 -11 590 -15 q 604 -7 601 -7 q 615 -19 615 -7 q 588 -50 615 -35 q 542 -67 558 -67 m 514 333 q 542 333 528 333 q 569 335 556 333 q 714 625 639 497 q 601 633 657 631 q 490 635 544 635 q 49 467 49 635 q 253 354 49 388 q 514 333 374 333 z "},"G":{"ha":761,"x_min":-182,"x_max":954,"o":"m 24 -369 q -182 -200 -182 -369 q 260 210 -182 29 q 243 258 243 238 q 440 567 243 419 q 785 742 599 685 q 806 767 789 767 q 846 736 832 767 q 954 667 954 726 q 936 622 954 649 q 899 596 918 596 q 889 606 889 596 q 899 628 889 608 q 908 664 908 647 q 860 703 908 703 q 847 701 851 703 q 841 656 846 683 q 825 569 836 629 q 806 476 817 526 q 782 365 796 425 q 799 367 790 367 q 814 367 807 367 q 885 343 885 367 q 863 329 885 329 q 854 329 860 329 q 842 331 849 329 q 828 332 835 332 q 818 332 822 332 q 793 331 804 332 q 772 329 782 331 q 306 -303 656 -125 q 24 -369 175 -369 m 306 228 q 428 272 364 250 q 561 313 492 293 q 637 394 601 350 q 704 492 672 438 q 785 706 772 604 q 418 489 554 640 q 342 381 376 443 q 300 256 300 308 q 306 228 300 239 m 626 331 q 672 342 649 336 q 718 353 694 347 l 746 494 q 690 409 719 450 q 626 331 660 368 m 61 -324 q 296 -276 188 -324 q 708 317 597 -147 q 639 298 671 307 q 581 282 607 289 q 346 157 454 157 q 281 182 306 157 q -126 -182 -126 19 q 61 -324 -126 -324 m 351 203 q 494 257 415 203 q 412 231 451 244 q 336 204 372 218 q 351 203 340 203 z "},"Ğ":{"ha":761,"x_min":-182,"x_max":954,"o":"m 24 -369 q -182 -200 -182 -369 q 260 210 -182 29 q 243 258 243 238 q 440 567 243 419 q 785 742 599 685 q 806 767 789 767 q 846 736 832 767 q 954 667 954 726 q 936 622 954 649 q 899 596 918 596 q 889 606 889 596 q 899 628 889 608 q 908 664 908 647 q 860 703 908 703 q 847 701 851 703 q 841 656 846 683 q 825 569 836 629 q 806 476 817 526 q 782 365 796 425 q 799 367 790 367 q 814 367 807 367 q 885 343 885 367 q 863 329 885 329 q 854 329 860 329 q 842 331 849 329 q 828 332 835 332 q 818 332 822 332 q 793 331 804 332 q 772 329 782 331 q 306 -303 656 -125 q 24 -369 175 -369 m 306 228 q 428 272 364 250 q 561 313 492 293 q 637 394 601 350 q 704 492 672 438 q 785 706 772 604 q 418 489 554 640 q 342 381 376 443 q 300 256 300 308 q 306 228 300 239 m 626 331 q 672 342 649 336 q 718 353 694 347 l 746 494 q 690 409 719 450 q 626 331 660 368 m 61 -324 q 296 -276 188 -324 q 708 317 597 -147 q 639 298 671 307 q 581 282 607 289 q 346 157 454 157 q 281 182 306 157 q -126 -182 -126 19 q 61 -324 -126 -324 m 351 203 q 494 257 415 203 q 412 231 451 244 q 336 204 372 218 q 351 203 340 203 m 699 796 q 635 825 656 796 q 614 885 614 854 q 620 913 614 904 q 632 922 626 922 q 646 910 646 922 q 660 865 646 885 q 708 844 674 844 q 768 858 736 844 q 829 914 800 871 q 839 918 833 918 q 846 906 849 918 q 788 826 826 856 q 699 796 749 796 z "},"Ǧ":{"ha":761,"x_min":-182,"x_max":954,"o":"m 874 936 q 882 929 882 936 q 872 915 882 922 q 797 865 832 888 q 721 814 763 842 q 689 799 699 799 q 671 813 678 799 q 645 863 657 840 q 624 907 633 885 q 618 928 618 919 q 629 939 618 939 q 642 933 635 939 q 654 921 649 928 q 687 883 669 903 q 713 856 704 864 q 750 876 725 863 q 801 903 775 889 q 849 926 828 917 q 874 936 869 936 m 24 -369 q -182 -200 -182 -369 q 260 210 -182 29 q 243 258 243 238 q 440 567 243 419 q 785 742 599 685 q 806 767 789 767 q 846 736 832 767 q 954 667 954 726 q 936 622 954 649 q 899 596 918 596 q 889 606 889 596 q 899 628 889 608 q 908 664 908 647 q 860 703 908 703 q 847 701 851 703 q 841 656 846 683 q 825 569 836 629 q 806 476 817 526 q 782 365 796 425 q 799 367 790 367 q 814 367 807 367 q 885 343 885 367 q 863 329 885 329 q 854 329 860 329 q 842 331 849 329 q 828 332 835 332 q 818 332 822 332 q 793 331 804 332 q 772 329 782 331 q 306 -303 656 -125 q 24 -369 175 -369 m 306 228 q 428 272 364 250 q 561 313 492 293 q 637 394 601 350 q 704 492 672 438 q 785 706 772 604 q 418 489 554 640 q 342 381 376 443 q 300 256 300 308 q 306 228 300 239 m 626 331 q 672 342 649 336 q 718 353 694 347 l 746 494 q 690 409 719 450 q 626 331 660 368 m 61 -324 q 296 -276 188 -324 q 708 317 597 -147 q 639 298 671 307 q 581 282 607 289 q 346 157 454 157 q 281 182 306 157 q -126 -182 -126 19 q 61 -324 -126 -324 m 351 203 q 494 257 415 203 q 412 231 451 244 q 336 204 372 218 q 351 203 340 203 z "},"Ĝ":{"ha":761,"x_min":-182,"x_max":954,"o":"m 24 -369 q -182 -200 -182 -369 q 260 210 -182 29 q 243 258 243 238 q 440 567 243 419 q 785 742 599 685 q 806 767 789 767 q 846 736 832 767 q 954 667 954 726 q 936 622 954 649 q 899 596 918 596 q 889 606 889 596 q 899 628 889 608 q 908 664 908 647 q 860 703 908 703 q 847 701 851 703 q 841 656 846 683 q 825 569 836 629 q 806 476 817 526 q 782 365 796 425 q 799 367 790 367 q 814 367 807 367 q 885 343 885 367 q 863 329 885 329 q 854 329 860 329 q 842 331 849 329 q 828 332 835 332 q 818 332 822 332 q 793 331 804 332 q 772 329 782 331 q 306 -303 656 -125 q 24 -369 175 -369 m 306 228 q 428 272 364 250 q 561 313 492 293 q 637 394 601 350 q 704 492 672 438 q 785 706 772 604 q 418 489 554 640 q 342 381 376 443 q 300 256 300 308 q 306 228 300 239 m 626 331 q 672 342 649 336 q 718 353 694 347 l 746 494 q 690 409 719 450 q 626 331 660 368 m 61 -324 q 296 -276 188 -324 q 708 317 597 -147 q 639 298 671 307 q 581 282 607 289 q 346 157 454 157 q 281 182 306 157 q -126 -182 -126 19 q 61 -324 -126 -324 m 351 203 q 494 257 415 203 q 412 231 451 244 q 336 204 372 218 q 351 203 340 203 m 568 801 q 560 808 560 801 q 569 822 560 815 q 644 874 610 850 q 721 924 679 897 q 753 939 744 939 q 771 925 764 939 q 797 876 786 899 q 818 831 808 853 q 824 810 824 818 q 813 799 824 799 q 801 804 807 799 q 788 817 794 810 q 755 854 772 835 q 729 882 738 874 q 692 862 717 875 q 640 835 667 849 q 593 811 614 821 q 568 801 572 801 z "},"Ģ":{"ha":761,"x_min":-182,"x_max":954,"o":"m 24 -369 q -182 -200 -182 -369 q 260 210 -182 29 q 243 258 243 238 q 440 567 243 419 q 785 742 599 685 q 806 767 789 767 q 846 736 832 767 q 954 667 954 726 q 936 622 954 649 q 899 596 918 596 q 889 606 889 596 q 899 628 889 608 q 908 664 908 647 q 860 703 908 703 q 847 701 851 703 q 841 656 846 683 q 825 569 836 629 q 806 476 817 526 q 782 365 796 425 q 799 367 790 367 q 814 367 807 367 q 885 343 885 367 q 863 329 885 329 q 854 329 860 329 q 842 331 849 329 q 828 332 835 332 q 818 332 822 332 q 793 331 804 332 q 772 329 782 331 q 306 -303 656 -125 q 24 -369 175 -369 m 306 228 q 428 272 364 250 q 561 313 492 293 q 637 394 601 350 q 704 492 672 438 q 785 706 772 604 q 418 489 554 640 q 342 381 376 443 q 300 256 300 308 q 306 228 300 239 m 626 331 q 672 342 649 336 q 718 353 694 347 l 746 494 q 690 409 719 450 q 626 331 660 368 m 61 -324 q 296 -276 188 -324 q 708 317 597 -147 q 639 298 671 307 q 581 282 607 289 q 346 157 454 157 q 281 182 306 157 q -126 -182 -126 19 q 61 -324 -126 -324 m 351 203 q 494 257 415 203 q 412 231 451 244 q 336 204 372 218 q 351 203 340 203 m 35 -582 q 32 -581 32 -582 q 35 -573 32 -578 q 40 -567 39 -568 q 52 -553 40 -567 q 78 -519 64 -539 q 96 -485 93 -500 q 75 -460 75 -481 q 85 -433 75 -446 q 111 -419 96 -419 q 132 -428 125 -419 q 139 -449 139 -437 q 97 -529 139 -476 q 46 -578 65 -569 q 35 -582 40 -582 z "},"Ġ":{"ha":761,"x_min":-182,"x_max":954,"o":"m 24 -369 q -182 -200 -182 -369 q 260 210 -182 29 q 243 258 243 238 q 440 567 243 419 q 785 742 599 685 q 806 767 789 767 q 846 736 832 767 q 954 667 954 726 q 936 622 954 649 q 899 596 918 596 q 889 606 889 596 q 899 628 889 608 q 908 664 908 647 q 860 703 908 703 q 847 701 851 703 q 841 656 846 683 q 825 569 836 629 q 806 476 817 526 q 782 365 796 425 q 799 367 790 367 q 814 367 807 367 q 885 343 885 367 q 863 329 885 329 q 854 329 860 329 q 842 331 849 329 q 828 332 835 332 q 818 332 822 332 q 793 331 804 332 q 772 329 782 331 q 306 -303 656 -125 q 24 -369 175 -369 m 306 228 q 428 272 364 250 q 561 313 492 293 q 637 394 601 350 q 704 492 672 438 q 785 706 772 604 q 418 489 554 640 q 342 381 376 443 q 300 256 300 308 q 306 228 300 239 m 626 331 q 672 342 649 336 q 718 353 694 347 l 746 494 q 690 409 719 450 q 626 331 660 368 m 61 -324 q 296 -276 188 -324 q 708 317 597 -147 q 639 298 671 307 q 581 282 607 289 q 346 157 454 157 q 281 182 306 157 q -126 -182 -126 19 q 61 -324 -126 -324 m 351 203 q 494 257 415 203 q 412 231 451 244 q 336 204 372 218 q 351 203 340 203 m 711 799 q 675 828 675 799 q 688 858 675 843 q 718 874 700 874 q 742 864 733 874 q 751 840 751 854 q 740 812 751 825 q 711 799 728 799 z "},"ẞ":{"ha":683,"x_min":-319,"x_max":776,"o":"m -293 -300 q -319 -287 -315 -300 q -306 -278 -318 -278 q -65 -44 -190 -278 q -6 91 -43 -4 q 82 324 31 186 q 188 578 140 481 q 281 730 236 676 q 372 803 326 783 q 472 824 418 824 q 599 776 547 824 q 650 654 650 729 q 575 492 650 558 q 494 444 542 461 q 399 425 447 428 q 492 413 444 424 q 578 381 539 403 q 641 321 617 358 q 665 225 665 283 q 665 210 665 218 q 664 196 665 203 q 638 126 660 158 q 590 69 615 93 q 680 101 635 82 q 756 167 725 121 q 769 178 763 178 q 776 168 776 178 q 769 151 776 161 q 676 72 729 94 q 567 39 624 50 q 482 -15 528 4 q 383 -35 436 -35 q 292 -20 338 -35 q 221 24 246 -6 q 193 72 204 43 q 182 128 182 100 q 194 178 182 154 q 233 217 206 203 q 253 222 240 222 q 276 206 275 222 q 322 133 282 165 q 417 81 363 100 q 519 58 472 61 q 573 141 554 94 q 592 232 592 188 q 556 330 592 283 q 461 392 519 376 q 408 402 435 399 q 360 406 382 406 q 321 401 336 406 l 306 397 q 297 396 301 396 q 289 396 293 396 q 249 411 257 396 q 246 424 246 419 q 256 444 246 435 q 282 432 264 435 q 311 429 300 429 q 451 454 388 429 q 554 528 515 479 q 593 649 593 576 q 580 720 593 686 q 538 776 567 754 q 464 799 510 799 q 380 776 415 799 q 312 698 344 753 q 238 547 279 643 q 139 301 197 450 q 67 126 97 203 q 11 -12 38 49 q -49 -122 -15 -74 q -179 -258 -112 -215 q -293 -300 -246 -300 m 314 1 q 374 -7 346 -7 q 439 5 408 -7 q 494 36 469 17 q 343 79 413 43 q 247 183 274 115 q 226 168 235 182 q 217 126 217 154 q 226 83 217 108 q 258 35 236 57 q 314 1 279 13 z "},"H":{"ha":1126,"x_min":-25,"x_max":1324,"o":"m 217 -126 q 53 -81 122 -126 q -25 64 -25 -28 q 257 314 -25 235 q 458 354 351 342 q 679 367 564 367 q 726 366 704 367 q 767 364 749 365 q 839 629 839 542 q 804 683 839 683 q 758 668 786 683 q 728 653 731 653 q 719 665 719 653 q 765 701 719 683 q 832 718 807 718 q 896 628 896 718 q 829 358 896 532 q 1018 319 954 342 l 1063 419 q 1158 609 1113 532 q 1239 729 1203 686 q 1306 750 1258 750 q 1324 743 1324 750 q 1321 736 1324 742 q 1058 303 1149 506 q 1147 211 1147 260 q 1140 188 1147 201 q 1122 175 1132 175 q 1106 192 1106 175 q 1110 201 1106 196 q 1114 213 1114 208 q 1044 272 1114 240 q 969 11 969 96 q 999 -39 969 -39 q 1033 -24 1010 -39 q 1058 -7 1058 -7 q 1071 -19 1071 -7 q 1043 -50 1071 -35 q 996 -67 1014 -67 q 932 18 932 -67 q 1006 288 932 104 q 813 324 931 311 q 706 164 765 235 q 564 25 646 93 q 381 -91 467 -56 q 217 -126 294 -126 m 217 -93 q 531 50 367 -93 q 749 328 671 174 q 715 330 733 329 q 676 331 696 331 q 288 281 467 331 q 24 54 24 208 q 88 -58 24 -19 q 217 -93 140 -93 z "},"Ħ":{"ha":1126,"x_min":-25,"x_max":1324,"o":"m 217 -126 q 53 -81 122 -126 q -25 64 -25 -28 q 257 314 -25 235 q 458 354 351 342 q 679 367 564 367 q 726 366 704 367 q 767 364 749 365 q 839 629 839 542 q 804 683 839 683 q 758 668 786 683 q 728 653 731 653 q 719 665 719 653 q 765 701 719 683 q 832 718 807 718 q 896 628 896 718 q 829 358 896 532 q 1018 319 954 342 l 1063 419 q 1158 609 1113 532 q 1239 729 1203 686 q 1306 750 1258 750 q 1324 743 1324 750 q 1321 736 1324 742 q 1058 303 1149 506 q 1147 211 1147 260 q 1140 188 1147 201 q 1122 175 1132 175 q 1106 192 1106 175 q 1110 201 1106 196 q 1114 213 1114 208 q 1044 272 1114 240 q 969 11 969 96 q 999 -39 969 -39 q 1033 -24 1010 -39 q 1058 -7 1058 -7 q 1071 -19 1071 -7 q 1043 -50 1071 -35 q 996 -67 1014 -67 q 932 18 932 -67 q 1006 288 932 104 q 813 324 931 311 q 706 164 765 235 q 564 25 646 93 q 381 -91 467 -56 q 217 -126 294 -126 m 217 -93 q 531 50 367 -93 q 749 328 671 174 q 715 330 733 329 q 676 331 696 331 q 288 281 467 331 q 24 54 24 208 q 88 -58 24 -19 q 217 -93 140 -93 m 718 485 q 690 494 690 485 q 739 529 690 513 q 886 538 760 538 q 992 536 938 538 q 1104 532 1046 535 q 1126 531 1106 532 q 1173 530 1146 531 q 1219 526 1200 529 q 1256 513 1256 522 q 1219 501 1256 504 q 1158 500 1200 500 q 1068 497 1115 500 q 926 490 1011 496 q 725 485 840 485 l 718 485 z "},"Ĥ":{"ha":1126,"x_min":-25,"x_max":1324,"o":"m 217 -126 q 53 -81 122 -126 q -25 64 -25 -28 q 257 314 -25 235 q 458 354 351 342 q 679 367 564 367 q 726 366 704 367 q 767 364 749 365 q 839 629 839 542 q 804 683 839 683 q 758 668 786 683 q 728 653 731 653 q 719 665 719 653 q 765 701 719 683 q 832 718 807 718 q 896 628 896 718 q 829 358 896 532 q 1018 319 954 342 l 1063 419 q 1158 609 1113 532 q 1239 729 1203 686 q 1306 750 1258 750 q 1324 743 1324 750 q 1321 736 1324 742 q 1058 303 1149 506 q 1147 211 1147 260 q 1140 188 1147 201 q 1122 175 1132 175 q 1106 192 1106 175 q 1110 201 1106 196 q 1114 213 1114 208 q 1044 272 1114 240 q 969 11 969 96 q 999 -39 969 -39 q 1033 -24 1010 -39 q 1058 -7 1058 -7 q 1071 -19 1071 -7 q 1043 -50 1071 -35 q 996 -67 1014 -67 q 932 18 932 -67 q 1006 288 932 104 q 813 324 931 311 q 706 164 765 235 q 564 25 646 93 q 381 -91 467 -56 q 217 -126 294 -126 m 217 -93 q 531 50 367 -93 q 749 328 671 174 q 715 330 733 329 q 676 331 696 331 q 288 281 467 331 q 24 54 24 208 q 88 -58 24 -19 q 217 -93 140 -93 m 939 801 q 931 808 931 801 q 940 822 931 815 q 1015 874 981 850 q 1092 924 1050 897 q 1124 939 1115 939 q 1142 925 1135 939 q 1168 876 1157 899 q 1189 831 1179 853 q 1194 810 1194 818 q 1183 799 1194 799 q 1172 804 1178 799 q 1158 817 1165 810 q 1126 854 1143 835 q 1100 882 1108 874 q 1063 862 1088 875 q 1011 835 1038 849 q 964 811 985 821 q 939 801 943 801 z "},"I":{"ha":610,"x_min":-76,"x_max":854,"o":"m 296 -49 q 235 17 242 -49 q 176 7 217 15 q 81 -12 136 -1 q -8 -30 28 -24 q -60 -36 -43 -36 q -76 -18 -76 -36 q -62 -1 -76 -7 q -36 7 -57 1 q 22 22 -15 13 q 132 48 79 38 q 236 65 185 58 q 272 203 243 124 q 353 392 300 282 q 444 565 401 490 q 531 701 488 640 l 507 701 q 432 700 467 701 q 368 696 397 699 q 194 629 194 675 q 233 588 194 610 q 272 557 272 565 q 258 546 272 546 q 249 547 253 546 q 138 640 138 600 q 197 700 138 671 q 456 738 276 738 q 504 737 479 738 q 556 735 529 736 q 624 758 572 758 q 644 750 644 758 q 631 729 644 747 q 790 713 708 724 q 811 710 799 711 q 839 706 824 708 q 854 690 854 701 q 839 679 854 679 l 835 681 q 740 690 797 685 q 607 700 683 694 q 494 545 546 622 q 407 400 443 468 q 275 71 297 192 q 403 79 346 79 q 556 50 529 79 q 564 22 564 40 q 560 3 564 11 q 550 -1 557 -6 q 501 14 533 8 q 434 22 468 19 q 379 25 400 25 q 327 24 354 25 q 271 19 300 22 q 299 -21 274 -21 q 315 -19 306 -21 q 336 -10 325 -17 q 353 3 347 -3 q 360 10 358 10 q 371 -3 371 10 q 343 -33 371 -21 q 296 -49 313 -49 z "},"Ĳ":{"ha":1401,"x_min":7,"x_max":1372,"o":"m 654 -487 q 538 -450 582 -487 q 496 -357 496 -414 l 496 -340 q 771 -29 515 -178 q 998 78 881 36 q 1217 138 1115 119 q 1242 226 1232 186 q 1258 306 1251 267 q 1274 406 1265 350 q 1282 517 1282 463 q 1274 606 1282 564 q 1242 676 1265 649 q 1197 711 1224 700 q 1140 722 1169 722 q 1044 704 1093 722 q 954 658 994 686 q 869 588 914 631 q 785 497 824 546 q 722 400 746 447 q 697 317 697 353 q 710 268 697 289 q 753 240 722 247 q 794 236 776 236 q 847 244 822 236 q 897 267 872 253 q 944 297 921 281 q 983 326 967 314 q 1000 339 1000 339 l 1007 339 q 1011 332 1011 339 q 1008 320 1011 326 q 997 306 1004 314 q 934 253 975 279 q 865 218 893 228 q 828 210 850 213 q 789 207 807 207 q 766 208 778 207 q 742 214 754 210 q 681 260 700 228 q 661 333 661 292 q 683 423 661 375 q 742 519 706 471 q 823 609 778 567 q 914 681 868 651 q 820 690 876 685 q 690 700 764 694 q 578 545 629 622 q 490 400 526 468 q 358 71 381 192 q 486 79 429 79 q 639 50 613 79 q 647 22 647 40 q 644 3 647 11 q 633 -1 640 -6 q 584 14 617 8 q 517 22 551 19 q 463 25 483 25 q 410 24 438 25 q 354 19 383 22 q 382 -21 357 -21 q 399 -19 389 -21 q 419 -10 408 -17 q 436 3 431 -3 q 443 10 442 10 q 454 -3 454 10 q 426 -33 454 -21 q 379 -49 396 -49 q 318 17 325 -49 q 260 7 300 15 q 164 -12 219 -1 q 76 -30 111 -24 q 24 -36 40 -36 q 7 -18 7 -36 q 21 -1 7 -7 q 47 7 26 1 q 106 22 68 13 q 215 48 163 38 q 319 65 268 58 q 355 203 326 124 q 436 392 383 282 q 528 565 485 490 q 614 701 571 640 l 590 701 q 515 700 550 701 q 451 696 481 699 q 278 629 278 675 q 317 588 278 610 q 356 557 356 565 q 342 546 356 546 q 332 547 336 546 q 221 640 221 600 q 281 700 221 671 q 539 738 360 738 q 588 737 563 738 q 639 735 613 736 q 707 758 656 758 q 728 750 728 758 q 714 729 728 747 q 874 713 792 724 q 894 710 882 711 q 922 706 907 708 q 936 694 935 700 q 1031 733 979 718 q 1135 749 1083 749 l 1140 749 q 1213 736 1178 749 q 1274 700 1247 724 q 1322 612 1310 668 q 1335 492 1335 556 q 1331 403 1335 449 q 1319 306 1326 358 l 1317 292 q 1302 218 1310 256 q 1282 142 1294 181 l 1294 142 q 1354 136 1336 142 q 1372 114 1372 131 q 1365 100 1372 100 l 1353 110 q 1332 113 1347 113 q 1306 113 1317 113 q 1288 113 1296 113 q 1271 110 1281 113 q 1162 -117 1229 -11 q 1012 -306 1094 -224 q 840 -435 929 -387 q 663 -487 750 -483 l 654 -487 m 669 -467 q 768 -444 718 -464 q 872 -382 818 -424 q 1072 -167 985 -294 q 1208 110 1160 -40 q 1076 78 1153 101 q 913 17 999 56 q 779 -53 832 -18 q 685 -125 726 -89 q 585 -235 621 -181 q 542 -342 549 -289 q 540 -353 540 -350 q 540 -360 540 -357 q 549 -403 540 -387 q 572 -432 558 -418 q 611 -457 588 -446 q 669 -467 635 -468 z "},"Í":{"ha":610,"x_min":-76,"x_max":854,"o":"m 296 -49 q 235 17 242 -49 q 176 7 217 15 q 81 -12 136 -1 q -8 -30 28 -24 q -60 -36 -43 -36 q -76 -18 -76 -36 q -62 -1 -76 -7 q -36 7 -57 1 q 22 22 -15 13 q 132 48 79 38 q 236 65 185 58 q 272 203 243 124 q 353 392 300 282 q 444 565 401 490 q 531 701 488 640 l 507 701 q 432 700 467 701 q 368 696 397 699 q 194 629 194 675 q 233 588 194 610 q 272 557 272 565 q 258 546 272 546 q 249 547 253 546 q 138 640 138 600 q 197 700 138 671 q 456 738 276 738 q 504 737 479 738 q 556 735 529 736 q 624 758 572 758 q 644 750 644 758 q 631 729 644 747 q 790 713 708 724 q 811 710 799 711 q 839 706 824 708 q 854 690 854 701 q 839 679 854 679 l 835 681 q 740 690 797 685 q 607 700 683 694 q 494 545 546 622 q 407 400 443 468 q 275 71 297 192 q 403 79 346 79 q 556 50 529 79 q 564 22 564 40 q 560 3 564 11 q 550 -1 557 -6 q 501 14 533 8 q 434 22 468 19 q 379 25 400 25 q 327 24 354 25 q 271 19 300 22 q 299 -21 274 -21 q 315 -19 306 -21 q 336 -10 325 -17 q 353 3 347 -3 q 360 10 358 10 q 371 -3 371 10 q 343 -33 371 -21 q 296 -49 313 -49 m 561 797 q 554 803 554 797 q 558 811 554 807 q 635 869 588 836 q 719 925 682 901 q 735 932 728 931 q 744 933 742 933 q 751 928 747 933 q 756 908 756 924 q 751 893 756 900 q 743 883 746 886 q 713 867 739 881 q 653 838 686 854 q 594 809 621 821 q 561 797 567 797 z "},"Ĭ":{"ha":610,"x_min":-76,"x_max":854,"o":"m 296 -49 q 235 17 242 -49 q 176 7 217 15 q 81 -12 136 -1 q -8 -30 28 -24 q -60 -36 -43 -36 q -76 -18 -76 -36 q -62 -1 -76 -7 q -36 7 -57 1 q 22 22 -15 13 q 132 48 79 38 q 236 65 185 58 q 272 203 243 124 q 353 392 300 282 q 444 565 401 490 q 531 701 488 640 l 507 701 q 432 700 467 701 q 368 696 397 699 q 194 629 194 675 q 233 588 194 610 q 272 557 272 565 q 258 546 272 546 q 249 547 253 546 q 138 640 138 600 q 197 700 138 671 q 456 738 276 738 q 504 737 479 738 q 556 735 529 736 q 624 758 572 758 q 644 750 644 758 q 631 729 644 747 q 790 713 708 724 q 811 710 799 711 q 839 706 824 708 q 854 690 854 701 q 839 679 854 679 l 835 681 q 740 690 797 685 q 607 700 683 694 q 494 545 546 622 q 407 400 443 468 q 275 71 297 192 q 403 79 346 79 q 556 50 529 79 q 564 22 564 40 q 560 3 564 11 q 550 -1 557 -6 q 501 14 533 8 q 434 22 468 19 q 379 25 400 25 q 327 24 354 25 q 271 19 300 22 q 299 -21 274 -21 q 315 -19 306 -21 q 336 -10 325 -17 q 353 3 347 -3 q 360 10 358 10 q 371 -3 371 10 q 343 -33 371 -21 q 296 -49 313 -49 m 611 796 q 547 825 568 796 q 526 885 526 854 q 533 913 526 904 q 544 922 539 922 q 558 910 558 922 q 572 865 558 885 q 621 844 586 844 q 681 858 649 844 q 742 914 713 871 q 751 918 746 918 q 758 906 761 918 q 700 826 739 856 q 611 796 661 796 z "},"Ǐ":{"ha":610,"x_min":-76,"x_max":854,"o":"m 786 936 q 794 929 794 936 q 785 915 794 922 q 710 865 744 888 q 633 814 675 842 q 601 799 611 799 q 583 813 590 799 q 558 863 569 840 q 536 907 546 885 q 531 928 531 919 q 542 939 531 939 q 554 933 547 939 q 567 921 561 928 q 599 883 582 903 q 625 856 617 864 q 663 876 638 863 q 714 903 688 889 q 761 926 740 917 q 786 936 782 936 m 296 -49 q 235 17 242 -49 q 176 7 217 15 q 81 -12 136 -1 q -8 -30 28 -24 q -60 -36 -43 -36 q -76 -18 -76 -36 q -62 -1 -76 -7 q -36 7 -57 1 q 22 22 -15 13 q 132 48 79 38 q 236 65 185 58 q 272 203 243 124 q 353 392 300 282 q 444 565 401 490 q 531 701 488 640 l 507 701 q 432 700 467 701 q 368 696 397 699 q 194 629 194 675 q 233 588 194 610 q 272 557 272 565 q 258 546 272 546 q 249 547 253 546 q 138 640 138 600 q 197 700 138 671 q 456 738 276 738 q 504 737 479 738 q 556 735 529 736 q 624 758 572 758 q 644 750 644 758 q 631 729 644 747 q 790 713 708 724 q 811 710 799 711 q 839 706 824 708 q 854 690 854 701 q 839 679 854 679 l 835 681 q 740 690 797 685 q 607 700 683 694 q 494 545 546 622 q 407 400 443 468 q 275 71 297 192 q 403 79 346 79 q 556 50 529 79 q 564 22 564 40 q 560 3 564 11 q 550 -1 557 -6 q 501 14 533 8 q 434 22 468 19 q 379 25 400 25 q 327 24 354 25 q 271 19 300 22 q 299 -21 274 -21 q 315 -19 306 -21 q 336 -10 325 -17 q 353 3 347 -3 q 360 10 358 10 q 371 -3 371 10 q 343 -33 371 -21 q 296 -49 313 -49 z "},"Î":{"ha":610,"x_min":-76,"x_max":854,"o":"m 296 -49 q 235 17 242 -49 q 176 7 217 15 q 81 -12 136 -1 q -8 -30 28 -24 q -60 -36 -43 -36 q -76 -18 -76 -36 q -62 -1 -76 -7 q -36 7 -57 1 q 22 22 -15 13 q 132 48 79 38 q 236 65 185 58 q 272 203 243 124 q 353 392 300 282 q 444 565 401 490 q 531 701 488 640 l 507 701 q 432 700 467 701 q 368 696 397 699 q 194 629 194 675 q 233 588 194 610 q 272 557 272 565 q 258 546 272 546 q 249 547 253 546 q 138 640 138 600 q 197 700 138 671 q 456 738 276 738 q 504 737 479 738 q 556 735 529 736 q 624 758 572 758 q 644 750 644 758 q 631 729 644 747 q 790 713 708 724 q 811 710 799 711 q 839 706 824 708 q 854 690 854 701 q 839 679 854 679 l 835 681 q 740 690 797 685 q 607 700 683 694 q 494 545 546 622 q 407 400 443 468 q 275 71 297 192 q 403 79 346 79 q 556 50 529 79 q 564 22 564 40 q 560 3 564 11 q 550 -1 557 -6 q 501 14 533 8 q 434 22 468 19 q 379 25 400 25 q 327 24 354 25 q 271 19 300 22 q 299 -21 274 -21 q 315 -19 306 -21 q 336 -10 325 -17 q 353 3 347 -3 q 360 10 358 10 q 371 -3 371 10 q 343 -33 371 -21 q 296 -49 313 -49 m 481 801 q 472 808 472 801 q 482 822 472 815 q 557 874 522 850 q 633 924 592 897 q 665 939 657 939 q 683 925 676 939 q 710 876 699 899 q 731 831 721 853 q 736 810 736 818 q 725 799 736 799 q 713 804 719 799 q 700 817 707 810 q 667 854 685 835 q 642 882 650 874 q 604 862 629 875 q 553 835 579 849 q 506 811 526 821 q 481 801 485 801 z "},"Ȉ":{"ha":610,"x_min":-76,"x_max":854,"o":"m 296 -49 q 235 17 242 -49 q 176 7 217 15 q 81 -12 136 -1 q -8 -30 28 -24 q -60 -36 -43 -36 q -76 -18 -76 -36 q -62 -1 -76 -7 q -36 7 -57 1 q 22 22 -15 13 q 132 48 79 38 q 236 65 185 58 q 272 203 243 124 q 353 392 300 282 q 444 565 401 490 q 531 701 488 640 l 507 701 q 432 700 467 701 q 368 696 397 699 q 194 629 194 675 q 233 588 194 610 q 272 557 272 565 q 258 546 272 546 q 249 547 253 546 q 138 640 138 600 q 197 700 138 671 q 456 738 276 738 q 504 737 479 738 q 556 735 529 736 q 624 758 572 758 q 644 750 644 758 q 631 729 644 747 q 790 713 708 724 q 811 710 799 711 q 839 706 824 708 q 854 690 854 701 q 839 679 854 679 l 835 681 q 740 690 797 685 q 607 700 683 694 q 494 545 546 622 q 407 400 443 468 q 275 71 297 192 q 403 79 346 79 q 556 50 529 79 q 564 22 564 40 q 560 3 564 11 q 550 -1 557 -6 q 501 14 533 8 q 434 22 468 19 q 379 25 400 25 q 327 24 354 25 q 271 19 300 22 q 299 -21 274 -21 q 315 -19 306 -21 q 336 -10 325 -17 q 353 3 347 -3 q 360 10 358 10 q 371 -3 371 10 q 343 -33 371 -21 q 296 -49 313 -49 m 653 799 q 628 815 647 800 q 588 849 610 829 q 549 885 567 868 q 528 906 532 901 q 523 914 526 908 q 522 929 519 919 q 540 954 529 954 q 564 936 550 954 q 618 871 597 897 q 660 813 639 844 q 662 808 663 811 q 661 803 661 806 q 653 799 661 799 m 564 801 q 538 814 558 801 q 494 843 518 826 q 451 874 469 860 q 428 892 432 888 q 422 899 425 894 q 418 910 418 904 q 435 940 418 940 q 444 938 438 940 q 458 928 450 935 q 515 875 485 906 q 569 815 546 844 q 574 806 574 811 q 564 801 574 801 z "},"Ï":{"ha":610,"x_min":-76,"x_max":854,"o":"m 296 -49 q 235 17 242 -49 q 176 7 217 15 q 81 -12 136 -1 q -8 -30 28 -24 q -60 -36 -43 -36 q -76 -18 -76 -36 q -62 -1 -76 -7 q -36 7 -57 1 q 22 22 -15 13 q 132 48 79 38 q 236 65 185 58 q 272 203 243 124 q 353 392 300 282 q 444 565 401 490 q 531 701 488 640 l 507 701 q 432 700 467 701 q 368 696 397 699 q 194 629 194 675 q 233 588 194 610 q 272 557 272 565 q 258 546 272 546 q 249 547 253 546 q 138 640 138 600 q 197 700 138 671 q 456 738 276 738 q 504 737 479 738 q 556 735 529 736 q 624 758 572 758 q 644 750 644 758 q 631 729 644 747 q 790 713 708 724 q 811 710 799 711 q 839 706 824 708 q 854 690 854 701 q 839 679 854 679 l 835 681 q 740 690 797 685 q 607 700 683 694 q 494 545 546 622 q 407 400 443 468 q 275 71 297 192 q 403 79 346 79 q 556 50 529 79 q 564 22 564 40 q 560 3 564 11 q 550 -1 557 -6 q 501 14 533 8 q 434 22 468 19 q 379 25 400 25 q 327 24 354 25 q 271 19 300 22 q 299 -21 274 -21 q 315 -19 306 -21 q 336 -10 325 -17 q 353 3 347 -3 q 360 10 358 10 q 371 -3 371 10 q 343 -33 371 -21 q 296 -49 313 -49 m 676 799 q 640 828 640 799 q 653 858 640 843 q 683 874 665 874 q 708 864 699 874 q 717 840 717 854 q 705 812 717 825 q 676 799 693 799 m 536 799 q 500 828 500 799 q 513 858 500 843 q 543 874 525 874 q 567 864 558 874 q 576 840 576 854 q 565 812 576 825 q 536 799 553 799 z "},"İ":{"ha":610,"x_min":-76,"x_max":854,"o":"m 296 -49 q 235 17 242 -49 q 176 7 217 15 q 81 -12 136 -1 q -8 -30 28 -24 q -60 -36 -43 -36 q -76 -18 -76 -36 q -62 -1 -76 -7 q -36 7 -57 1 q 22 22 -15 13 q 132 48 79 38 q 236 65 185 58 q 272 203 243 124 q 353 392 300 282 q 444 565 401 490 q 531 701 488 640 l 507 701 q 432 700 467 701 q 368 696 397 699 q 194 629 194 675 q 233 588 194 610 q 272 557 272 565 q 258 546 272 546 q 249 547 253 546 q 138 640 138 600 q 197 700 138 671 q 456 738 276 738 q 504 737 479 738 q 556 735 529 736 q 624 758 572 758 q 644 750 644 758 q 631 729 644 747 q 790 713 708 724 q 811 710 799 711 q 839 706 824 708 q 854 690 854 701 q 839 679 854 679 l 835 681 q 740 690 797 685 q 607 700 683 694 q 494 545 546 622 q 407 400 443 468 q 275 71 297 192 q 403 79 346 79 q 556 50 529 79 q 564 22 564 40 q 560 3 564 11 q 550 -1 557 -6 q 501 14 533 8 q 434 22 468 19 q 379 25 400 25 q 327 24 354 25 q 271 19 300 22 q 299 -21 274 -21 q 315 -19 306 -21 q 336 -10 325 -17 q 353 3 347 -3 q 360 10 358 10 q 371 -3 371 10 q 343 -33 371 -21 q 296 -49 313 -49 m 624 799 q 588 828 588 799 q 600 858 588 843 q 631 874 613 874 q 655 864 646 874 q 664 840 664 854 q 652 812 664 825 q 624 799 640 799 z "},"Ị":{"ha":610,"x_min":-76,"x_max":854,"o":"m 296 -49 q 235 17 242 -49 q 176 7 217 15 q 81 -12 136 -1 q -8 -30 28 -24 q -60 -36 -43 -36 q -76 -18 -76 -36 q -62 -1 -76 -7 q -36 7 -57 1 q 22 22 -15 13 q 132 48 79 38 q 236 65 185 58 q 272 203 243 124 q 353 392 300 282 q 444 565 401 490 q 531 701 488 640 l 507 701 q 432 700 467 701 q 368 696 397 699 q 194 629 194 675 q 233 588 194 610 q 272 557 272 565 q 258 546 272 546 q 249 547 253 546 q 138 640 138 600 q 197 700 138 671 q 456 738 276 738 q 504 737 479 738 q 556 735 529 736 q 624 758 572 758 q 644 750 644 758 q 631 729 644 747 q 790 713 708 724 q 811 710 799 711 q 839 706 824 708 q 854 690 854 701 q 839 679 854 679 l 835 681 q 740 690 797 685 q 607 700 683 694 q 494 545 546 622 q 407 400 443 468 q 275 71 297 192 q 403 79 346 79 q 556 50 529 79 q 564 22 564 40 q 560 3 564 11 q 550 -1 557 -6 q 501 14 533 8 q 434 22 468 19 q 379 25 400 25 q 327 24 354 25 q 271 19 300 22 q 299 -21 274 -21 q 315 -19 306 -21 q 336 -10 325 -17 q 353 3 347 -3 q 360 10 358 10 q 371 -3 371 10 q 343 -33 371 -21 q 296 -49 313 -49 m 207 -146 q 171 -117 171 -146 q 183 -86 171 -101 q 214 -71 196 -71 q 238 -81 229 -71 q 247 -104 247 -90 q 235 -133 247 -119 q 207 -146 224 -146 z "},"Ì":{"ha":610,"x_min":-76,"x_max":854,"o":"m 660 797 q 627 809 654 797 q 567 838 600 821 q 508 867 535 854 q 478 883 482 881 q 470 893 475 886 q 465 908 465 900 q 469 928 465 924 q 476 933 474 933 q 486 932 479 933 q 501 925 493 931 q 586 869 539 901 q 663 811 633 836 q 667 803 667 807 q 660 797 667 797 m 296 -49 q 235 17 242 -49 q 176 7 217 15 q 81 -12 136 -1 q -8 -30 28 -24 q -60 -36 -43 -36 q -76 -18 -76 -36 q -62 -1 -76 -7 q -36 7 -57 1 q 22 22 -15 13 q 132 48 79 38 q 236 65 185 58 q 272 203 243 124 q 353 392 300 282 q 444 565 401 490 q 531 701 488 640 l 507 701 q 432 700 467 701 q 368 696 397 699 q 194 629 194 675 q 233 588 194 610 q 272 557 272 565 q 258 546 272 546 q 249 547 253 546 q 138 640 138 600 q 197 700 138 671 q 456 738 276 738 q 504 737 479 738 q 556 735 529 736 q 624 758 572 758 q 644 750 644 758 q 631 729 644 747 q 790 713 708 724 q 811 710 799 711 q 839 706 824 708 q 854 690 854 701 q 839 679 854 679 l 835 681 q 740 690 797 685 q 607 700 683 694 q 494 545 546 622 q 407 400 443 468 q 275 71 297 192 q 403 79 346 79 q 556 50 529 79 q 564 22 564 40 q 560 3 564 11 q 550 -1 557 -6 q 501 14 533 8 q 434 22 468 19 q 379 25 400 25 q 327 24 354 25 q 271 19 300 22 q 299 -21 274 -21 q 315 -19 306 -21 q 336 -10 325 -17 q 353 3 347 -3 q 360 10 358 10 q 371 -3 371 10 q 343 -33 371 -21 q 296 -49 313 -49 z "},"Ỉ":{"ha":610,"x_min":-76,"x_max":854,"o":"m 296 -49 q 235 17 242 -49 q 176 7 217 15 q 81 -12 136 -1 q -8 -30 28 -24 q -60 -36 -43 -36 q -76 -18 -76 -36 q -62 -1 -76 -7 q -36 7 -57 1 q 22 22 -15 13 q 132 48 79 38 q 236 65 185 58 q 272 203 243 124 q 353 392 300 282 q 444 565 401 490 q 531 701 488 640 l 507 701 q 432 700 467 701 q 368 696 397 699 q 194 629 194 675 q 233 588 194 610 q 272 557 272 565 q 258 546 272 546 q 249 547 253 546 q 138 640 138 600 q 197 700 138 671 q 456 738 276 738 q 504 737 479 738 q 556 735 529 736 q 624 758 572 758 q 644 750 644 758 q 631 729 644 747 q 790 713 708 724 q 811 710 799 711 q 839 706 824 708 q 854 690 854 701 q 839 679 854 679 l 835 681 q 740 690 797 685 q 607 700 683 694 q 494 545 546 622 q 407 400 443 468 q 275 71 297 192 q 403 79 346 79 q 556 50 529 79 q 564 22 564 40 q 560 3 564 11 q 550 -1 557 -6 q 501 14 533 8 q 434 22 468 19 q 379 25 400 25 q 327 24 354 25 q 271 19 300 22 q 299 -21 274 -21 q 315 -19 306 -21 q 336 -10 325 -17 q 353 3 347 -3 q 360 10 358 10 q 371 -3 371 10 q 343 -33 371 -21 q 296 -49 313 -49 m 621 796 q 614 807 607 796 q 643 838 622 822 q 671 883 664 854 q 672 894 672 888 q 635 921 672 921 q 604 917 617 921 q 586 914 592 914 q 582 918 582 914 q 610 942 582 929 q 667 954 638 954 q 713 940 694 954 q 726 900 731 925 q 690 842 719 865 q 639 804 660 819 q 621 796 628 796 z "},"Ȋ":{"ha":610,"x_min":-76,"x_max":854,"o":"m 664 921 q 728 892 708 921 q 749 832 749 864 q 743 803 749 813 q 731 794 738 794 q 717 807 717 794 q 703 852 717 832 q 654 872 689 872 q 594 860 626 872 q 533 803 563 847 q 524 799 529 799 q 517 811 514 799 q 575 891 536 861 q 664 921 614 921 m 296 -49 q 235 17 242 -49 q 176 7 217 15 q 81 -12 136 -1 q -8 -30 28 -24 q -60 -36 -43 -36 q -76 -18 -76 -36 q -62 -1 -76 -7 q -36 7 -57 1 q 22 22 -15 13 q 132 48 79 38 q 236 65 185 58 q 272 203 243 124 q 353 392 300 282 q 444 565 401 490 q 531 701 488 640 l 507 701 q 432 700 467 701 q 368 696 397 699 q 194 629 194 675 q 233 588 194 610 q 272 557 272 565 q 258 546 272 546 q 249 547 253 546 q 138 640 138 600 q 197 700 138 671 q 456 738 276 738 q 504 737 479 738 q 556 735 529 736 q 624 758 572 758 q 644 750 644 758 q 631 729 644 747 q 790 713 708 724 q 811 710 799 711 q 839 706 824 708 q 854 690 854 701 q 839 679 854 679 l 835 681 q 740 690 797 685 q 607 700 683 694 q 494 545 546 622 q 407 400 443 468 q 275 71 297 192 q 403 79 346 79 q 556 50 529 79 q 564 22 564 40 q 560 3 564 11 q 550 -1 557 -6 q 501 14 533 8 q 434 22 468 19 q 379 25 400 25 q 327 24 354 25 q 271 19 300 22 q 299 -21 274 -21 q 315 -19 306 -21 q 336 -10 325 -17 q 353 3 347 -3 q 360 10 358 10 q 371 -3 371 10 q 343 -33 371 -21 q 296 -49 313 -49 z "},"Ī":{"ha":610,"x_min":-76,"x_max":854,"o":"m 296 -49 q 235 17 242 -49 q 176 7 217 15 q 81 -12 136 -1 q -8 -30 28 -24 q -60 -36 -43 -36 q -76 -18 -76 -36 q -62 -1 -76 -7 q -36 7 -57 1 q 22 22 -15 13 q 132 48 79 38 q 236 65 185 58 q 272 203 243 124 q 353 392 300 282 q 444 565 401 490 q 531 701 488 640 l 507 701 q 432 700 467 701 q 368 696 397 699 q 194 629 194 675 q 233 588 194 610 q 272 557 272 565 q 258 546 272 546 q 249 547 253 546 q 138 640 138 600 q 197 700 138 671 q 456 738 276 738 q 504 737 479 738 q 556 735 529 736 q 624 758 572 758 q 644 750 644 758 q 631 729 644 747 q 790 713 708 724 q 811 710 799 711 q 839 706 824 708 q 854 690 854 701 q 839 679 854 679 l 835 681 q 740 690 797 685 q 607 700 683 694 q 494 545 546 622 q 407 400 443 468 q 275 71 297 192 q 403 79 346 79 q 556 50 529 79 q 564 22 564 40 q 560 3 564 11 q 550 -1 557 -6 q 501 14 533 8 q 434 22 468 19 q 379 25 400 25 q 327 24 354 25 q 271 19 300 22 q 299 -21 274 -21 q 315 -19 306 -21 q 336 -10 325 -17 q 353 3 347 -3 q 360 10 358 10 q 371 -3 371 10 q 343 -33 371 -21 q 296 -49 313 -49 m 604 819 q 553 819 581 819 q 513 824 526 819 q 504 835 504 826 q 510 850 504 844 q 520 855 514 854 q 532 856 526 856 q 605 855 569 856 q 674 851 640 854 q 707 847 688 850 q 726 839 726 843 q 704 824 726 825 q 678 822 697 824 q 638 820 658 821 q 604 819 617 819 z "},"Į":{"ha":610,"x_min":-76,"x_max":854,"o":"m 296 -49 q 235 17 242 -49 q 176 7 217 15 q 81 -12 136 -1 q -8 -30 28 -24 q -60 -36 -43 -36 q -76 -18 -76 -36 q -62 -1 -76 -7 q -36 7 -57 1 q 22 22 -15 13 q 132 48 79 38 q 236 65 185 58 q 272 203 243 124 q 353 392 300 282 q 444 565 401 490 q 531 701 488 640 l 507 701 q 432 700 467 701 q 368 696 397 699 q 194 629 194 675 q 233 588 194 610 q 272 557 272 565 q 258 546 272 546 q 249 547 253 546 q 138 640 138 600 q 197 700 138 671 q 456 738 276 738 q 504 737 479 738 q 556 735 529 736 q 624 758 572 758 q 644 750 644 758 q 631 729 644 747 q 790 713 708 724 q 811 710 799 711 q 839 706 824 708 q 854 690 854 701 q 839 679 854 679 l 835 681 q 740 690 797 685 q 607 700 683 694 q 494 545 546 622 q 407 400 443 468 q 275 71 297 192 q 403 79 346 79 q 556 50 529 79 q 564 22 564 40 q 560 3 564 11 q 550 -1 557 -6 q 501 14 533 8 q 434 22 468 19 q 379 25 400 25 q 327 24 354 25 q 271 19 300 22 q 299 -21 274 -21 q 315 -19 306 -21 q 336 -10 325 -17 q 353 3 347 -3 q 360 10 358 10 q 371 -3 371 10 q 343 -33 371 -21 q 296 -49 313 -49 m 231 -219 q 196 -226 210 -226 q 158 -211 174 -226 q 143 -168 143 -196 q 143 -159 143 -164 q 144 -149 143 -154 q 159 -111 147 -133 q 185 -71 171 -89 q 222 -29 208 -40 q 249 -8 235 -18 q 257 -6 254 -6 q 269 -8 264 -6 q 272 -14 274 -11 q 247 -39 260 -24 q 214 -82 235 -54 q 193 -118 200 -99 q 186 -153 186 -137 q 192 -174 186 -167 q 226 -186 201 -186 q 253 -180 238 -186 q 286 -156 268 -174 q 288 -154 288 -154 q 289 -154 289 -154 q 296 -159 293 -154 q 296 -167 299 -164 q 263 -199 281 -185 q 231 -219 244 -214 z "},"Ĩ":{"ha":610,"x_min":-76,"x_max":854,"o":"m 296 -49 q 235 17 242 -49 q 176 7 217 15 q 81 -12 136 -1 q -8 -30 28 -24 q -60 -36 -43 -36 q -76 -18 -76 -36 q -62 -1 -76 -7 q -36 7 -57 1 q 22 22 -15 13 q 132 48 79 38 q 236 65 185 58 q 272 203 243 124 q 353 392 300 282 q 444 565 401 490 q 531 701 488 640 l 507 701 q 432 700 467 701 q 368 696 397 699 q 194 629 194 675 q 233 588 194 610 q 272 557 272 565 q 258 546 272 546 q 249 547 253 546 q 138 640 138 600 q 197 700 138 671 q 456 738 276 738 q 504 737 479 738 q 556 735 529 736 q 624 758 572 758 q 644 750 644 758 q 631 729 644 747 q 790 713 708 724 q 811 710 799 711 q 839 706 824 708 q 854 690 854 701 q 839 679 854 679 l 835 681 q 740 690 797 685 q 607 700 683 694 q 494 545 546 622 q 407 400 443 468 q 275 71 297 192 q 403 79 346 79 q 556 50 529 79 q 564 22 564 40 q 560 3 564 11 q 550 -1 557 -6 q 501 14 533 8 q 434 22 468 19 q 379 25 400 25 q 327 24 354 25 q 271 19 300 22 q 299 -21 274 -21 q 315 -19 306 -21 q 336 -10 325 -17 q 353 3 347 -3 q 360 10 358 10 q 371 -3 371 10 q 343 -33 371 -21 q 296 -49 313 -49 m 497 803 q 489 810 489 803 q 509 858 489 838 q 560 878 529 878 q 619 864 593 878 q 671 850 644 850 q 699 858 689 850 q 718 885 708 867 q 728 878 728 885 q 707 827 728 847 q 660 807 686 807 q 597 822 622 807 q 544 838 572 838 q 497 803 513 838 z "},"J":{"ha":751,"x_min":-140,"x_max":736,"o":"m 18 -487 q -99 -450 -54 -487 q -140 -357 -140 -414 l -140 -340 q 135 -29 -121 -178 q 362 78 244 36 q 581 138 479 119 q 606 226 596 186 q 622 306 615 267 q 638 406 629 350 q 646 517 646 463 q 638 606 646 564 q 606 676 629 649 q 560 711 588 700 q 504 722 533 722 q 408 704 457 722 q 318 658 358 686 q 233 588 278 631 q 149 497 188 546 q 85 400 110 447 q 61 317 61 353 q 74 268 61 289 q 117 240 86 247 q 158 236 140 236 q 211 244 186 236 q 261 267 236 253 q 308 297 285 281 q 347 326 331 314 q 364 339 364 339 l 371 339 q 375 332 375 339 q 372 320 375 326 q 361 306 368 314 q 298 253 339 279 q 229 218 257 228 q 192 210 214 213 q 153 207 171 207 q 130 208 142 207 q 106 214 118 210 q 44 260 64 228 q 25 333 25 292 q 49 426 25 376 q 112 526 72 476 q 199 619 151 576 q 293 690 246 661 q 390 732 336 715 q 499 749 444 749 l 504 749 q 576 736 542 749 q 638 700 611 724 q 686 612 674 668 q 699 492 699 556 q 695 396 699 446 q 683 306 692 346 l 681 292 q 666 218 674 256 q 646 142 658 181 l 658 142 q 718 136 700 142 q 736 114 736 131 q 729 100 736 100 l 717 110 q 696 113 711 113 q 669 113 681 113 q 652 113 660 113 q 635 110 644 113 q 527 -116 593 -8 q 379 -308 461 -224 q 207 -440 297 -392 q 26 -487 117 -487 l 18 -487 m 33 -467 q 132 -444 82 -464 q 236 -382 182 -424 q 436 -167 349 -294 q 572 110 524 -40 q 440 78 517 101 q 276 17 363 56 q 143 -53 196 -18 q 49 -125 90 -89 q -51 -235 -15 -181 q -94 -342 -87 -289 q -96 -353 -96 -350 q -96 -360 -96 -357 q -87 -403 -96 -387 q -64 -432 -78 -418 q -25 -457 -49 -446 q 33 -467 -1 -468 z "},"Ĵ":{"ha":751,"x_min":-140,"x_max":736,"o":"m 18 -487 q -99 -450 -54 -487 q -140 -357 -140 -414 l -140 -340 q 135 -29 -121 -178 q 362 78 244 36 q 581 138 479 119 q 606 226 596 186 q 622 306 615 267 q 638 406 629 350 q 646 517 646 463 q 638 606 646 564 q 606 676 629 649 q 560 711 588 700 q 504 722 533 722 q 408 704 457 722 q 318 658 358 686 q 233 588 278 631 q 149 497 188 546 q 85 400 110 447 q 61 317 61 353 q 74 268 61 289 q 117 240 86 247 q 158 236 140 236 q 211 244 186 236 q 261 267 236 253 q 308 297 285 281 q 347 326 331 314 q 364 339 364 339 l 371 339 q 375 332 375 339 q 372 320 375 326 q 361 306 368 314 q 298 253 339 279 q 229 218 257 228 q 192 210 214 213 q 153 207 171 207 q 130 208 142 207 q 106 214 118 210 q 44 260 64 228 q 25 333 25 292 q 49 426 25 376 q 112 526 72 476 q 199 619 151 576 q 293 690 246 661 q 390 732 336 715 q 499 749 444 749 l 504 749 q 576 736 542 749 q 638 700 611 724 q 686 612 674 668 q 699 492 699 556 q 695 396 699 446 q 683 306 692 346 l 681 292 q 666 218 674 256 q 646 142 658 181 l 658 142 q 718 136 700 142 q 736 114 736 131 q 729 100 736 100 l 717 110 q 696 113 711 113 q 669 113 681 113 q 652 113 660 113 q 635 110 644 113 q 527 -116 593 -8 q 379 -308 461 -224 q 207 -440 297 -392 q 26 -487 117 -487 l 18 -487 m 33 -467 q 132 -444 82 -464 q 236 -382 182 -424 q 436 -167 349 -294 q 572 110 524 -40 q 440 78 517 101 q 276 17 363 56 q 143 -53 196 -18 q 49 -125 90 -89 q -51 -235 -15 -181 q -94 -342 -87 -289 q -96 -353 -96 -350 q -96 -360 -96 -357 q -87 -403 -96 -387 q -64 -432 -78 -418 q -25 -457 -49 -446 q 33 -467 -1 -468 m 375 801 q 367 808 367 801 q 376 822 367 815 q 451 874 417 850 q 528 924 486 897 q 560 939 551 939 q 578 925 571 939 q 604 876 593 899 q 625 831 615 853 q 631 810 631 818 q 619 799 631 799 q 608 804 614 799 q 594 817 601 810 q 562 854 579 835 q 536 882 544 874 q 499 862 524 875 q 447 835 474 849 q 400 811 421 821 q 375 801 379 801 z "},"K":{"ha":1015,"x_min":-42,"x_max":1043,"o":"m 115 -87 q 8 -58 50 -87 q -42 36 -42 -25 q 90 251 -42 132 q 313 367 218 367 q 325 357 325 367 q 304 342 325 349 q 57 165 149 282 q 1 26 1 96 q 101 -61 1 -61 q 375 72 240 -61 q 474 189 428 125 q 558 326 519 253 q 493 442 493 421 q 501 483 493 457 q 519 513 510 513 q 526 506 524 513 q 556 440 540 472 q 585 381 571 407 q 654 654 654 549 q 614 721 654 721 q 568 706 596 721 q 539 690 540 690 q 529 703 529 690 q 576 740 529 721 q 613 752 596 749 q 642 756 629 756 q 713 654 713 756 q 631 349 713 532 q 996 632 917 481 q 1003 649 997 635 q 1014 678 1010 664 q 1028 692 1018 692 q 1043 671 1043 692 q 936 494 1043 582 q 624 317 829 406 q 694 224 653 274 q 772 135 735 175 q 954 6 896 6 q 986 40 986 6 q 985 51 986 44 q 983 64 985 57 q 979 85 979 83 q 990 97 979 97 q 1014 42 1014 97 q 996 -7 1014 11 q 950 -26 976 -26 q 754 94 878 -26 q 673 181 711 138 q 594 278 635 225 q 503 144 553 206 q 397 33 454 82 q 115 -87 256 -87 z "},"Ķ":{"ha":1015,"x_min":-42,"x_max":1043,"o":"m 115 -87 q 8 -58 50 -87 q -42 36 -42 -25 q 90 251 -42 132 q 313 367 218 367 q 325 357 325 367 q 304 342 325 349 q 57 165 149 282 q 1 26 1 96 q 101 -61 1 -61 q 375 72 240 -61 q 474 189 428 125 q 558 326 519 253 q 493 442 493 421 q 501 483 493 457 q 519 513 510 513 q 526 506 524 513 q 556 440 540 472 q 585 381 571 407 q 654 654 654 549 q 614 721 654 721 q 568 706 596 721 q 539 690 540 690 q 529 703 529 690 q 576 740 529 721 q 613 752 596 749 q 642 756 629 756 q 713 654 713 756 q 631 349 713 532 q 996 632 917 481 q 1003 649 997 635 q 1014 678 1010 664 q 1028 692 1018 692 q 1043 671 1043 692 q 936 494 1043 582 q 624 317 829 406 q 694 224 653 274 q 772 135 735 175 q 954 6 896 6 q 986 40 986 6 q 985 51 986 44 q 983 64 985 57 q 979 85 979 83 q 990 97 979 97 q 1014 42 1014 97 q 996 -7 1014 11 q 950 -26 976 -26 q 754 94 878 -26 q 673 181 711 138 q 594 278 635 225 q 503 144 553 206 q 397 33 454 82 q 115 -87 256 -87 m 506 -242 q 503 -240 503 -242 q 506 -233 503 -237 q 511 -226 510 -228 q 523 -212 511 -226 q 549 -179 535 -199 q 567 -144 564 -160 q 546 -119 546 -140 q 556 -92 546 -106 q 582 -79 567 -79 q 603 -88 596 -79 q 610 -108 610 -97 q 568 -189 610 -136 q 517 -237 536 -229 q 506 -242 511 -242 z "},"L":{"ha":810,"x_min":-111,"x_max":796,"o":"m 578 -78 q 257 15 438 -78 q 104 -36 176 -36 q -46 21 19 -36 q -111 163 -111 79 q -93 236 -111 206 q -32 275 -71 275 q 113 179 8 275 q 210 92 171 126 q 256 53 250 57 q 396 342 326 143 q 334 327 364 332 q 276 322 304 322 q 172 340 213 322 q 115 419 115 365 q 218 535 115 478 q 374 586 311 586 q 389 574 389 586 q 374 561 389 565 l 324 547 q 156 422 156 492 q 279 357 156 357 q 342 363 310 357 q 410 379 375 368 q 426 426 415 393 q 450 493 438 460 q 469 540 463 526 q 514 622 490 586 q 560 685 538 658 q 699 774 636 774 q 786 699 786 774 q 696 524 786 618 q 621 454 661 488 q 535 397 581 421 l 450 354 q 411 250 425 285 q 383 186 397 215 q 336 98 360 135 q 289 38 313 61 q 348 12 313 25 q 426 -12 383 -1 q 510 -29 471 -24 q 576 -35 549 -35 q 693 -18 643 -35 q 764 57 764 6 q 744 94 764 75 q 724 121 724 114 q 735 132 724 132 q 746 128 740 132 q 796 47 796 93 q 717 -54 796 -21 q 652 -72 686 -67 q 578 -78 618 -78 m 472 408 q 639 538 538 433 q 749 707 749 649 q 725 735 749 735 q 703 731 715 735 q 472 408 578 686 m 100 -1 q 214 31 158 -1 l 76 139 q -47 226 -33 226 q -78 171 -78 226 q -22 51 -78 103 q 100 -1 35 -1 z "},"Ǉ":{"ha":1561,"x_min":-111,"x_max":1546,"o":"m 578 -78 q 257 15 438 -78 q 104 -36 176 -36 q -46 21 19 -36 q -111 163 -111 79 q -93 236 -111 206 q -32 275 -71 275 q 113 179 8 275 q 210 92 171 126 q 256 53 250 57 q 396 342 326 143 q 334 327 364 332 q 276 322 304 322 q 172 340 213 322 q 115 419 115 365 q 218 535 115 478 q 374 586 311 586 q 389 574 389 586 q 374 561 389 565 l 324 547 q 156 422 156 492 q 279 357 156 357 q 342 363 310 357 q 410 379 375 368 q 426 426 415 393 q 450 493 438 460 q 469 540 463 526 q 514 622 490 586 q 560 685 538 658 q 699 774 636 774 q 786 699 786 774 q 696 524 786 618 q 621 454 661 488 q 535 397 581 421 l 450 354 q 411 250 425 285 q 383 186 397 215 q 336 98 360 135 q 289 38 313 61 q 348 12 313 25 q 426 -12 383 -1 q 510 -29 471 -24 q 576 -35 549 -35 q 693 -18 643 -35 q 764 57 764 6 q 744 94 764 75 q 724 121 724 114 q 735 132 724 132 q 746 128 740 132 q 796 47 796 93 q 717 -54 796 -21 q 652 -72 686 -67 q 578 -78 618 -78 m 472 408 q 639 538 538 433 q 749 707 749 649 q 725 735 749 735 q 703 731 715 735 q 472 408 578 686 m 100 -1 q 214 31 158 -1 l 76 139 q -47 226 -33 226 q -78 171 -78 226 q -22 51 -78 103 q 100 -1 35 -1 m 828 -487 q 711 -450 756 -487 q 669 -357 669 -414 l 669 -340 q 944 -29 689 -178 q 1172 78 1054 36 q 1390 138 1289 119 q 1415 226 1406 186 q 1432 306 1425 267 q 1447 406 1439 350 q 1456 517 1456 463 q 1447 606 1456 564 q 1415 676 1439 649 q 1370 711 1397 700 q 1314 722 1343 722 q 1217 704 1267 722 q 1128 658 1168 686 q 1042 588 1088 631 q 958 497 997 546 q 895 400 919 447 q 871 317 871 353 q 883 268 871 289 q 926 240 896 247 q 968 236 950 236 q 1021 244 996 236 q 1071 267 1046 253 q 1117 297 1094 281 q 1157 326 1140 314 q 1174 339 1174 339 l 1181 339 q 1185 332 1185 339 q 1181 320 1185 326 q 1171 306 1178 314 q 1108 253 1149 279 q 1039 218 1067 228 q 1002 210 1024 213 q 963 207 981 207 q 940 208 951 207 q 915 214 928 210 q 854 260 874 228 q 835 333 835 292 q 858 426 835 376 q 922 526 882 476 q 1008 619 961 576 q 1103 690 1056 661 q 1200 732 1146 715 q 1308 749 1254 749 l 1314 749 q 1386 736 1351 749 q 1447 700 1421 724 q 1496 612 1483 668 q 1508 492 1508 556 q 1505 396 1508 446 q 1493 306 1501 346 l 1490 292 q 1476 218 1483 256 q 1456 142 1468 181 l 1468 142 q 1528 136 1510 142 q 1546 114 1546 131 q 1539 100 1546 100 l 1526 110 q 1506 113 1521 113 q 1479 113 1490 113 q 1462 113 1469 113 q 1444 110 1454 113 q 1337 -116 1403 -8 q 1189 -308 1271 -224 q 1017 -440 1107 -392 q 836 -487 926 -487 l 828 -487 m 843 -467 q 942 -444 892 -464 q 1046 -382 992 -424 q 1246 -167 1158 -294 q 1382 110 1333 -40 q 1249 78 1326 101 q 1086 17 1172 56 q 953 -53 1006 -18 q 858 -125 900 -89 q 758 -235 794 -181 q 715 -342 722 -289 q 714 -353 714 -350 q 714 -360 714 -357 q 723 -403 714 -387 q 746 -432 732 -418 q 785 -457 761 -446 q 843 -467 808 -468 z "},"Ĺ":{"ha":810,"x_min":-111,"x_max":807,"o":"m 578 -78 q 257 15 438 -78 q 104 -36 176 -36 q -46 21 19 -36 q -111 163 -111 79 q -93 236 -111 206 q -32 275 -71 275 q 113 179 8 275 q 210 92 171 126 q 256 53 250 57 q 396 342 326 143 q 334 327 364 332 q 276 322 304 322 q 172 340 213 322 q 115 419 115 365 q 218 535 115 478 q 374 586 311 586 q 389 574 389 586 q 374 561 389 565 l 324 547 q 156 422 156 492 q 279 357 156 357 q 342 363 310 357 q 410 379 375 368 q 426 426 415 393 q 450 493 438 460 q 469 540 463 526 q 514 622 490 586 q 560 685 538 658 q 699 774 636 774 q 786 699 786 774 q 696 524 786 618 q 621 454 661 488 q 535 397 581 421 l 450 354 q 411 250 425 285 q 383 186 397 215 q 336 98 360 135 q 289 38 313 61 q 348 12 313 25 q 426 -12 383 -1 q 510 -29 471 -24 q 576 -35 549 -35 q 693 -18 643 -35 q 764 57 764 6 q 744 94 764 75 q 724 121 724 114 q 735 132 724 132 q 746 128 740 132 q 796 47 796 93 q 717 -54 796 -21 q 652 -72 686 -67 q 578 -78 618 -78 m 472 408 q 639 538 538 433 q 749 707 749 649 q 725 735 749 735 q 703 731 715 735 q 472 408 578 686 m 100 -1 q 214 31 158 -1 l 76 139 q -47 226 -33 226 q -78 171 -78 226 q -22 51 -78 103 q 100 -1 35 -1 m 613 797 q 606 803 606 797 q 610 811 606 807 q 686 869 639 836 q 771 925 733 901 q 786 932 779 931 q 796 933 793 933 q 803 928 799 933 q 807 908 807 924 q 802 893 807 900 q 794 883 797 886 q 764 867 790 881 q 705 838 738 854 q 645 809 672 821 q 613 797 618 797 z "},"Ľ":{"ha":810,"x_min":-111,"x_max":942,"o":"m 578 -78 q 257 15 438 -78 q 104 -36 176 -36 q -46 21 19 -36 q -111 163 -111 79 q -93 236 -111 206 q -32 275 -71 275 q 113 179 8 275 q 210 92 171 126 q 256 53 250 57 q 396 342 326 143 q 334 327 364 332 q 276 322 304 322 q 172 340 213 322 q 115 419 115 365 q 218 535 115 478 q 374 586 311 586 q 389 574 389 586 q 374 561 389 565 l 324 547 q 156 422 156 492 q 279 357 156 357 q 342 363 310 357 q 410 379 375 368 q 426 426 415 393 q 450 493 438 460 q 469 540 463 526 q 514 622 490 586 q 560 685 538 658 q 699 774 636 774 q 786 699 786 774 q 696 524 786 618 q 621 454 661 488 q 535 397 581 421 l 450 354 q 411 250 425 285 q 383 186 397 215 q 336 98 360 135 q 289 38 313 61 q 348 12 313 25 q 426 -12 383 -1 q 510 -29 471 -24 q 576 -35 549 -35 q 693 -18 643 -35 q 764 57 764 6 q 744 94 764 75 q 724 121 724 114 q 735 132 724 132 q 746 128 740 132 q 796 47 796 93 q 717 -54 796 -21 q 652 -72 686 -67 q 578 -78 618 -78 m 472 408 q 639 538 538 433 q 749 707 749 649 q 725 735 749 735 q 703 731 715 735 q 472 408 578 686 m 100 -1 q 214 31 158 -1 l 76 139 q -47 226 -33 226 q -78 171 -78 226 q -22 51 -78 103 q 100 -1 35 -1 m 849 581 q 847 581 847 581 q 847 582 847 582 q 854 596 847 589 q 872 624 864 607 q 896 697 879 642 q 879 706 885 697 q 874 728 874 715 q 883 754 874 743 q 910 765 893 765 q 935 756 928 765 q 942 731 942 746 q 933 692 942 717 q 911 642 925 668 q 881 599 897 617 q 849 581 864 581 z "},"Ļ":{"ha":810,"x_min":-111,"x_max":796,"o":"m 578 -78 q 257 15 438 -78 q 104 -36 176 -36 q -46 21 19 -36 q -111 163 -111 79 q -93 236 -111 206 q -32 275 -71 275 q 113 179 8 275 q 210 92 171 126 q 256 53 250 57 q 396 342 326 143 q 334 327 364 332 q 276 322 304 322 q 172 340 213 322 q 115 419 115 365 q 218 535 115 478 q 374 586 311 586 q 389 574 389 586 q 374 561 389 565 l 324 547 q 156 422 156 492 q 279 357 156 357 q 342 363 310 357 q 410 379 375 368 q 426 426 415 393 q 450 493 438 460 q 469 540 463 526 q 514 622 490 586 q 560 685 538 658 q 699 774 636 774 q 786 699 786 774 q 696 524 786 618 q 621 454 661 488 q 535 397 581 421 l 450 354 q 411 250 425 285 q 383 186 397 215 q 336 98 360 135 q 289 38 313 61 q 348 12 313 25 q 426 -12 383 -1 q 510 -29 471 -24 q 576 -35 549 -35 q 693 -18 643 -35 q 764 57 764 6 q 744 94 764 75 q 724 121 724 114 q 735 132 724 132 q 746 128 740 132 q 796 47 796 93 q 717 -54 796 -21 q 652 -72 686 -67 q 578 -78 618 -78 m 472 408 q 639 538 538 433 q 749 707 749 649 q 725 735 749 735 q 703 731 715 735 q 472 408 578 686 m 100 -1 q 214 31 158 -1 l 76 139 q -47 226 -33 226 q -78 171 -78 226 q -22 51 -78 103 q 100 -1 35 -1 m 288 -289 q 285 -287 285 -289 q 288 -280 285 -285 q 293 -274 292 -275 q 305 -260 293 -274 q 331 -226 317 -246 q 349 -192 346 -207 q 328 -167 328 -187 q 338 -140 328 -153 q 364 -126 349 -126 q 385 -135 378 -126 q 392 -156 392 -144 q 350 -236 392 -183 q 299 -285 318 -276 q 288 -289 293 -289 z "},"Ŀ":{"ha":935,"x_min":-111,"x_max":796,"o":"m 578 -78 q 257 15 438 -78 q 104 -36 176 -36 q -46 21 19 -36 q -111 163 -111 79 q -93 236 -111 206 q -32 275 -71 275 q 113 179 8 275 q 210 92 171 126 q 256 53 250 57 q 396 342 326 143 q 334 327 364 332 q 276 322 304 322 q 172 340 213 322 q 115 419 115 365 q 218 535 115 478 q 374 586 311 586 q 389 574 389 586 q 374 561 389 565 l 324 547 q 156 422 156 492 q 279 357 156 357 q 342 363 310 357 q 410 379 375 368 q 426 426 415 393 q 450 493 438 460 q 469 540 463 526 q 514 622 490 586 q 560 685 538 658 q 699 774 636 774 q 786 699 786 774 q 696 524 786 618 q 621 454 661 488 q 535 397 581 421 l 450 354 q 411 250 425 285 q 383 186 397 215 q 336 98 360 135 q 289 38 313 61 q 348 12 313 25 q 426 -12 383 -1 q 510 -29 471 -24 q 576 -35 549 -35 q 693 -18 643 -35 q 764 57 764 6 q 744 94 764 75 q 724 121 724 114 q 735 132 724 132 q 746 128 740 132 q 796 47 796 93 q 717 -54 796 -21 q 652 -72 686 -67 q 578 -78 618 -78 m 472 408 q 639 538 538 433 q 749 707 749 649 q 725 735 749 735 q 703 731 715 735 q 472 408 578 686 m 100 -1 q 214 31 158 -1 l 76 139 q -47 226 -33 226 q -78 171 -78 226 q -22 51 -78 103 q 100 -1 35 -1 m 676 146 q 642 179 642 146 q 676 213 642 213 q 711 179 711 213 q 676 146 711 146 z "},"ǈ":{"ha":1029,"x_min":-111,"x_max":1024,"o":"m 578 -78 q 257 15 438 -78 q 104 -36 176 -36 q -46 21 19 -36 q -111 163 -111 79 q -93 236 -111 206 q -32 275 -71 275 q 113 179 8 275 q 210 92 171 126 q 256 53 250 57 q 396 342 326 143 q 334 327 364 332 q 276 322 304 322 q 172 340 213 322 q 115 419 115 365 q 218 535 115 478 q 374 586 311 586 q 389 574 389 586 q 374 561 389 565 l 324 547 q 156 422 156 492 q 279 357 156 357 q 342 363 310 357 q 410 379 375 368 q 426 426 415 393 q 450 493 438 460 q 469 540 463 526 q 514 622 490 586 q 560 685 538 658 q 699 774 636 774 q 786 699 786 774 q 696 524 786 618 q 621 454 661 488 q 535 397 581 421 l 450 354 q 411 250 425 285 q 383 186 397 215 q 336 98 360 135 q 289 38 313 61 q 348 12 313 25 q 426 -12 383 -1 q 510 -29 471 -24 q 576 -35 549 -35 q 693 -18 643 -35 q 764 57 764 6 q 744 94 764 75 q 724 121 724 114 q 735 132 724 132 q 746 128 740 132 q 796 47 796 93 q 717 -54 796 -21 q 652 -72 686 -67 q 578 -78 618 -78 m 472 408 q 639 538 538 433 q 749 707 749 649 q 725 735 749 735 q 703 731 715 735 q 472 408 578 686 m 100 -1 q 214 31 158 -1 l 76 139 q -47 226 -33 226 q -78 171 -78 226 q -22 51 -78 103 q 100 -1 35 -1 m 979 417 q 946 450 946 417 q 958 479 946 467 q 989 493 972 493 q 1022 460 1022 493 q 1010 431 1022 443 q 979 417 996 417 m 451 -564 q 346 -529 386 -564 q 304 -431 304 -493 q 529 -140 304 -282 q 890 6 719 -21 q 910 84 900 32 q 929 196 919 136 q 901 154 917 175 q 875 119 886 133 q 858 108 864 108 q 851 115 851 108 q 857 129 851 122 q 912 217 890 175 q 939 294 933 260 q 979 321 943 321 q 1003 306 1003 321 q 986 188 1003 274 q 965 95 976 138 q 942 7 953 53 q 966 6 951 7 q 992 1 981 4 q 1024 -19 1024 -6 q 1014 -29 1024 -29 q 1006 -26 1011 -29 q 963 -19 992 -19 q 951 -19 957 -19 q 939 -21 944 -19 q 869 -204 907 -125 q 786 -344 831 -283 q 451 -564 621 -564 m 458 -544 q 633 -472 544 -544 q 701 -405 668 -444 q 760 -326 735 -365 q 888 -19 842 -200 q 785 -46 840 -26 q 664 -99 731 -65 q 547 -162 599 -131 q 461 -226 496 -194 q 343 -435 343 -332 q 375 -515 343 -486 q 458 -544 407 -544 z "},"Ł":{"ha":935,"x_min":-111,"x_max":796,"o":"m 407 179 q 378 182 381 174 q 418 226 374 200 q 478 247 439 240 q 533 257 501 253 q 607 264 565 261 q 635 264 628 265 q 644 258 643 263 q 611 239 646 249 q 581 231 606 238 q 539 219 557 225 q 488 201 517 213 q 414 181 458 190 l 407 179 m 578 -78 q 257 15 438 -78 q 104 -36 176 -36 q -46 21 19 -36 q -111 163 -111 79 q -93 236 -111 206 q -32 275 -71 275 q 113 179 8 275 q 210 92 171 126 q 256 53 250 57 q 396 342 326 143 q 334 327 364 332 q 276 322 304 322 q 172 340 213 322 q 115 419 115 365 q 218 535 115 478 q 374 586 311 586 q 389 574 389 586 q 374 561 389 565 l 324 547 q 156 422 156 492 q 279 357 156 357 q 342 363 310 357 q 410 379 375 368 q 426 426 415 393 q 450 493 438 460 q 469 540 463 526 q 514 622 490 586 q 560 685 538 658 q 699 774 636 774 q 786 699 786 774 q 696 524 786 618 q 621 454 661 488 q 535 397 581 421 l 450 354 q 411 250 425 285 q 383 186 397 215 q 336 98 360 135 q 289 38 313 61 q 348 12 313 25 q 426 -12 383 -1 q 510 -29 471 -24 q 576 -35 549 -35 q 693 -18 643 -35 q 764 57 764 6 q 744 94 764 75 q 724 121 724 114 q 735 132 724 132 q 746 128 740 132 q 796 47 796 93 q 717 -54 796 -21 q 652 -72 686 -67 q 578 -78 618 -78 m 472 408 q 639 538 538 433 q 749 707 749 649 q 725 735 749 735 q 703 731 715 735 q 472 408 578 686 m 100 -1 q 214 31 158 -1 l 76 139 q -47 226 -33 226 q -78 171 -78 226 q -22 51 -78 103 q 100 -1 35 -1 z "},"M":{"ha":1547,"x_min":-71,"x_max":1529,"o":"m 1388 -100 q 1308 -7 1308 -100 q 1342 156 1308 54 q 1373 241 1354 193 q 1418 344 1392 289 q 1440 390 1432 374 q 1453 420 1447 406 q 1468 458 1460 435 q 1478 491 1475 478 q 1481 514 1481 504 q 1471 529 1481 529 q 1218 331 1400 529 q 1099 193 1154 260 q 999 61 1043 126 l 953 -8 q 944 -24 950 -15 q 931 -42 938 -32 q 919 -43 926 -43 q 878 -10 878 -43 q 882 4 878 -1 q 896 30 883 7 q 935 110 908 53 q 1075 529 1075 403 q 1039 588 1075 588 q 844 439 981 588 q 694 254 765 351 q 556 46 622 157 l 525 -6 q 489 -51 503 -42 q 457 -21 457 -51 q 463 -4 457 -10 q 628 290 538 88 q 701 478 676 399 q 725 610 725 558 q 572 749 725 749 q 483 739 532 749 q 378 708 435 729 q 300 678 336 694 q 222 638 264 661 q 71 540 140 593 q -35 406 -35 460 q 117 328 -35 328 q 156 330 132 328 q 206 336 179 332 q 296 346 268 346 q 307 340 307 346 q 300 331 307 335 q 143 297 253 297 q 7 319 61 297 q -71 418 -71 351 q 33 574 -71 490 q 110 628 69 603 q 201 678 150 653 q 281 713 243 697 q 369 743 318 728 q 485 771 431 763 q 588 779 540 779 q 790 625 790 779 q 690 307 790 501 q 772 405 731 354 q 849 497 813 456 q 954 594 907 563 q 1036 626 1001 626 q 1119 501 1119 626 q 1035 188 1119 392 q 1133 293 1083 242 q 1236 396 1182 344 q 1456 564 1389 543 q 1486 569 1472 569 q 1529 514 1529 569 q 1501 401 1529 469 q 1458 295 1478 342 q 1414 190 1438 249 q 1372 65 1385 118 q 1358 -21 1358 11 q 1396 -71 1358 -71 q 1449 -47 1415 -71 q 1488 -24 1483 -24 q 1493 -31 1493 -24 q 1456 -79 1493 -58 q 1388 -100 1417 -100 z "},"N":{"ha":1228,"x_min":10,"x_max":1218,"o":"m 569 -51 q 539 -21 539 -51 q 543 -4 539 -10 q 621 113 579 40 q 713 297 663 186 q 813 622 813 521 q 635 772 813 772 q 442 735 550 772 q 320 685 379 714 q 200 613 261 656 q 46 410 46 507 q 153 331 46 331 q 307 358 207 331 q 316 360 313 360 q 321 361 319 361 q 332 353 332 361 q 260 313 332 329 q 208 303 232 307 q 165 299 185 299 q 10 421 10 299 q 168 644 10 535 q 429 771 290 728 q 643 806 543 806 q 872 625 872 806 q 771 307 872 497 q 852 405 811 354 q 929 497 893 456 q 1035 594 988 563 q 1117 626 1082 626 q 1218 529 1218 626 q 1138 271 1218 446 q 1057 43 1057 96 q 1096 1 1057 1 q 1150 25 1117 1 q 1189 49 1185 49 q 1194 42 1194 49 q 1157 -7 1194 14 q 1088 -28 1118 -28 q 1014 50 1014 -28 q 1056 203 1014 107 l 1108 324 q 1135 390 1124 358 q 1153 449 1146 421 q 1169 538 1169 506 q 1135 586 1169 586 q 1092 575 1115 586 q 978 492 1042 553 q 840 339 914 432 q 733 197 785 269 q 638 46 682 124 q 610 3 628 29 q 569 -51 593 -22 z "},"Ǌ":{"ha":1979,"x_min":10,"x_max":1964,"o":"m 569 -51 q 539 -21 539 -51 q 543 -4 539 -10 q 621 113 579 40 q 713 297 663 186 q 813 622 813 521 q 635 772 813 772 q 442 735 550 772 q 320 685 379 714 q 200 613 261 656 q 46 410 46 507 q 153 331 46 331 q 307 358 207 331 q 316 360 313 360 q 321 361 319 361 q 332 353 332 361 q 260 313 332 329 q 208 303 232 307 q 165 299 185 299 q 10 421 10 299 q 168 644 10 535 q 429 771 290 728 q 643 806 543 806 q 872 625 872 806 q 771 307 872 497 q 852 405 811 354 q 929 497 893 456 q 1035 594 988 563 q 1117 626 1082 626 q 1218 529 1218 626 q 1138 271 1218 446 q 1057 43 1057 96 q 1096 1 1057 1 q 1150 25 1117 1 q 1189 49 1185 49 q 1194 42 1194 49 q 1157 -7 1194 14 q 1088 -28 1118 -28 q 1014 50 1014 -28 q 1056 203 1014 107 l 1108 324 q 1135 390 1124 358 q 1153 449 1146 421 q 1169 538 1169 506 q 1135 586 1169 586 q 1092 575 1115 586 q 978 492 1042 553 q 840 339 914 432 q 733 197 785 269 q 638 46 682 124 q 610 3 628 29 q 569 -51 593 -22 m 1246 -487 q 1129 -450 1174 -487 q 1088 -357 1088 -414 l 1088 -340 q 1363 -29 1107 -178 q 1590 78 1472 36 q 1808 138 1707 119 q 1833 226 1824 186 q 1850 306 1843 267 q 1865 406 1857 350 q 1874 517 1874 463 q 1865 606 1874 564 q 1833 676 1857 649 q 1788 711 1815 700 q 1732 722 1761 722 q 1635 704 1685 722 q 1546 658 1586 686 q 1460 588 1506 631 q 1376 497 1415 546 q 1313 400 1338 447 q 1289 317 1289 353 q 1301 268 1289 289 q 1344 240 1314 247 q 1386 236 1368 236 q 1439 244 1414 236 q 1489 267 1464 253 q 1535 297 1513 281 q 1575 326 1558 314 q 1592 339 1592 339 l 1599 339 q 1603 332 1603 339 q 1599 320 1603 326 q 1589 306 1596 314 q 1526 253 1567 279 q 1457 218 1485 228 q 1420 210 1442 213 q 1381 207 1399 207 q 1358 208 1369 207 q 1333 214 1346 210 q 1272 260 1292 228 q 1253 333 1253 292 q 1276 426 1253 376 q 1340 526 1300 476 q 1426 619 1379 576 q 1521 690 1474 661 q 1618 732 1564 715 q 1726 749 1672 749 l 1732 749 q 1804 736 1769 749 q 1865 700 1839 724 q 1914 612 1901 668 q 1926 492 1926 556 q 1923 396 1926 446 q 1911 306 1919 346 l 1908 292 q 1894 218 1901 256 q 1874 142 1886 181 l 1886 142 q 1946 136 1928 142 q 1964 114 1964 131 q 1957 100 1964 100 l 1944 110 q 1924 113 1939 113 q 1897 113 1908 113 q 1880 113 1888 113 q 1863 110 1872 113 q 1755 -116 1821 -8 q 1607 -308 1689 -224 q 1435 -440 1525 -392 q 1254 -487 1344 -487 l 1246 -487 m 1261 -467 q 1360 -444 1310 -464 q 1464 -382 1410 -424 q 1664 -167 1576 -294 q 1800 110 1751 -40 q 1667 78 1744 101 q 1504 17 1590 56 q 1371 -53 1424 -18 q 1276 -125 1318 -89 q 1176 -235 1213 -181 q 1133 -342 1140 -289 q 1132 -353 1132 -350 q 1132 -360 1132 -357 q 1141 -403 1132 -387 q 1164 -432 1150 -418 q 1203 -457 1179 -446 q 1261 -467 1226 -468 z "},"Ń":{"ha":1228,"x_min":10,"x_max":1229,"o":"m 569 -51 q 539 -21 539 -51 q 543 -4 539 -10 q 621 113 579 40 q 713 297 663 186 q 813 622 813 521 q 635 772 813 772 q 442 735 550 772 q 320 685 379 714 q 200 613 261 656 q 46 410 46 507 q 153 331 46 331 q 307 358 207 331 q 316 360 313 360 q 321 361 319 361 q 332 353 332 361 q 260 313 332 329 q 208 303 232 307 q 165 299 185 299 q 10 421 10 299 q 168 644 10 535 q 429 771 290 728 q 643 806 543 806 q 872 625 872 806 q 771 307 872 497 q 852 405 811 354 q 929 497 893 456 q 1035 594 988 563 q 1117 626 1082 626 q 1218 529 1218 626 q 1138 271 1218 446 q 1057 43 1057 96 q 1096 1 1057 1 q 1150 25 1117 1 q 1189 49 1185 49 q 1194 42 1194 49 q 1157 -7 1194 14 q 1088 -28 1118 -28 q 1014 50 1014 -28 q 1056 203 1014 107 l 1108 324 q 1135 390 1124 358 q 1153 449 1146 421 q 1169 538 1169 506 q 1135 586 1169 586 q 1092 575 1115 586 q 978 492 1042 553 q 840 339 914 432 q 733 197 785 269 q 638 46 682 124 q 610 3 628 29 q 569 -51 593 -22 m 1075 682 q 1067 688 1067 682 q 1071 696 1067 692 q 1192 799 1124 749 q 1207 808 1200 806 q 1217 810 1214 810 q 1224 807 1219 810 q 1229 788 1229 804 q 1225 775 1229 781 q 1218 767 1221 769 q 1194 751 1214 764 q 1148 722 1174 738 q 1101 694 1122 706 q 1075 682 1081 682 z "},"Ň":{"ha":1228,"x_min":10,"x_max":1303,"o":"m 1294 819 q 1303 813 1303 819 q 1293 799 1303 806 q 1218 748 1253 771 q 1142 697 1183 725 q 1110 682 1119 682 q 1092 696 1099 682 q 1066 746 1078 724 q 1044 790 1054 768 q 1039 811 1039 803 q 1050 822 1039 822 q 1063 817 1056 822 q 1075 804 1069 811 q 1108 767 1090 786 q 1133 739 1125 747 q 1171 759 1146 746 q 1222 786 1196 772 q 1269 810 1249 800 q 1294 819 1290 819 m 569 -51 q 539 -21 539 -51 q 543 -4 539 -10 q 621 113 579 40 q 713 297 663 186 q 813 622 813 521 q 635 772 813 772 q 442 735 550 772 q 320 685 379 714 q 200 613 261 656 q 46 410 46 507 q 153 331 46 331 q 307 358 207 331 q 316 360 313 360 q 321 361 319 361 q 332 353 332 361 q 260 313 332 329 q 208 303 232 307 q 165 299 185 299 q 10 421 10 299 q 168 644 10 535 q 429 771 290 728 q 643 806 543 806 q 872 625 872 806 q 771 307 872 497 q 852 405 811 354 q 929 497 893 456 q 1035 594 988 563 q 1117 626 1082 626 q 1218 529 1218 626 q 1138 271 1218 446 q 1057 43 1057 96 q 1096 1 1057 1 q 1150 25 1117 1 q 1189 49 1185 49 q 1194 42 1194 49 q 1157 -7 1194 14 q 1088 -28 1118 -28 q 1014 50 1014 -28 q 1056 203 1014 107 l 1108 324 q 1135 390 1124 358 q 1153 449 1146 421 q 1169 538 1169 506 q 1135 586 1169 586 q 1092 575 1115 586 q 978 492 1042 553 q 840 339 914 432 q 733 197 785 269 q 638 46 682 124 q 610 3 628 29 q 569 -51 593 -22 z "},"Ņ":{"ha":1228,"x_min":10,"x_max":1218,"o":"m 569 -51 q 539 -21 539 -51 q 543 -4 539 -10 q 621 113 579 40 q 713 297 663 186 q 813 622 813 521 q 635 772 813 772 q 442 735 550 772 q 320 685 379 714 q 200 613 261 656 q 46 410 46 507 q 153 331 46 331 q 307 358 207 331 q 316 360 313 360 q 321 361 319 361 q 332 353 332 361 q 260 313 332 329 q 208 303 232 307 q 165 299 185 299 q 10 421 10 299 q 168 644 10 535 q 429 771 290 728 q 643 806 543 806 q 872 625 872 806 q 771 307 872 497 q 852 405 811 354 q 929 497 893 456 q 1035 594 988 563 q 1117 626 1082 626 q 1218 529 1218 626 q 1138 271 1218 446 q 1057 43 1057 96 q 1096 1 1057 1 q 1150 25 1117 1 q 1189 49 1185 49 q 1194 42 1194 49 q 1157 -7 1194 14 q 1088 -28 1118 -28 q 1014 50 1014 -28 q 1056 203 1014 107 l 1108 324 q 1135 390 1124 358 q 1153 449 1146 421 q 1169 538 1169 506 q 1135 586 1169 586 q 1092 575 1115 586 q 978 492 1042 553 q 840 339 914 432 q 733 197 785 269 q 638 46 682 124 q 610 3 628 29 q 569 -51 593 -22 m 749 -242 q 746 -240 746 -242 q 749 -233 746 -237 q 754 -226 753 -228 q 766 -212 754 -226 q 792 -179 778 -199 q 810 -144 807 -160 q 789 -119 789 -140 q 799 -92 789 -106 q 825 -79 810 -79 q 846 -88 839 -79 q 853 -108 853 -97 q 811 -189 853 -136 q 760 -237 779 -229 q 749 -242 754 -242 z "},"ǋ":{"ha":1447,"x_min":10,"x_max":1442,"o":"m 569 -51 q 539 -21 539 -51 q 543 -4 539 -10 q 621 113 579 40 q 713 297 663 186 q 813 622 813 521 q 635 772 813 772 q 442 735 550 772 q 320 685 379 714 q 200 613 261 656 q 46 410 46 507 q 153 331 46 331 q 307 358 207 331 q 316 360 313 360 q 321 361 319 361 q 332 353 332 361 q 260 313 332 329 q 208 303 232 307 q 165 299 185 299 q 10 421 10 299 q 168 644 10 535 q 429 771 290 728 q 643 806 543 806 q 872 625 872 806 q 771 307 872 497 q 852 405 811 354 q 929 497 893 456 q 1035 594 988 563 q 1117 626 1082 626 q 1218 529 1218 626 q 1138 271 1218 446 q 1057 43 1057 96 q 1096 1 1057 1 q 1150 25 1117 1 q 1189 49 1185 49 q 1194 42 1194 49 q 1157 -7 1194 14 q 1088 -28 1118 -28 q 1014 50 1014 -28 q 1056 203 1014 107 l 1108 324 q 1135 390 1124 358 q 1153 449 1146 421 q 1169 538 1169 506 q 1135 586 1169 586 q 1092 575 1115 586 q 978 492 1042 553 q 840 339 914 432 q 733 197 785 269 q 638 46 682 124 q 610 3 628 29 q 569 -51 593 -22 m 1397 417 q 1364 450 1364 417 q 1376 479 1364 467 q 1407 493 1390 493 q 1440 460 1440 493 q 1428 431 1440 443 q 1397 417 1414 417 m 869 -564 q 764 -529 804 -564 q 722 -431 722 -493 q 947 -140 722 -282 q 1308 6 1138 -21 q 1328 84 1318 32 q 1347 196 1338 136 q 1319 154 1335 175 q 1293 119 1304 133 q 1276 108 1282 108 q 1269 115 1269 108 q 1275 129 1269 122 q 1330 217 1308 175 q 1357 294 1351 260 q 1397 321 1361 321 q 1421 306 1421 321 q 1404 188 1421 274 q 1383 95 1394 138 q 1360 7 1371 53 q 1384 6 1369 7 q 1410 1 1399 4 q 1442 -19 1442 -6 q 1432 -29 1442 -29 q 1424 -26 1429 -29 q 1381 -19 1410 -19 q 1369 -19 1375 -19 q 1357 -21 1363 -19 q 1287 -204 1325 -125 q 1204 -344 1249 -283 q 869 -564 1039 -564 m 876 -544 q 1051 -472 963 -544 q 1119 -405 1086 -444 q 1178 -326 1153 -365 q 1306 -19 1260 -200 q 1203 -46 1258 -26 q 1082 -99 1149 -65 q 965 -162 1017 -131 q 879 -226 914 -194 q 761 -435 761 -332 q 793 -515 761 -486 q 876 -544 825 -544 z "},"Ñ":{"ha":1228,"x_min":10,"x_max":1231,"o":"m 569 -51 q 539 -21 539 -51 q 543 -4 539 -10 q 621 113 579 40 q 713 297 663 186 q 813 622 813 521 q 635 772 813 772 q 442 735 550 772 q 320 685 379 714 q 200 613 261 656 q 46 410 46 507 q 153 331 46 331 q 307 358 207 331 q 316 360 313 360 q 321 361 319 361 q 332 353 332 361 q 260 313 332 329 q 208 303 232 307 q 165 299 185 299 q 10 421 10 299 q 168 644 10 535 q 429 771 290 728 q 643 806 543 806 q 872 625 872 806 q 771 307 872 497 q 852 405 811 354 q 929 497 893 456 q 1035 594 988 563 q 1117 626 1082 626 q 1218 529 1218 626 q 1138 271 1218 446 q 1057 43 1057 96 q 1096 1 1057 1 q 1150 25 1117 1 q 1189 49 1185 49 q 1194 42 1194 49 q 1157 -7 1194 14 q 1088 -28 1118 -28 q 1014 50 1014 -28 q 1056 203 1014 107 l 1108 324 q 1135 390 1124 358 q 1153 449 1146 421 q 1169 538 1169 506 q 1135 586 1169 586 q 1092 575 1115 586 q 978 492 1042 553 q 840 339 914 432 q 733 197 785 269 q 638 46 682 124 q 610 3 628 29 q 569 -51 593 -22 m 1031 692 q 1024 697 1024 692 q 1043 743 1024 728 q 1089 758 1063 758 q 1136 747 1111 758 q 1179 735 1161 735 q 1221 763 1206 735 q 1229 757 1229 763 q 1211 711 1231 726 q 1164 696 1192 696 q 1117 707 1142 696 q 1072 719 1090 719 q 1031 692 1046 719 z "},"O":{"ha":911,"x_min":-7,"x_max":967,"o":"m 246 -36 q 64 110 64 -36 q 85 207 64 156 q -7 342 -7 251 q 110 563 -7 461 q 336 690 203 643 q 625 743 482 743 q 851 693 760 743 q 967 506 967 628 q 889 296 967 407 q 606 58 788 150 q 246 -36 419 -36 m 257 -7 q 590 93 424 -7 q 846 331 746 186 q 921 526 921 439 q 832 672 921 625 q 654 711 763 711 q 357 649 515 711 q 149 533 236 600 q 25 343 25 439 q 97 236 25 261 q 178 351 129 293 q 289 467 228 410 q 533 633 418 585 q 588 652 563 644 q 633 660 613 660 l 636 660 q 653 647 653 660 q 632 629 653 633 q 538 597 583 621 q 422 519 490 572 q 349 459 388 493 q 271 383 311 425 q 189 289 218 329 q 153 222 160 249 q 204 217 176 217 q 453 333 328 217 q 492 369 481 360 q 501 379 503 379 q 511 368 511 379 q 448 296 482 326 q 374 242 414 265 q 194 189 283 189 q 167 191 181 189 q 143 196 154 193 q 119 110 119 149 q 160 24 119 56 q 257 -7 199 -7 z "},"Œ":{"ha":1378,"x_min":0,"x_max":1547,"o":"m 253 -36 q 71 110 71 -36 q 92 207 71 156 q 0 342 0 251 q 117 563 0 461 q 343 690 210 643 q 632 743 489 743 q 858 693 769 743 q 974 507 971 628 q 981 517 976 513 q 989 526 985 521 q 1087 633 1047 594 q 1144 682 1126 671 q 1390 719 1207 719 q 1477 716 1442 719 q 1532 704 1513 713 q 1547 686 1547 697 q 1515 669 1547 669 q 1421 682 1490 682 q 1188 649 1242 682 q 972 425 1156 629 q 985 419 976 419 q 1032 421 1004 419 q 1097 425 1060 422 q 1163 429 1135 428 q 1211 431 1192 431 q 1304 421 1304 431 q 1264 404 1304 413 q 1206 398 1250 401 q 1088 389 1161 394 q 915 353 979 383 q 882 319 901 347 q 831 235 863 292 q 792 145 800 181 q 783 94 783 110 q 808 35 783 56 q 894 15 833 15 q 1037 37 956 15 q 1218 103 1118 58 q 1257 122 1224 106 q 1325 153 1290 138 q 1332 154 1328 154 q 1333 153 1333 154 q 1328 139 1333 149 q 1115 22 1289 83 q 868 -33 961 -33 q 761 -8 799 -33 q 724 72 724 17 q 725 100 724 86 q 729 128 726 114 q 675 92 704 110 q 613 58 646 75 q 253 -36 426 -36 m 264 -7 q 597 93 431 -7 q 677 144 629 113 q 756 208 725 176 q 827 326 783 268 q 921 444 871 385 q 926 489 924 465 q 928 526 928 513 q 839 672 928 625 q 661 711 769 711 q 364 649 522 711 q 156 533 243 600 q 32 343 32 439 q 104 236 32 261 q 185 351 136 293 q 296 467 235 410 q 540 633 425 585 q 594 652 569 644 q 640 660 619 660 l 643 660 q 660 647 660 660 q 639 629 660 633 q 544 597 590 621 q 429 519 497 572 q 356 459 394 493 q 278 383 318 425 q 196 289 225 329 q 160 222 167 249 q 211 217 183 217 q 460 333 335 217 q 499 369 488 360 q 508 379 510 379 q 518 368 518 379 q 455 296 489 326 q 381 242 421 265 q 201 189 290 189 q 174 191 188 189 q 150 196 161 193 q 126 110 126 149 q 167 24 126 56 q 264 -7 206 -7 z "},"Ó":{"ha":911,"x_min":-7,"x_max":967,"o":"m 246 -36 q 64 110 64 -36 q 85 207 64 156 q -7 342 -7 251 q 110 563 -7 461 q 336 690 203 643 q 625 743 482 743 q 851 693 760 743 q 967 506 967 628 q 889 296 967 407 q 606 58 788 150 q 246 -36 419 -36 m 257 -7 q 590 93 424 -7 q 846 331 746 186 q 921 526 921 439 q 832 672 921 625 q 654 711 763 711 q 357 649 515 711 q 149 533 236 600 q 25 343 25 439 q 97 236 25 261 q 178 351 129 293 q 289 467 228 410 q 533 633 418 585 q 588 652 563 644 q 633 660 613 660 l 636 660 q 653 647 653 660 q 632 629 653 633 q 538 597 583 621 q 422 519 490 572 q 349 459 388 493 q 271 383 311 425 q 189 289 218 329 q 153 222 160 249 q 204 217 176 217 q 453 333 328 217 q 492 369 481 360 q 501 379 503 379 q 511 368 511 379 q 448 296 482 326 q 374 242 414 265 q 194 189 283 189 q 167 191 181 189 q 143 196 154 193 q 119 110 119 149 q 160 24 119 56 q 257 -7 199 -7 m 758 779 q 751 785 751 779 q 756 793 751 789 q 832 851 785 818 q 917 907 879 883 q 932 914 925 913 q 942 915 939 915 q 949 910 944 915 q 953 890 953 906 q 948 875 953 882 q 940 865 943 868 q 910 849 936 863 q 851 819 883 836 q 791 791 818 803 q 758 779 764 779 z "},"Ŏ":{"ha":911,"x_min":-7,"x_max":967,"o":"m 246 -36 q 64 110 64 -36 q 85 207 64 156 q -7 342 -7 251 q 110 563 -7 461 q 336 690 203 643 q 625 743 482 743 q 851 693 760 743 q 967 506 967 628 q 889 296 967 407 q 606 58 788 150 q 246 -36 419 -36 m 257 -7 q 590 93 424 -7 q 846 331 746 186 q 921 526 921 439 q 832 672 921 625 q 654 711 763 711 q 357 649 515 711 q 149 533 236 600 q 25 343 25 439 q 97 236 25 261 q 178 351 129 293 q 289 467 228 410 q 533 633 418 585 q 588 652 563 644 q 633 660 613 660 l 636 660 q 653 647 653 660 q 632 629 653 633 q 538 597 583 621 q 422 519 490 572 q 349 459 388 493 q 271 383 311 425 q 189 289 218 329 q 153 222 160 249 q 204 217 176 217 q 453 333 328 217 q 492 369 481 360 q 501 379 503 379 q 511 368 511 379 q 448 296 482 326 q 374 242 414 265 q 194 189 283 189 q 167 191 181 189 q 143 196 154 193 q 119 110 119 149 q 160 24 119 56 q 257 -7 199 -7 m 808 778 q 744 807 765 778 q 724 867 724 836 q 730 895 724 886 q 742 904 736 904 q 756 892 756 904 q 769 847 756 867 q 818 826 783 826 q 878 840 846 826 q 939 896 910 853 q 949 900 943 900 q 956 888 958 900 q 897 808 936 838 q 808 778 858 778 z "},"Ǒ":{"ha":911,"x_min":-7,"x_max":992,"o":"m 983 918 q 992 911 992 918 q 982 897 992 904 q 907 847 942 869 q 831 796 872 824 q 799 781 808 781 q 781 794 788 781 q 755 844 767 822 q 733 889 743 867 q 728 910 728 901 q 739 921 728 921 q 751 915 744 921 q 764 903 758 910 q 797 865 779 885 q 822 838 814 846 q 860 858 835 844 q 911 885 885 871 q 958 908 938 899 q 983 918 979 918 m 246 -36 q 64 110 64 -36 q 85 207 64 156 q -7 342 -7 251 q 110 563 -7 461 q 336 690 203 643 q 625 743 482 743 q 851 693 760 743 q 967 506 967 628 q 889 296 967 407 q 606 58 788 150 q 246 -36 419 -36 m 257 -7 q 590 93 424 -7 q 846 331 746 186 q 921 526 921 439 q 832 672 921 625 q 654 711 763 711 q 357 649 515 711 q 149 533 236 600 q 25 343 25 439 q 97 236 25 261 q 178 351 129 293 q 289 467 228 410 q 533 633 418 585 q 588 652 563 644 q 633 660 613 660 l 636 660 q 653 647 653 660 q 632 629 653 633 q 538 597 583 621 q 422 519 490 572 q 349 459 388 493 q 271 383 311 425 q 189 289 218 329 q 153 222 160 249 q 204 217 176 217 q 453 333 328 217 q 492 369 481 360 q 501 379 503 379 q 511 368 511 379 q 448 296 482 326 q 374 242 414 265 q 194 189 283 189 q 167 191 181 189 q 143 196 154 193 q 119 110 119 149 q 160 24 119 56 q 257 -7 199 -7 z "},"ǒ":{"ha":911,"x_min":-7,"x_max":992,"o":"m 983 918 q 992 911 992 918 q 982 897 992 904 q 907 847 942 869 q 831 796 872 824 q 799 781 808 781 q 781 794 788 781 q 755 844 767 822 q 733 889 743 867 q 728 910 728 901 q 739 921 728 921 q 751 915 744 921 q 764 903 758 910 q 797 865 779 885 q 822 838 814 846 q 860 858 835 844 q 911 885 885 871 q 958 908 938 899 q 983 918 979 918 m 246 -36 q 64 110 64 -36 q 85 207 64 156 q -7 342 -7 251 q 110 563 -7 461 q 336 690 203 643 q 625 743 482 743 q 851 693 760 743 q 967 506 967 628 q 889 296 967 407 q 606 58 788 150 q 246 -36 419 -36 m 257 -7 q 590 93 424 -7 q 846 331 746 186 q 921 526 921 439 q 832 672 921 625 q 654 711 763 711 q 357 649 515 711 q 149 533 236 600 q 25 343 25 439 q 97 236 25 261 q 178 351 129 293 q 289 467 228 410 q 533 633 418 585 q 588 652 563 644 q 633 660 613 660 l 636 660 q 653 647 653 660 q 632 629 653 633 q 538 597 583 621 q 422 519 490 572 q 349 459 388 493 q 271 383 311 425 q 189 289 218 329 q 153 222 160 249 q 204 217 176 217 q 453 333 328 217 q 492 369 481 360 q 501 379 503 379 q 511 368 511 379 q 448 296 482 326 q 374 242 414 265 q 194 189 283 189 q 167 191 181 189 q 143 196 154 193 q 119 110 119 149 q 160 24 119 56 q 257 -7 199 -7 z "},"Ô":{"ha":911,"x_min":-7,"x_max":967,"o":"m 246 -36 q 64 110 64 -36 q 85 207 64 156 q -7 342 -7 251 q 110 563 -7 461 q 336 690 203 643 q 625 743 482 743 q 851 693 760 743 q 967 506 967 628 q 889 296 967 407 q 606 58 788 150 q 246 -36 419 -36 m 257 -7 q 590 93 424 -7 q 846 331 746 186 q 921 526 921 439 q 832 672 921 625 q 654 711 763 711 q 357 649 515 711 q 149 533 236 600 q 25 343 25 439 q 97 236 25 261 q 178 351 129 293 q 289 467 228 410 q 533 633 418 585 q 588 652 563 644 q 633 660 613 660 l 636 660 q 653 647 653 660 q 632 629 653 633 q 538 597 583 621 q 422 519 490 572 q 349 459 388 493 q 271 383 311 425 q 189 289 218 329 q 153 222 160 249 q 204 217 176 217 q 453 333 328 217 q 492 369 481 360 q 501 379 503 379 q 511 368 511 379 q 448 296 482 326 q 374 242 414 265 q 194 189 283 189 q 167 191 181 189 q 143 196 154 193 q 119 110 119 149 q 160 24 119 56 q 257 -7 199 -7 m 678 783 q 669 790 669 783 q 679 804 669 797 q 754 856 719 832 q 831 906 789 879 q 863 921 854 921 q 881 907 874 921 q 907 858 896 881 q 928 813 918 835 q 933 792 933 800 q 922 781 933 781 q 910 786 917 781 q 897 799 904 792 q 865 836 882 817 q 839 864 847 856 q 801 844 826 857 q 750 817 776 831 q 703 793 724 803 q 678 783 682 783 z "},"Ố":{"ha":911,"x_min":-7,"x_max":1131,"o":"m 246 -36 q 64 110 64 -36 q 85 207 64 156 q -7 342 -7 251 q 110 563 -7 461 q 336 690 203 643 q 625 743 482 743 q 851 693 760 743 q 967 506 967 628 q 889 296 967 407 q 606 58 788 150 q 246 -36 419 -36 m 257 -7 q 590 93 424 -7 q 846 331 746 186 q 921 526 921 439 q 832 672 921 625 q 654 711 763 711 q 357 649 515 711 q 149 533 236 600 q 25 343 25 439 q 97 236 25 261 q 178 351 129 293 q 289 467 228 410 q 533 633 418 585 q 588 652 563 644 q 633 660 613 660 l 636 660 q 653 647 653 660 q 632 629 653 633 q 538 597 583 621 q 422 519 490 572 q 349 459 388 493 q 271 383 311 425 q 189 289 218 329 q 153 222 160 249 q 204 217 176 217 q 453 333 328 217 q 492 369 481 360 q 501 379 503 379 q 511 368 511 379 q 448 296 482 326 q 374 242 414 265 q 194 189 283 189 q 167 191 181 189 q 143 196 154 193 q 119 110 119 149 q 160 24 119 56 q 257 -7 199 -7 m 678 783 q 669 790 669 783 q 679 804 669 797 q 754 856 719 832 q 831 906 789 879 q 863 921 854 921 q 881 907 874 921 q 907 858 896 881 q 928 813 918 835 q 933 792 933 800 q 922 781 933 781 q 910 786 917 781 q 897 799 904 792 q 865 836 882 817 q 839 864 847 856 q 801 844 826 857 q 750 817 776 831 q 703 793 724 803 q 678 783 682 783 m 936 899 q 929 904 929 899 q 933 913 929 908 q 1010 970 963 938 q 1094 1026 1057 1003 q 1110 1033 1103 1032 q 1119 1035 1117 1035 q 1126 1030 1122 1035 q 1131 1010 1131 1025 q 1126 994 1131 1001 q 1118 985 1121 988 q 1088 969 1114 982 q 1028 939 1061 956 q 969 910 996 922 q 936 899 942 899 z "},"Ộ":{"ha":911,"x_min":-7,"x_max":967,"o":"m 246 -36 q 64 110 64 -36 q 85 207 64 156 q -7 342 -7 251 q 110 563 -7 461 q 336 690 203 643 q 625 743 482 743 q 851 693 760 743 q 967 506 967 628 q 889 296 967 407 q 606 58 788 150 q 246 -36 419 -36 m 257 -7 q 590 93 424 -7 q 846 331 746 186 q 921 526 921 439 q 832 672 921 625 q 654 711 763 711 q 357 649 515 711 q 149 533 236 600 q 25 343 25 439 q 97 236 25 261 q 178 351 129 293 q 289 467 228 410 q 533 633 418 585 q 588 652 563 644 q 633 660 613 660 l 636 660 q 653 647 653 660 q 632 629 653 633 q 538 597 583 621 q 422 519 490 572 q 349 459 388 493 q 271 383 311 425 q 189 289 218 329 q 153 222 160 249 q 204 217 176 217 q 453 333 328 217 q 492 369 481 360 q 501 379 503 379 q 511 368 511 379 q 448 296 482 326 q 374 242 414 265 q 194 189 283 189 q 167 191 181 189 q 143 196 154 193 q 119 110 119 149 q 160 24 119 56 q 257 -7 199 -7 m 143 -157 q 107 -128 107 -157 q 119 -97 107 -112 q 150 -82 132 -82 q 174 -92 165 -82 q 183 -115 183 -101 q 172 -144 183 -131 q 143 -157 160 -157 m 678 783 q 669 790 669 783 q 679 804 669 797 q 754 856 719 832 q 831 906 789 879 q 863 921 854 921 q 881 907 874 921 q 907 858 896 881 q 928 813 918 835 q 933 792 933 800 q 922 781 933 781 q 910 786 917 781 q 897 799 904 792 q 865 836 882 817 q 839 864 847 856 q 801 844 826 857 q 750 817 776 831 q 703 793 724 803 q 678 783 682 783 z "},"Ồ":{"ha":911,"x_min":-7,"x_max":1042,"o":"m 1035 899 q 1002 910 1029 899 q 942 939 975 922 q 883 969 910 956 q 853 985 857 982 q 845 994 850 988 q 840 1010 840 1001 q 844 1030 840 1025 q 851 1035 849 1035 q 861 1033 854 1035 q 876 1026 868 1032 q 961 970 914 1003 q 1038 913 1008 938 q 1042 904 1042 908 q 1035 899 1042 899 m 246 -36 q 64 110 64 -36 q 85 207 64 156 q -7 342 -7 251 q 110 563 -7 461 q 336 690 203 643 q 625 743 482 743 q 851 693 760 743 q 967 506 967 628 q 889 296 967 407 q 606 58 788 150 q 246 -36 419 -36 m 257 -7 q 590 93 424 -7 q 846 331 746 186 q 921 526 921 439 q 832 672 921 625 q 654 711 763 711 q 357 649 515 711 q 149 533 236 600 q 25 343 25 439 q 97 236 25 261 q 178 351 129 293 q 289 467 228 410 q 533 633 418 585 q 588 652 563 644 q 633 660 613 660 l 636 660 q 653 647 653 660 q 632 629 653 633 q 538 597 583 621 q 422 519 490 572 q 349 459 388 493 q 271 383 311 425 q 189 289 218 329 q 153 222 160 249 q 204 217 176 217 q 453 333 328 217 q 492 369 481 360 q 501 379 503 379 q 511 368 511 379 q 448 296 482 326 q 374 242 414 265 q 194 189 283 189 q 167 191 181 189 q 143 196 154 193 q 119 110 119 149 q 160 24 119 56 q 257 -7 199 -7 m 678 783 q 669 790 669 783 q 679 804 669 797 q 754 856 719 832 q 831 906 789 879 q 863 921 854 921 q 881 907 874 921 q 907 858 896 881 q 928 813 918 835 q 933 792 933 800 q 922 781 933 781 q 910 786 917 781 q 897 799 904 792 q 865 836 882 817 q 839 864 847 856 q 801 844 826 857 q 750 817 776 831 q 703 793 724 803 q 678 783 682 783 z "},"Ổ":{"ha":911,"x_min":-7,"x_max":1072,"o":"m 246 -36 q 64 110 64 -36 q 85 207 64 156 q -7 342 -7 251 q 110 563 -7 461 q 336 690 203 643 q 625 743 482 743 q 851 693 760 743 q 967 506 967 628 q 889 296 967 407 q 606 58 788 150 q 246 -36 419 -36 m 257 -7 q 590 93 424 -7 q 846 331 746 186 q 921 526 921 439 q 832 672 921 625 q 654 711 763 711 q 357 649 515 711 q 149 533 236 600 q 25 343 25 439 q 97 236 25 261 q 178 351 129 293 q 289 467 228 410 q 533 633 418 585 q 588 652 563 644 q 633 660 613 660 l 636 660 q 653 647 653 660 q 632 629 653 633 q 538 597 583 621 q 422 519 490 572 q 349 459 388 493 q 271 383 311 425 q 189 289 218 329 q 153 222 160 249 q 204 217 176 217 q 453 333 328 217 q 492 369 481 360 q 501 379 503 379 q 511 368 511 379 q 448 296 482 326 q 374 242 414 265 q 194 189 283 189 q 167 191 181 189 q 143 196 154 193 q 119 110 119 149 q 160 24 119 56 q 257 -7 199 -7 m 678 783 q 669 790 669 783 q 679 804 669 797 q 754 856 719 832 q 831 906 789 879 q 863 921 854 921 q 881 907 874 921 q 907 858 896 881 q 928 813 918 835 q 933 792 933 800 q 922 781 933 781 q 910 786 917 781 q 897 799 904 792 q 865 836 882 817 q 839 864 847 856 q 801 844 826 857 q 750 817 776 831 q 703 793 724 803 q 678 783 682 783 m 963 860 q 956 871 949 860 q 985 902 964 886 q 1013 947 1006 918 q 1014 958 1014 951 q 976 985 1014 985 q 946 981 958 985 q 928 978 933 978 q 924 982 924 978 q 951 1006 924 993 q 1008 1018 979 1018 q 1054 1003 1036 1018 q 1068 964 1072 989 q 1031 906 1061 929 q 981 868 1001 883 q 963 860 969 860 z "},"Ỗ":{"ha":911,"x_min":-7,"x_max":985,"o":"m 246 -36 q 64 110 64 -36 q 85 207 64 156 q -7 342 -7 251 q 110 563 -7 461 q 336 690 203 643 q 625 743 482 743 q 851 693 760 743 q 967 506 967 628 q 889 296 967 407 q 606 58 788 150 q 246 -36 419 -36 m 257 -7 q 590 93 424 -7 q 846 331 746 186 q 921 526 921 439 q 832 672 921 625 q 654 711 763 711 q 357 649 515 711 q 149 533 236 600 q 25 343 25 439 q 97 236 25 261 q 178 351 129 293 q 289 467 228 410 q 533 633 418 585 q 588 652 563 644 q 633 660 613 660 l 636 660 q 653 647 653 660 q 632 629 653 633 q 538 597 583 621 q 422 519 490 572 q 349 459 388 493 q 271 383 311 425 q 189 289 218 329 q 153 222 160 249 q 204 217 176 217 q 453 333 328 217 q 492 369 481 360 q 501 379 503 379 q 511 368 511 379 q 448 296 482 326 q 374 242 414 265 q 194 189 283 189 q 167 191 181 189 q 143 196 154 193 q 119 110 119 149 q 160 24 119 56 q 257 -7 199 -7 m 678 783 q 669 790 669 783 q 679 804 669 797 q 754 856 719 832 q 831 906 789 879 q 863 921 854 921 q 881 907 874 921 q 907 858 896 881 q 928 813 918 835 q 933 792 933 800 q 922 781 933 781 q 910 786 917 781 q 897 799 904 792 q 865 836 882 817 q 839 864 847 856 q 801 844 826 857 q 750 817 776 831 q 703 793 724 803 q 678 783 682 783 m 754 964 q 746 971 746 964 q 766 1019 746 999 q 817 1039 786 1039 q 876 1025 850 1039 q 928 1011 901 1011 q 956 1019 946 1011 q 975 1046 965 1028 q 985 1039 985 1046 q 964 988 985 1008 q 917 968 943 968 q 854 983 879 968 q 801 999 829 999 q 754 964 769 999 z "},"Ȍ":{"ha":911,"x_min":-7,"x_max":967,"o":"m 246 -36 q 64 110 64 -36 q 85 207 64 156 q -7 342 -7 251 q 110 563 -7 461 q 336 690 203 643 q 625 743 482 743 q 851 693 760 743 q 967 506 967 628 q 889 296 967 407 q 606 58 788 150 q 246 -36 419 -36 m 257 -7 q 590 93 424 -7 q 846 331 746 186 q 921 526 921 439 q 832 672 921 625 q 654 711 763 711 q 357 649 515 711 q 149 533 236 600 q 25 343 25 439 q 97 236 25 261 q 178 351 129 293 q 289 467 228 410 q 533 633 418 585 q 588 652 563 644 q 633 660 613 660 l 636 660 q 653 647 653 660 q 632 629 653 633 q 538 597 583 621 q 422 519 490 572 q 349 459 388 493 q 271 383 311 425 q 189 289 218 329 q 153 222 160 249 q 204 217 176 217 q 453 333 328 217 q 492 369 481 360 q 501 379 503 379 q 511 368 511 379 q 448 296 482 326 q 374 242 414 265 q 194 189 283 189 q 167 191 181 189 q 143 196 154 193 q 119 110 119 149 q 160 24 119 56 q 257 -7 199 -7 m 850 781 q 826 797 844 782 q 785 831 807 811 q 747 867 764 850 q 725 888 729 883 q 720 896 724 890 q 719 911 717 901 q 738 936 726 936 q 761 918 747 936 q 815 853 794 879 q 857 794 836 826 q 859 790 860 793 q 858 785 858 788 q 850 781 858 781 m 761 783 q 735 796 756 783 q 691 825 715 808 q 648 856 667 842 q 625 874 629 869 q 619 881 622 876 q 615 892 615 886 q 632 922 615 922 q 641 919 635 922 q 656 910 647 917 q 713 857 682 888 q 767 797 743 826 q 771 788 771 793 q 761 783 771 783 z "},"Ö":{"ha":911,"x_min":-7,"x_max":967,"o":"m 246 -36 q 64 110 64 -36 q 85 207 64 156 q -7 342 -7 251 q 110 563 -7 461 q 336 690 203 643 q 625 743 482 743 q 851 693 760 743 q 967 506 967 628 q 889 296 967 407 q 606 58 788 150 q 246 -36 419 -36 m 257 -7 q 590 93 424 -7 q 846 331 746 186 q 921 526 921 439 q 832 672 921 625 q 654 711 763 711 q 357 649 515 711 q 149 533 236 600 q 25 343 25 439 q 97 236 25 261 q 178 351 129 293 q 289 467 228 410 q 533 633 418 585 q 588 652 563 644 q 633 660 613 660 l 636 660 q 653 647 653 660 q 632 629 653 633 q 538 597 583 621 q 422 519 490 572 q 349 459 388 493 q 271 383 311 425 q 189 289 218 329 q 153 222 160 249 q 204 217 176 217 q 453 333 328 217 q 492 369 481 360 q 501 379 503 379 q 511 368 511 379 q 448 296 482 326 q 374 242 414 265 q 194 189 283 189 q 167 191 181 189 q 143 196 154 193 q 119 110 119 149 q 160 24 119 56 q 257 -7 199 -7 m 874 781 q 838 810 838 781 q 850 840 838 825 q 881 856 863 856 q 905 846 896 856 q 914 822 914 836 q 902 794 914 807 q 874 781 890 781 m 733 781 q 697 810 697 781 q 710 840 697 825 q 740 856 722 856 q 765 846 756 856 q 774 822 774 836 q 762 794 774 807 q 733 781 750 781 z "},"Ȫ":{"ha":911,"x_min":-7,"x_max":967,"o":"m 246 -36 q 64 110 64 -36 q 85 207 64 156 q -7 342 -7 251 q 110 563 -7 461 q 336 690 203 643 q 625 743 482 743 q 851 693 760 743 q 967 506 967 628 q 889 296 967 407 q 606 58 788 150 q 246 -36 419 -36 m 257 -7 q 590 93 424 -7 q 846 331 746 186 q 921 526 921 439 q 832 672 921 625 q 654 711 763 711 q 357 649 515 711 q 149 533 236 600 q 25 343 25 439 q 97 236 25 261 q 178 351 129 293 q 289 467 228 410 q 533 633 418 585 q 588 652 563 644 q 633 660 613 660 l 636 660 q 653 647 653 660 q 632 629 653 633 q 538 597 583 621 q 422 519 490 572 q 349 459 388 493 q 271 383 311 425 q 189 289 218 329 q 153 222 160 249 q 204 217 176 217 q 453 333 328 217 q 492 369 481 360 q 501 379 503 379 q 511 368 511 379 q 448 296 482 326 q 374 242 414 265 q 194 189 283 189 q 167 191 181 189 q 143 196 154 193 q 119 110 119 149 q 160 24 119 56 q 257 -7 199 -7 m 874 781 q 838 810 838 781 q 850 840 838 825 q 881 856 863 856 q 905 846 896 856 q 914 822 914 836 q 902 794 914 807 q 874 781 890 781 m 733 781 q 697 810 697 781 q 710 840 697 825 q 740 856 722 856 q 765 846 756 856 q 774 822 774 836 q 762 794 774 807 q 733 781 750 781 m 815 907 q 765 907 792 907 q 724 911 738 907 q 715 922 715 914 q 721 938 715 932 q 731 942 725 942 q 743 943 738 943 q 816 942 781 943 q 885 939 851 942 q 918 934 899 938 q 938 926 938 931 q 915 911 938 913 q 889 910 908 911 q 849 908 869 908 q 815 907 828 907 z "},"Ȱ":{"ha":911,"x_min":-7,"x_max":967,"o":"m 246 -36 q 64 110 64 -36 q 85 207 64 156 q -7 342 -7 251 q 110 563 -7 461 q 336 690 203 643 q 625 743 482 743 q 851 693 760 743 q 967 506 967 628 q 889 296 967 407 q 606 58 788 150 q 246 -36 419 -36 m 257 -7 q 590 93 424 -7 q 846 331 746 186 q 921 526 921 439 q 832 672 921 625 q 654 711 763 711 q 357 649 515 711 q 149 533 236 600 q 25 343 25 439 q 97 236 25 261 q 178 351 129 293 q 289 467 228 410 q 533 633 418 585 q 588 652 563 644 q 633 660 613 660 l 636 660 q 653 647 653 660 q 632 629 653 633 q 538 597 583 621 q 422 519 490 572 q 349 459 388 493 q 271 383 311 425 q 189 289 218 329 q 153 222 160 249 q 204 217 176 217 q 453 333 328 217 q 492 369 481 360 q 501 379 503 379 q 511 368 511 379 q 448 296 482 326 q 374 242 414 265 q 194 189 283 189 q 167 191 181 189 q 143 196 154 193 q 119 110 119 149 q 160 24 119 56 q 257 -7 199 -7 m 821 781 q 785 810 785 781 q 797 840 785 825 q 828 856 810 856 q 852 846 843 856 q 861 822 861 836 q 849 794 861 807 q 821 781 838 781 m 819 903 q 769 903 796 903 q 728 907 742 903 q 719 918 719 910 q 725 933 719 928 q 735 938 729 938 q 747 939 742 939 q 820 938 785 939 q 889 935 856 938 q 922 930 903 933 q 942 922 942 926 q 919 907 942 908 q 893 906 913 907 q 853 903 874 904 q 819 903 832 903 z "},"Ọ":{"ha":911,"x_min":-7,"x_max":967,"o":"m 246 -36 q 64 110 64 -36 q 85 207 64 156 q -7 342 -7 251 q 110 563 -7 461 q 336 690 203 643 q 625 743 482 743 q 851 693 760 743 q 967 506 967 628 q 889 296 967 407 q 606 58 788 150 q 246 -36 419 -36 m 257 -7 q 590 93 424 -7 q 846 331 746 186 q 921 526 921 439 q 832 672 921 625 q 654 711 763 711 q 357 649 515 711 q 149 533 236 600 q 25 343 25 439 q 97 236 25 261 q 178 351 129 293 q 289 467 228 410 q 533 633 418 585 q 588 652 563 644 q 633 660 613 660 l 636 660 q 653 647 653 660 q 632 629 653 633 q 538 597 583 621 q 422 519 490 572 q 349 459 388 493 q 271 383 311 425 q 189 289 218 329 q 153 222 160 249 q 204 217 176 217 q 453 333 328 217 q 492 369 481 360 q 501 379 503 379 q 511 368 511 379 q 448 296 482 326 q 374 242 414 265 q 194 189 283 189 q 167 191 181 189 q 143 196 154 193 q 119 110 119 149 q 160 24 119 56 q 257 -7 199 -7 m 143 -157 q 107 -128 107 -157 q 119 -97 107 -112 q 150 -82 132 -82 q 174 -92 165 -82 q 183 -115 183 -101 q 172 -144 183 -131 q 143 -157 160 -157 z "},"Ò":{"ha":911,"x_min":-7,"x_max":967,"o":"m 857 779 q 824 791 851 779 q 765 819 797 803 q 706 849 732 836 q 675 865 679 863 q 667 875 672 868 q 663 890 663 882 q 667 910 663 906 q 674 915 671 915 q 683 914 676 915 q 699 907 690 913 q 783 851 736 883 q 860 793 831 818 q 864 785 864 789 q 857 779 864 779 m 246 -36 q 64 110 64 -36 q 85 207 64 156 q -7 342 -7 251 q 110 563 -7 461 q 336 690 203 643 q 625 743 482 743 q 851 693 760 743 q 967 506 967 628 q 889 296 967 407 q 606 58 788 150 q 246 -36 419 -36 m 257 -7 q 590 93 424 -7 q 846 331 746 186 q 921 526 921 439 q 832 672 921 625 q 654 711 763 711 q 357 649 515 711 q 149 533 236 600 q 25 343 25 439 q 97 236 25 261 q 178 351 129 293 q 289 467 228 410 q 533 633 418 585 q 588 652 563 644 q 633 660 613 660 l 636 660 q 653 647 653 660 q 632 629 653 633 q 538 597 583 621 q 422 519 490 572 q 349 459 388 493 q 271 383 311 425 q 189 289 218 329 q 153 222 160 249 q 204 217 176 217 q 453 333 328 217 q 492 369 481 360 q 501 379 503 379 q 511 368 511 379 q 448 296 482 326 q 374 242 414 265 q 194 189 283 189 q 167 191 181 189 q 143 196 154 193 q 119 110 119 149 q 160 24 119 56 q 257 -7 199 -7 z "},"Ω":{"ha":539,"x_min":-6,"x_max":519,"o":"m 443 -4 q 406 0 425 -4 q 369 4 388 4 q 342 -1 353 4 q 340 -2 340 -1 q 340 -3 340 -3 q 338 -3 339 -3 q 336 -4 338 -4 q 326 3 329 -4 q 326 18 324 10 q 394 87 363 42 q 444 187 425 132 q 464 293 464 242 q 456 350 464 324 q 399 418 442 394 q 307 442 357 442 q 219 422 263 442 q 147 361 175 401 q 127 313 133 340 q 121 256 121 286 q 142 135 121 196 q 197 33 163 74 q 201 24 201 29 q 193 11 201 15 q 160 7 176 7 q 101 15 131 7 q 43 22 72 22 q 33 22 38 22 q 24 21 29 22 q 15 13 18 19 q 13 3 13 7 q 8 -1 13 -1 q -1 3 4 -1 q -6 14 -6 7 q 9 38 -6 32 q 46 44 24 44 q 99 39 71 44 q 150 28 128 33 q 178 22 172 22 q 110 135 139 68 q 82 268 82 201 q 92 339 82 304 q 128 403 103 374 q 215 465 161 443 q 322 488 268 488 q 431 458 385 488 q 485 399 465 436 q 506 311 506 361 q 503 276 506 294 q 496 239 501 258 q 477 187 489 215 q 453 138 465 158 q 413 81 436 108 q 369 28 389 53 q 410 21 389 26 q 450 15 432 15 q 480 23 467 15 q 503 50 493 31 q 517 65 511 65 q 519 61 519 65 q 515 49 519 57 q 482 6 501 17 q 443 -4 463 -4 z "},"Ỏ":{"ha":911,"x_min":-7,"x_max":967,"o":"m 246 -36 q 64 110 64 -36 q 85 207 64 156 q -7 342 -7 251 q 110 563 -7 461 q 336 690 203 643 q 625 743 482 743 q 851 693 760 743 q 967 506 967 628 q 889 296 967 407 q 606 58 788 150 q 246 -36 419 -36 m 257 -7 q 590 93 424 -7 q 846 331 746 186 q 921 526 921 439 q 832 672 921 625 q 654 711 763 711 q 357 649 515 711 q 149 533 236 600 q 25 343 25 439 q 97 236 25 261 q 178 351 129 293 q 289 467 228 410 q 533 633 418 585 q 588 652 563 644 q 633 660 613 660 l 636 660 q 653 647 653 660 q 632 629 653 633 q 538 597 583 621 q 422 519 490 572 q 349 459 388 493 q 271 383 311 425 q 189 289 218 329 q 153 222 160 249 q 204 217 176 217 q 453 333 328 217 q 492 369 481 360 q 501 379 503 379 q 511 368 511 379 q 448 296 482 326 q 374 242 414 265 q 194 189 283 189 q 167 191 181 189 q 143 196 154 193 q 119 110 119 149 q 160 24 119 56 q 257 -7 199 -7 m 818 778 q 811 789 804 778 q 840 820 819 804 q 868 865 861 836 q 869 876 869 869 q 832 903 869 903 q 801 899 814 903 q 783 896 789 896 q 779 900 779 896 q 807 924 779 911 q 864 936 835 936 q 910 922 892 936 q 924 882 928 907 q 887 824 917 847 q 836 786 857 801 q 818 778 825 778 z "},"Ơ":{"ha":911,"x_min":-7,"x_max":1072,"o":"m 246 -36 q 64 110 64 -36 q 85 207 64 156 q -7 342 -7 251 q 110 563 -7 461 q 336 690 203 643 q 625 743 482 743 q 851 693 760 743 q 967 506 967 628 q 889 296 967 407 q 606 58 788 150 q 246 -36 419 -36 m 257 -7 q 590 93 424 -7 q 846 331 746 186 q 921 526 921 439 q 832 672 921 625 q 654 711 763 711 q 357 649 515 711 q 149 533 236 600 q 25 343 25 439 q 97 236 25 261 q 178 351 129 293 q 289 467 228 410 q 533 633 418 585 q 588 652 563 644 q 633 660 613 660 l 636 660 q 653 647 653 660 q 632 629 653 633 q 538 597 583 621 q 422 519 490 572 q 349 459 388 493 q 271 383 311 425 q 189 289 218 329 q 153 222 160 249 q 204 217 176 217 q 453 333 328 217 q 492 369 481 360 q 501 379 503 379 q 511 368 511 379 q 448 296 482 326 q 374 242 414 265 q 194 189 283 189 q 167 191 181 189 q 143 196 154 193 q 119 110 119 149 q 160 24 119 56 q 257 -7 199 -7 m 974 575 q 952 579 964 575 q 933 589 940 583 q 931 597 932 592 q 933 601 929 603 q 963 597 954 597 q 1014 614 996 597 q 1032 647 1032 631 q 1028 669 1032 658 q 1022 686 1025 681 l 1021 692 q 1026 708 1021 699 q 1040 717 1031 717 q 1064 694 1056 717 q 1072 647 1072 671 q 1056 605 1072 621 q 1016 582 1039 589 q 974 575 993 575 z "},"Ớ":{"ha":911,"x_min":-7,"x_max":1072,"o":"m 246 -36 q 64 110 64 -36 q 85 207 64 156 q -7 342 -7 251 q 110 563 -7 461 q 336 690 203 643 q 625 743 482 743 q 851 693 760 743 q 967 506 967 628 q 889 296 967 407 q 606 58 788 150 q 246 -36 419 -36 m 257 -7 q 590 93 424 -7 q 846 331 746 186 q 921 526 921 439 q 832 672 921 625 q 654 711 763 711 q 357 649 515 711 q 149 533 236 600 q 25 343 25 439 q 97 236 25 261 q 178 351 129 293 q 289 467 228 410 q 533 633 418 585 q 588 652 563 644 q 633 660 613 660 l 636 660 q 653 647 653 660 q 632 629 653 633 q 538 597 583 621 q 422 519 490 572 q 349 459 388 493 q 271 383 311 425 q 189 289 218 329 q 153 222 160 249 q 204 217 176 217 q 453 333 328 217 q 492 369 481 360 q 501 379 503 379 q 511 368 511 379 q 448 296 482 326 q 374 242 414 265 q 194 189 283 189 q 167 191 181 189 q 143 196 154 193 q 119 110 119 149 q 160 24 119 56 q 257 -7 199 -7 m 974 575 q 952 579 964 575 q 933 589 940 583 q 931 597 932 592 q 933 601 929 603 q 963 597 954 597 q 1014 614 996 597 q 1032 647 1032 631 q 1028 669 1032 658 q 1022 686 1025 681 l 1021 692 q 1026 708 1021 699 q 1040 717 1031 717 q 1064 694 1056 717 q 1072 647 1072 671 q 1056 605 1072 621 q 1016 582 1039 589 q 974 575 993 575 m 758 779 q 751 785 751 779 q 756 793 751 789 q 832 851 785 818 q 917 907 879 883 q 932 914 925 913 q 942 915 939 915 q 949 910 944 915 q 953 890 953 906 q 948 875 953 882 q 940 865 943 868 q 910 849 936 863 q 851 819 883 836 q 791 791 818 803 q 758 779 764 779 z "},"Ợ":{"ha":911,"x_min":-7,"x_max":1072,"o":"m 246 -36 q 64 110 64 -36 q 85 207 64 156 q -7 342 -7 251 q 110 563 -7 461 q 336 690 203 643 q 625 743 482 743 q 851 693 760 743 q 967 506 967 628 q 889 296 967 407 q 606 58 788 150 q 246 -36 419 -36 m 257 -7 q 590 93 424 -7 q 846 331 746 186 q 921 526 921 439 q 832 672 921 625 q 654 711 763 711 q 357 649 515 711 q 149 533 236 600 q 25 343 25 439 q 97 236 25 261 q 178 351 129 293 q 289 467 228 410 q 533 633 418 585 q 588 652 563 644 q 633 660 613 660 l 636 660 q 653 647 653 660 q 632 629 653 633 q 538 597 583 621 q 422 519 490 572 q 349 459 388 493 q 271 383 311 425 q 189 289 218 329 q 153 222 160 249 q 204 217 176 217 q 453 333 328 217 q 492 369 481 360 q 501 379 503 379 q 511 368 511 379 q 448 296 482 326 q 374 242 414 265 q 194 189 283 189 q 167 191 181 189 q 143 196 154 193 q 119 110 119 149 q 160 24 119 56 q 257 -7 199 -7 m 974 575 q 952 579 964 575 q 933 589 940 583 q 931 597 932 592 q 933 601 929 603 q 963 597 954 597 q 1014 614 996 597 q 1032 647 1032 631 q 1028 669 1032 658 q 1022 686 1025 681 l 1021 692 q 1026 708 1021 699 q 1040 717 1031 717 q 1064 694 1056 717 q 1072 647 1072 671 q 1056 605 1072 621 q 1016 582 1039 589 q 974 575 993 575 m 143 -157 q 107 -128 107 -157 q 119 -97 107 -112 q 150 -82 132 -82 q 174 -92 165 -82 q 183 -115 183 -101 q 172 -144 183 -131 q 143 -157 160 -157 z "},"Ờ":{"ha":911,"x_min":-7,"x_max":1072,"o":"m 857 779 q 824 791 851 779 q 765 819 797 803 q 706 849 732 836 q 675 865 679 863 q 667 875 672 868 q 663 890 663 882 q 667 910 663 906 q 674 915 671 915 q 683 914 676 915 q 699 907 690 913 q 783 851 736 883 q 860 793 831 818 q 864 785 864 789 q 857 779 864 779 m 246 -36 q 64 110 64 -36 q 85 207 64 156 q -7 342 -7 251 q 110 563 -7 461 q 336 690 203 643 q 625 743 482 743 q 851 693 760 743 q 967 506 967 628 q 889 296 967 407 q 606 58 788 150 q 246 -36 419 -36 m 257 -7 q 590 93 424 -7 q 846 331 746 186 q 921 526 921 439 q 832 672 921 625 q 654 711 763 711 q 357 649 515 711 q 149 533 236 600 q 25 343 25 439 q 97 236 25 261 q 178 351 129 293 q 289 467 228 410 q 533 633 418 585 q 588 652 563 644 q 633 660 613 660 l 636 660 q 653 647 653 660 q 632 629 653 633 q 538 597 583 621 q 422 519 490 572 q 349 459 388 493 q 271 383 311 425 q 189 289 218 329 q 153 222 160 249 q 204 217 176 217 q 453 333 328 217 q 492 369 481 360 q 501 379 503 379 q 511 368 511 379 q 448 296 482 326 q 374 242 414 265 q 194 189 283 189 q 167 191 181 189 q 143 196 154 193 q 119 110 119 149 q 160 24 119 56 q 257 -7 199 -7 m 974 575 q 952 579 964 575 q 933 589 940 583 q 931 597 932 592 q 933 601 929 603 q 963 597 954 597 q 1014 614 996 597 q 1032 647 1032 631 q 1028 669 1032 658 q 1022 686 1025 681 l 1021 692 q 1026 708 1021 699 q 1040 717 1031 717 q 1064 694 1056 717 q 1072 647 1072 671 q 1056 605 1072 621 q 1016 582 1039 589 q 974 575 993 575 z "},"Ở":{"ha":911,"x_min":-7,"x_max":1072,"o":"m 246 -36 q 64 110 64 -36 q 85 207 64 156 q -7 342 -7 251 q 110 563 -7 461 q 336 690 203 643 q 625 743 482 743 q 851 693 760 743 q 967 506 967 628 q 889 296 967 407 q 606 58 788 150 q 246 -36 419 -36 m 257 -7 q 590 93 424 -7 q 846 331 746 186 q 921 526 921 439 q 832 672 921 625 q 654 711 763 711 q 357 649 515 711 q 149 533 236 600 q 25 343 25 439 q 97 236 25 261 q 178 351 129 293 q 289 467 228 410 q 533 633 418 585 q 588 652 563 644 q 633 660 613 660 l 636 660 q 653 647 653 660 q 632 629 653 633 q 538 597 583 621 q 422 519 490 572 q 349 459 388 493 q 271 383 311 425 q 189 289 218 329 q 153 222 160 249 q 204 217 176 217 q 453 333 328 217 q 492 369 481 360 q 501 379 503 379 q 511 368 511 379 q 448 296 482 326 q 374 242 414 265 q 194 189 283 189 q 167 191 181 189 q 143 196 154 193 q 119 110 119 149 q 160 24 119 56 q 257 -7 199 -7 m 974 575 q 952 579 964 575 q 933 589 940 583 q 931 597 932 592 q 933 601 929 603 q 963 597 954 597 q 1014 614 996 597 q 1032 647 1032 631 q 1028 669 1032 658 q 1022 686 1025 681 l 1021 692 q 1026 708 1021 699 q 1040 717 1031 717 q 1064 694 1056 717 q 1072 647 1072 671 q 1056 605 1072 621 q 1016 582 1039 589 q 974 575 993 575 m 818 778 q 811 789 804 778 q 840 820 819 804 q 868 865 861 836 q 869 876 869 869 q 832 903 869 903 q 801 899 814 903 q 783 896 789 896 q 779 900 779 896 q 807 924 779 911 q 864 936 835 936 q 910 922 892 936 q 924 882 928 907 q 887 824 917 847 q 836 786 857 801 q 818 778 825 778 z "},"Ỡ":{"ha":911,"x_min":-7,"x_max":1072,"o":"m 246 -36 q 64 110 64 -36 q 85 207 64 156 q -7 342 -7 251 q 110 563 -7 461 q 336 690 203 643 q 625 743 482 743 q 851 693 760 743 q 967 506 967 628 q 889 296 967 407 q 606 58 788 150 q 246 -36 419 -36 m 257 -7 q 590 93 424 -7 q 846 331 746 186 q 921 526 921 439 q 832 672 921 625 q 654 711 763 711 q 357 649 515 711 q 149 533 236 600 q 25 343 25 439 q 97 236 25 261 q 178 351 129 293 q 289 467 228 410 q 533 633 418 585 q 588 652 563 644 q 633 660 613 660 l 636 660 q 653 647 653 660 q 632 629 653 633 q 538 597 583 621 q 422 519 490 572 q 349 459 388 493 q 271 383 311 425 q 189 289 218 329 q 153 222 160 249 q 204 217 176 217 q 453 333 328 217 q 492 369 481 360 q 501 379 503 379 q 511 368 511 379 q 448 296 482 326 q 374 242 414 265 q 194 189 283 189 q 167 191 181 189 q 143 196 154 193 q 119 110 119 149 q 160 24 119 56 q 257 -7 199 -7 m 974 575 q 952 579 964 575 q 933 589 940 583 q 931 597 932 592 q 933 601 929 603 q 963 597 954 597 q 1014 614 996 597 q 1032 647 1032 631 q 1028 669 1032 658 q 1022 686 1025 681 l 1021 692 q 1026 708 1021 699 q 1040 717 1031 717 q 1064 694 1056 717 q 1072 647 1072 671 q 1056 605 1072 621 q 1016 582 1039 589 q 974 575 993 575 m 694 785 q 686 792 686 785 q 706 840 686 819 q 757 860 726 860 q 816 846 790 860 q 868 832 842 832 q 896 840 886 832 q 915 867 906 849 q 925 860 925 867 q 904 809 925 829 q 857 789 883 789 q 794 804 819 789 q 742 819 769 819 q 694 785 710 819 z "}}}
